STARTFONT 2.1
FONT -FontForge-Libre Bodoni v2002-Regular-R-Normal--27-260-75-75-P-156-ISO10646-1
SIZE 26 75 75
FONTBOUNDINGBOX 52 41 -14 -9
COMMENT "Generated by fontforge, http://fontforge.sourceforge.net"
COMMENT "Copyright \(c\) 2014, Impallari Type \(www.impallari.com\)"
STARTPROPERTIES 39
FOUNDRY "FontForge"
FAMILY_NAME "Libre Bodoni v2002"
WEIGHT_NAME "Regular"
SLANT "R"
SETWIDTH_NAME "Normal"
ADD_STYLE_NAME ""
PIXEL_SIZE 27
POINT_SIZE 260
RESOLUTION_X 75
RESOLUTION_Y 75
SPACING "P"
AVERAGE_WIDTH 156
CHARSET_REGISTRY "ISO10646"
CHARSET_ENCODING "1"
FONTNAME_REGISTRY ""
CHARSET_COLLECTIONS "ISO8859-2 ISO8859-9 ISO8859-4 ISO10646-1"
FONT_NAME "LibreBodoniv2002-Bold"
FACE_NAME "Libre Bodoni v2002 Bold"
COPYRIGHT "Copyright \(c\) 2014, Impallari Type \(www.impallari.com\)"
FONT_VERSION "002.002"
FONT_ASCENT 22
FONT_DESCENT 5
UNDERLINE_POSITION -3
UNDERLINE_THICKNESS 2
X_HEIGHT 11
CAP_HEIGHT 20
RAW_ASCENT 800
RAW_DESCENT 200
NORM_SPACE 4
RELATIVE_WEIGHT 40
RELATIVE_SETWIDTH 50
SUPERSCRIPT_X 0
SUPERSCRIPT_Y 9
SUPERSCRIPT_SIZE 16
SUBSCRIPT_X 0
SUBSCRIPT_Y 2
SUBSCRIPT_SIZE 16
AVG_LOWERCASE_WIDTH 150
AVG_UPPERCASE_WIDTH 199
ENDPROPERTIES
CHARS 633
STARTCHAR CR
ENCODING 13
SWIDTH 160 0
DWIDTH 4 0
BBX 1 1 0 0
BITMAP
00
ENDCHAR
STARTCHAR space
ENCODING 32
SWIDTH 160 0
DWIDTH 4 0
BBX 1 1 0 0
BITMAP
00
ENDCHAR
STARTCHAR exclam
ENCODING 33
SWIDTH 307 0
DWIDTH 8 0
BBX 5 21 2 0
BITMAP
70
F0
F0
F0
F0
F0
70
60
60
60
60
60
20
20
20
00
60
F0
F8
F0
70
ENDCHAR
STARTCHAR quotedbl
ENCODING 34
SWIDTH 447 0
DWIDTH 12 0
BBX 10 10 1 11
BITMAP
7380
F3C0
F3C0
F3C0
7380
6180
2100
2100
2100
2100
ENDCHAR
STARTCHAR numbersign
ENCODING 35
SWIDTH 546 0
DWIDTH 15 0
BBX 15 21 0 0
BITMAP
0610
0610
0410
0430
0C30
0C30
0C20
7FFE
0820
0860
1860
1860
1840
FFF8
1840
1040
10C0
30C0
30C0
3080
3080
ENDCHAR
STARTCHAR dollar
ENCODING 36
SWIDTH 594 0
DWIDTH 16 0
BBX 15 25 1 -3
BITMAP
04C0
04C0
0FE0
34D8
64C8
44DC
C4FC
C4FC
F4D8
7EC0
7FE0
3FF8
1FFC
07FC
04FE
F4DE
F4C6
F4C6
E4C4
C4CC
64D8
1FE0
04C0
04C0
04C0
ENDCHAR
STARTCHAR percent
ENCODING 37
SWIDTH 913 0
DWIDTH 25 0
BBX 23 21 1 0
BITMAP
1E00C0
318180
61C180
61C300
E1C300
E1C600
E1C600
61CC00
61DC00
319840
3339B8
0C331C
00670C
00670E
00C70E
00C70E
01870E
01870C
03070C
030318
0600F0
ENDCHAR
STARTCHAR ampersand
ENCODING 38
SWIDTH 836 0
DWIDTH 23 0
BBX 21 21 1 0
BITMAP
01F800
038E00
070F00
0F0F00
0F0F00
0F8E00
0F8E00
07DC00
07F3F8
03E040
0DF040
31F040
70F840
F07C80
F07F00
F03F00
F81F00
FC1F80
FE1F80
7FE7C0
1F87F8
ENDCHAR
STARTCHAR quotesingle
ENCODING 39
SWIDTH 244 0
DWIDTH 7 0
BBX 4 10 1 11
BITMAP
70
F0
F0
F0
70
60
20
20
20
20
ENDCHAR
STARTCHAR parenleft
ENCODING 40
SWIDTH 309 0
DWIDTH 8 0
BBX 7 25 1 -3
BITMAP
02
04
0C
18
38
30
70
70
F0
F0
F0
F0
F0
F0
F0
F0
F0
70
70
70
38
18
18
0C
04
ENDCHAR
STARTCHAR parenright
ENCODING 41
SWIDTH 309 0
DWIDTH 8 0
BBX 7 25 1 -3
BITMAP
80
C0
40
60
70
38
38
3C
3C
3C
3C
3C
3E
3C
3C
3C
3C
3C
38
38
30
70
60
C0
80
ENDCHAR
STARTCHAR asterisk
ENCODING 42
SWIDTH 443 0
DWIDTH 12 0
BBX 10 11 1 10
BITMAP
0C00
1E00
CCC0
EDC0
FBC0
1E00
7F80
EDC0
EDC0
0C00
1C00
ENDCHAR
STARTCHAR plus
ENCODING 43
SWIDTH 578 0
DWIDTH 16 0
BBX 14 15 1 2
BITMAP
0300
0300
0300
0300
0300
0300
0300
FFFC
0300
0300
0300
0300
0300
0300
0300
ENDCHAR
STARTCHAR comma
ENCODING 44
SWIDTH 308 0
DWIDTH 8 0
BBX 6 10 1 -6
BITMAP
70
78
FC
7C
24
04
08
18
30
20
ENDCHAR
STARTCHAR hyphen
ENCODING 45
SWIDTH 395 0
DWIDTH 11 0
BBX 8 2 1 5
BITMAP
FF
FF
ENDCHAR
STARTCHAR period
ENCODING 46
SWIDTH 274 0
DWIDTH 7 0
BBX 5 5 1 -1
BITMAP
70
F8
F8
78
30
ENDCHAR
STARTCHAR slash
ENCODING 47
SWIDTH 190 0
DWIDTH 5 0
BBX 7 20 0 0
BITMAP
0E
0C
0C
0C
18
18
18
18
30
30
30
30
60
60
60
60
C0
C0
C0
C0
ENDCHAR
STARTCHAR zero
ENCODING 48
SWIDTH 727 0
DWIDTH 20 0
BBX 17 20 1 0
BITMAP
03F000
0E1800
1C0E00
3C0E00
780F00
780F80
780F80
F80F80
F80780
F80780
F80780
F80780
F80F80
780F80
780F80
780F00
3C0E00
1C0E00
0E1C00
03F000
ENDCHAR
STARTCHAR one
ENCODING 49
SWIDTH 480 0
DWIDTH 13 0
BBX 13 19 0 0
BITMAP
FF80
0F80
0F80
0F80
0F80
0F80
0F80
0F80
0F80
0F80
0F80
0F80
0F80
0F80
0F80
0F80
0F80
0F80
FFF8
ENDCHAR
STARTCHAR two
ENCODING 50
SWIDTH 625 0
DWIDTH 17 0
BBX 14 20 1 0
BITMAP
0FE0
31F8
607C
407C
783C
7C3C
7C3C
383C
0078
0070
00E0
01C0
0300
0600
1C04
3004
7FFC
FFFC
FFFC
FFFC
ENDCHAR
STARTCHAR three
ENCODING 51
SWIDTH 602 0
DWIDTH 16 0
BBX 14 20 1 0
BITMAP
1FC0
30F0
70F8
7878
7878
30F8
00F8
00F0
03C0
1F80
01F0
00F8
007C
007C
F07C
F07C
F07C
E0F8
60F0
1F80
ENDCHAR
STARTCHAR four
ENCODING 52
SWIDTH 670 0
DWIDTH 18 0
BBX 17 19 0 0
BITMAP
007800
007800
00F800
017800
017800
027800
047800
0C7800
087800
107800
207800
607880
407880
FFFF80
007880
007880
007800
007800
03FE00
ENDCHAR
STARTCHAR five
ENCODING 53
SWIDTH 620 0
DWIDTH 17 0
BBX 15 21 1 0
BITMAP
0004
3FFC
3FF8
3FF8
3FF8
2000
2000
4000
5FC0
61F0
00FC
007C
003E
003E
203E
F03E
F03C
F07C
E078
60F0
1FC0
ENDCHAR
STARTCHAR six
ENCODING 54
SWIDTH 630 0
DWIDTH 17 0
BBX 15 21 1 0
BITMAP
0038
01E0
0380
0700
0E00
1C00
3C00
7C00
7BF0
7C38
F83C
F83E
F83E
F81E
F81E
781E
783E
783C
383C
1C70
07E0
ENDCHAR
STARTCHAR seven
ENCODING 55
SWIDTH 590 0
DWIDTH 16 0
BBX 14 19 1 0
BITMAP
3FFC
7FFC
7FFC
7FF8
4018
8030
8020
0060
0040
00C0
0180
0180
0380
0380
0780
0780
0FC0
07C0
0780
ENDCHAR
STARTCHAR eight
ENCODING 56
SWIDTH 637 0
DWIDTH 17 0
BBX 15 20 1 0
BITMAP
0FE0
3C78
783C
783C
783C
783C
783C
3C38
1C70
0380
1C70
783C
783E
F83E
F81E
F81E
F83E
783C
3C38
0FE0
ENDCHAR
STARTCHAR nine
ENCODING 57
SWIDTH 630 0
DWIDTH 17 0
BBX 15 20 1 0
BITMAP
07C0
1C70
3838
783C
F83C
F83C
F83E
F83E
F83E
F83E
783E
3C7C
0FBC
0078
0078
00F0
00E0
03C0
0F00
3800
ENDCHAR
STARTCHAR colon
ENCODING 58
SWIDTH 274 0
DWIDTH 7 0
BBX 5 13 1 -1
BITMAP
70
F8
F8
78
30
00
00
00
70
F8
F8
78
30
ENDCHAR
STARTCHAR semicolon
ENCODING 59
SWIDTH 308 0
DWIDTH 8 0
BBX 6 18 1 -6
BITMAP
70
F8
F8
78
30
00
00
00
70
78
FC
7C
24
04
08
18
30
20
ENDCHAR
STARTCHAR less
ENCODING 60
SWIDTH 588 0
DWIDTH 16 0
BBX 12 14 2 2
BITMAP
0030
00F0
03C0
0F00
3C00
F000
C000
E000
7800
1E00
0780
01E0
0070
0010
ENDCHAR
STARTCHAR equal
ENCODING 61
SWIDTH 598 0
DWIDTH 16 0
BBX 14 7 1 6
BITMAP
FFFC
0000
0000
0000
0000
0000
FFFC
ENDCHAR
STARTCHAR greater
ENCODING 62
SWIDTH 588 0
DWIDTH 16 0
BBX 12 14 2 2
BITMAP
8000
E000
3800
0E00
0380
00E0
0030
0070
01E0
0780
1E00
7800
E000
8000
ENDCHAR
STARTCHAR question
ENCODING 63
SWIDTH 470 0
DWIDTH 13 0
BBX 11 21 1 0
BITMAP
1E00
6180
60C0
F0C0
F0E0
61E0
03C0
07C0
0F80
1F00
1E00
1C00
1800
1000
0000
0000
1800
3C00
7C00
3C00
3800
ENDCHAR
STARTCHAR at
ENCODING 64
SWIDTH 835 0
DWIDTH 23 0
BBX 20 21 1 -4
BITMAP
00FC00
038380
0E00C0
180040
100020
20F7A0
21CF30
438F10
478F10
470F10
4F0E30
CF0E20
CF1E20
4F1E40
477F80
43CF00
600000
200100
100300
0C0E00
03F800
ENDCHAR
STARTCHAR A
ENCODING 65
SWIDTH 715 0
DWIDTH 19 0
BBX 20 21 0 0
BITMAP
002000
006000
007000
007000
00F000
00F800
01F800
017800
017C00
027C00
023C00
043E00
043E00
041E00
0FFF00
080F00
100F80
100F80
100780
2007C0
FC3FF0
ENDCHAR
STARTCHAR B
ENCODING 66
SWIDTH 751 0
DWIDTH 20 0
BBX 18 21 1 0
BITMAP
FFFC00
3E0F00
3E0F00
3E0780
3E0780
3E0780
3E0780
3E0780
3E0F00
3E1E00
3FF800
3E0F00
3E0780
3E07C0
3E07C0
3E07C0
3E07C0
3E07C0
3E0780
3E0F00
FFFC00
ENDCHAR
STARTCHAR C
ENCODING 67
SWIDTH 711 0
DWIDTH 19 0
BBX 17 21 1 0
BITMAP
01F880
070780
0E0380
1C0180
3C0180
3C0080
7C0080
7C0000
7C0000
F80000
F80000
F80000
F80000
7C0000
7C0000
7C0080
3C0080
1C0180
0E0380
070780
01F880
ENDCHAR
STARTCHAR D
ENCODING 68
SWIDTH 798 0
DWIDTH 22 0
BBX 20 21 1 0
BITMAP
FFF800
3C0E00
3C0700
3C0380
3C03C0
3C03E0
3C03E0
3C03E0
3C01F0
3C01F0
3C01F0
3C01F0
3C01F0
3C03E0
3C03E0
3C03C0
3C03C0
3C0380
3C0700
3C0E00
FFF800
ENDCHAR
STARTCHAR E
ENCODING 69
SWIDTH 696 0
DWIDTH 19 0
BBX 17 21 1 0
BITMAP
FFFF00
3C0700
3C0300
3C0100
3C0100
3C0000
3C0000
3C1000
3C1000
3C3000
3FF000
3C7000
3C1000
3C1000
3C1080
3C0080
3C0180
3C0180
3C0380
3C0780
FFFF80
ENDCHAR
STARTCHAR F
ENCODING 70
SWIDTH 702 0
DWIDTH 19 0
BBX 16 21 1 0
BITMAP
FFFF
3C07
3C03
3C01
3C01
3C01
3C00
3C10
3C10
3C30
3FF0
3C70
3C10
3C10
3C10
3C00
3C00
3C00
3C00
3C00
FFC0
ENDCHAR
STARTCHAR G
ENCODING 71
SWIDTH 790 0
DWIDTH 21 0
BBX 20 21 1 0
BITMAP
01F880
070780
0E0380
1E0180
3C0180
3C0080
7C0080
7C0000
7C0000
F80000
F80000
F80000
F80000
7C3FF0
7C07C0
7C07C0
3C07C0
3C0780
1E0700
070E00
01F800
ENDCHAR
STARTCHAR H
ENCODING 72
SWIDTH 826 0
DWIDTH 22 0
BBX 21 21 1 0
BITMAP
FF9FF8
3C03C0
3C03C0
3C03C0
3C03C0
3C03C0
3C03C0
3C03C0
3C03C0
3C03C0
3FFFC0
3C03C0
3C03C0
3C03C0
3C03C0
3C03C0
3C03C0
3C03C0
3C03C0
3C03C0
FF9FF8
ENDCHAR
STARTCHAR I
ENCODING 73
SWIDTH 386 0
DWIDTH 10 0
BBX 9 21 1 0
BITMAP
FF80
3C00
3C00
3C00
3C00
3C00
3C00
3C00
3C00
3C00
3C00
3C00
3C00
3C00
3C00
3C00
3C00
3C00
3C00
3C00
FF80
ENDCHAR
STARTCHAR J
ENCODING 74
SWIDTH 386 0
DWIDTH 10 0
BBX 13 24 -3 -3
BITMAP
0FF8
03C0
03C0
03C0
03C0
03C0
03C0
03C0
03C0
03C0
03C0
03C0
03C0
03C0
03C0
03C0
03C0
03C0
03C0
F3C0
F3C0
F380
F700
7E00
ENDCHAR
STARTCHAR K
ENCODING 75
SWIDTH 811 0
DWIDTH 22 0
BBX 21 21 1 0
BITMAP
FF8FF0
3C0100
3C0200
3C0400
3C0800
3C1000
3C2000
3C6000
3CE000
3DF000
3FF800
3CF800
3C7C00
3C7E00
3C3E00
3C1F00
3C1F80
3C0F80
3C07C0
3C07E0
FF9FF8
ENDCHAR
STARTCHAR L
ENCODING 76
SWIDTH 681 0
DWIDTH 18 0
BBX 17 21 1 0
BITMAP
FFC000
3C0000
3C0000
3C0000
3C0000
3C0000
3C0000
3C0000
3C0000
3C0000
3C0000
3C0000
3C0000
3C0000
3C0080
3C0080
3C0180
3C0180
3C0380
3C0780
FFFF80
ENDCHAR
STARTCHAR M
ENCODING 77
SWIDTH 927 0
DWIDTH 25 0
BBX 24 21 1 0
BITMAP
FF00FF
3F81F8
3F8178
3F8178
378378
37C278
37C278
37C278
33E478
33E478
33E478
31FC78
31F878
31F878
30F878
30F078
30F078
307078
306078
306078
FE63FF
ENDCHAR
STARTCHAR N
ENCODING 78
SWIDTH 791 0
DWIDTH 21 0
BBX 20 21 1 0
BITMAP
FF07F0
3F0080
3F8080
3FC080
37E080
37E080
33F080
31F880
31F880
30FC80
307E80
307E80
303F80
301F80
301F80
300F80
300780
300780
300380
300180
FE0180
ENDCHAR
STARTCHAR O
ENCODING 79
SWIDTH 823 0
DWIDTH 22 0
BBX 20 21 1 0
BITMAP
01F800
070600
0C0380
1C03C0
3C03C0
7801E0
7801E0
F801F0
F801F0
F801F0
F801F0
F801F0
F801F0
7801F0
7801E0
7801E0
3C03C0
1C0380
0C0380
060600
01F800
ENDCHAR
STARTCHAR P
ENCODING 80
SWIDTH 700 0
DWIDTH 19 0
BBX 18 21 1 0
BITMAP
FFFC00
3C0F00
3C0F80
3C0F80
3C07C0
3C07C0
3C07C0
3C0780
3C0F80
3C0F00
3C1E00
3FE000
3C0000
3C0000
3C0000
3C0000
3C0000
3C0000
3C0000
3C0000
FFC000
ENDCHAR
STARTCHAR Q
ENCODING 81
SWIDTH 823 0
DWIDTH 22 0
BBX 20 27 1 -6
BITMAP
01F800
070600
0C0380
1C03C0
3C03C0
7801E0
7801E0
F801F0
F801F0
F801F0
F801F0
F801F0
F801F0
7801F0
7801E0
7801E0
3C03C0
1C0380
0C0300
070600
01F800
01F800
00F800
00F800
007800
003E00
000FC0
ENDCHAR
STARTCHAR R
ENCODING 82
SWIDTH 740 0
DWIDTH 20 0
BBX 19 21 1 0
BITMAP
FFFC00
3C1F00
3C0F80
3C0F80
3C0F80
3C0F80
3C0F80
3C0F00
3C1E00
3FF800
3C3800
3C1C00
3C1E00
3C1F00
3C1F00
3C1F00
3C1F00
3C1F80
3C0F80
3C0F80
FFC3E0
ENDCHAR
STARTCHAR S
ENCODING 83
SWIDTH 569 0
DWIDTH 15 0
BBX 14 21 1 0
BITMAP
0F98
3078
6038
4018
C018
E008
F800
FF00
7FE0
7FF0
3FF8
1FF8
03FC
003C
001C
801C
8008
C018
E018
F030
8FC0
ENDCHAR
STARTCHAR T
ENCODING 84
SWIDTH 724 0
DWIDTH 20 0
BBX 19 21 0 0
BITMAP
FFFFE0
F0F0E0
E0F060
C0F060
C0F020
C0F020
80F020
00F000
00F000
00F000
00F000
00F000
00F000
00F000
00F000
00F000
00F000
00F000
00F000
00F000
0FFE00
ENDCHAR
STARTCHAR U
ENCODING 85
SWIDTH 774 0
DWIDTH 21 0
BBX 21 21 0 0
BITMAP
FFC3F8
1E0040
1E0040
1E0040
1E0040
1E0040
1E0040
1E0040
1E0040
1E0040
1E0040
1E0040
1E0040
1E0040
1E0040
1E0040
1E0040
1F0080
0F0080
078300
01FE00
ENDCHAR
STARTCHAR V
ENCODING 86
SWIDTH 667 0
DWIDTH 18 0
BBX 20 21 -1 0
BITMAP
FF83F0
1E0080
1F0080
1F0080
0F0100
0F8100
0F8100
07C200
07C200
03C200
03E400
03E400
01E800
01F800
01F800
00F000
00F000
00F000
006000
006000
006000
ENDCHAR
STARTCHAR W
ENCODING 87
SWIDTH 1019 0
DWIDTH 28 0
BBX 29 21 -1 0
BITMAP
FFFFFDF8
1F1F1040
1F0F2040
0F0FA040
0F87A080
0F87C080
0787C080
07C3C100
07C3E100
03E3E100
03E1E200
01E3F200
01F3F400
01F4F400
00F4FC00
00FC7800
00F87800
00787800
00703000
00303000
00303000
ENDCHAR
STARTCHAR X
ENCODING 88
SWIDTH 719 0
DWIDTH 19 0
BBX 20 21 0 0
BITMAP
FF8FC0
3E0200
1F0200
1F0400
0F8400
0F8800
07D000
07D000
03E000
01F000
01F000
00F800
01F800
017C00
027E00
043E00
041F00
081F00
100F80
100F80
FC3FF0
ENDCHAR
STARTCHAR Y
ENCODING 89
SWIDTH 766 0
DWIDTH 21 0
BBX 20 21 0 0
BITMAP
FFC3F0
3F0040
1F0080
0F8080
0FC100
07C100
07E200
03E200
01F400
01F400
00F800
00F800
007800
007800
007800
007800
007800
007800
007800
007800
07FF00
ENDCHAR
STARTCHAR Z
ENCODING 90
SWIDTH 621 0
DWIDTH 17 0
BBX 17 21 0 0
BITMAP
3FFF80
381F00
301F00
203E00
207E00
207C00
00F800
00F800
01F000
03F000
03E000
07C000
07C000
0F8000
1F8100
1F0100
3E0100
3E0300
7C0300
7C0F00
FFFF00
ENDCHAR
STARTCHAR bracketleft
ENCODING 91
SWIDTH 319 0
DWIDTH 9 0
BBX 6 24 2 -3
BITMAP
FC
F0
F0
F0
F0
F0
F0
F0
F0
F0
F0
F0
F0
F0
F0
F0
F0
F0
F0
F0
F0
F0
F0
FC
ENDCHAR
STARTCHAR backslash
ENCODING 92
SWIDTH 149 0
DWIDTH 4 0
BBX 7 20 -1 0
BITMAP
C0
C0
C0
C0
60
60
60
60
30
30
30
38
18
18
18
1C
0C
0C
0C
0E
ENDCHAR
STARTCHAR bracketright
ENCODING 93
SWIDTH 319 0
DWIDTH 9 0
BBX 6 24 0 -3
BITMAP
FC
1C
1C
1C
1C
1C
1C
1C
1C
1C
1C
1C
1C
1C
1C
1C
1C
1C
1C
1C
1C
1C
1C
FC
ENDCHAR
STARTCHAR asciicircum
ENCODING 94
SWIDTH 501 0
DWIDTH 14 0
BBX 13 13 0 5
BITMAP
0300
0700
0700
0780
0D80
0CC0
18C0
1860
3060
3030
6030
6018
C018
ENDCHAR
STARTCHAR underscore
ENCODING 95
SWIDTH 584 0
DWIDTH 16 0
BBX 16 1 0 -3
BITMAP
FFFF
ENDCHAR
STARTCHAR grave
ENCODING 96
SWIDTH 268 0
DWIDTH 7 0
BBX 7 6 0 15
BITMAP
60
F0
78
38
0C
06
ENDCHAR
STARTCHAR a
ENCODING 97
SWIDTH 541 0
DWIDTH 15 0
BBX 13 12 1 0
BITMAP
1F80
31E0
70E0
78E0
20E0
0FE0
38E0
70E0
F0E0
F1E0
7EF8
3C70
ENDCHAR
STARTCHAR b
ENCODING 98
SWIDTH 630 0
DWIDTH 17 0
BBX 15 21 1 0
BITMAP
F800
3800
3800
3800
3800
3800
3800
3800
3800
39E0
3A38
3C3C
3C3C
381E
381E
381E
3C1E
3C3C
3C3C
3A38
F9E0
ENDCHAR
STARTCHAR c
ENCODING 99
SWIDTH 520 0
DWIDTH 14 0
BBX 12 12 1 0
BITMAP
0F80
38E0
78F0
78F0
F0E0
F000
F000
F000
7810
3820
1860
0F80
ENDCHAR
STARTCHAR d
ENCODING 100
SWIDTH 631 0
DWIDTH 17 0
BBX 15 21 1 0
BITMAP
01F8
0038
0038
0038
0038
0038
0038
0038
0038
0F38
38B8
7878
7878
F078
F038
F038
F078
7878
7878
38B8
0F3E
ENDCHAR
STARTCHAR e
ENCODING 101
SWIDTH 537 0
DWIDTH 15 0
BBX 13 12 1 0
BITMAP
0F80
18E0
3870
7870
F070
FFF0
F000
F000
7008
7810
3820
0FC0
ENDCHAR
STARTCHAR f
ENCODING 102
SWIDTH 346 0
DWIDTH 9 0
BBX 11 21 1 0
BITMAP
07C0
0CE0
1CE0
1CE0
3C00
3C00
3C00
3C00
3C00
FF00
3C00
3C00
3C00
3C00
3C00
3C00
3C00
3C00
3C00
3C00
FF00
ENDCHAR
STARTCHAR g
ENCODING 103
SWIDTH 565 0
DWIDTH 15 0
BBX 15 21 1 -9
BITMAP
0F8C
38FE
78F4
78F0
78F0
78F0
78E0
38E0
3F80
4000
C000
FFF0
FFF8
3FF8
3018
6008
E008
E018
E010
7060
1F80
ENDCHAR
STARTCHAR h
ENCODING 104
SWIDTH 619 0
DWIDTH 17 0
BBX 15 21 1 0
BITMAP
F800
3800
3800
3800
3800
3800
3800
3800
3800
39F0
3B78
3A3C
3C3C
3C3C
383C
383C
383C
383C
383C
383C
FEFE
ENDCHAR
STARTCHAR i
ENCODING 105
SWIDTH 319 0
DWIDTH 9 0
BBX 7 19 1 0
BITMAP
38
7C
78
38
00
00
00
F8
38
38
38
38
38
38
38
38
38
38
FE
ENDCHAR
STARTCHAR j
ENCODING 106
SWIDTH 318 0
DWIDTH 9 0
BBX 9 28 -2 -9
BITMAP
0700
0F80
0F00
0700
0000
0000
0000
3F00
0700
0700
0700
0700
0700
0700
0700
0700
0700
0700
0700
0700
0700
0700
0700
0700
E700
E600
EC00
7800
ENDCHAR
STARTCHAR k
ENCODING 107
SWIDTH 618 0
DWIDTH 17 0
BBX 16 21 1 0
BITMAP
F800
3800
3800
3800
3800
3800
3800
3800
3800
38FC
3820
3840
3880
3B80
3BC0
39E0
39F0
38F0
3878
387C
FEFF
ENDCHAR
STARTCHAR l
ENCODING 108
SWIDTH 329 0
DWIDTH 9 0
BBX 7 21 1 0
BITMAP
F8
38
38
38
38
38
38
38
38
38
38
38
38
38
38
38
38
38
38
38
FE
ENDCHAR
STARTCHAR m
ENCODING 109
SWIDTH 910 0
DWIDTH 25 0
BBX 23 12 1 0
BITMAP
F9F1F0
3B7B78
3C3C38
3C3C38
3C3C38
383838
383838
383838
383838
383838
383838
FEFEFE
ENDCHAR
STARTCHAR n
ENCODING 110
SWIDTH 614 0
DWIDTH 17 0
BBX 15 12 1 0
BITMAP
F9F0
3B78
3A3C
3C3C
3C3C
383C
383C
383C
383C
383C
383C
FEFE
ENDCHAR
STARTCHAR o
ENCODING 111
SWIDTH 589 0
DWIDTH 16 0
BBX 14 12 1 0
BITMAP
0FC0
3860
7870
7878
F078
F07C
F07C
F078
7878
7870
3860
0FC0
ENDCHAR
STARTCHAR p
ENCODING 112
SWIDTH 635 0
DWIDTH 17 0
BBX 15 21 1 -9
BITMAP
F9F0
3A38
3C3C
3C3C
381E
381E
381E
3C1E
3C3C
3C3C
3A38
39E0
3800
3800
3800
3800
3800
3800
3800
3800
FF00
ENDCHAR
STARTCHAR q
ENCODING 113
SWIDTH 621 0
DWIDTH 17 0
BBX 15 21 1 -9
BITMAP
0F3E
38B8
7878
7878
F078
F038
F038
F078
7878
7878
38B8
0F38
0038
0038
0038
0038
0038
0038
0038
0038
01FE
ENDCHAR
STARTCHAR r
ENCODING 114
SWIDTH 506 0
DWIDTH 14 0
BBX 12 12 1 0
BITMAP
F9E0
3BF0
3CF0
3CF0
3C60
3800
3800
3800
3800
3800
3800
FE00
ENDCHAR
STARTCHAR s
ENCODING 115
SWIDTH 429 0
DWIDTH 12 0
BBX 10 12 1 0
BITMAP
3E80
6180
4080
E080
FC00
7F00
7F80
1FC0
81C0
C080
E180
9F00
ENDCHAR
STARTCHAR t
ENCODING 116
SWIDTH 354 0
DWIDTH 10 0
BBX 9 18 0 -1
BITMAP
0400
0C00
0C00
1C00
3C00
FF80
3C00
3C00
3C00
3C00
3C00
3C00
3C00
3C00
3C00
3C80
1F80
0400
ENDCHAR
STARTCHAR u
ENCODING 117
SWIDTH 613 0
DWIDTH 17 0
BBX 16 12 0 0
BITMAP
FCFC
3C3C
3C3C
3C3C
3C3C
3C3C
3C3C
3C3C
3C3C
3C3C
1C7C
1FBF
ENDCHAR
STARTCHAR v
ENCODING 118
SWIDTH 491 0
DWIDTH 13 0
BBX 14 13 0 -1
BITMAP
FE7C
7C10
3C20
3C20
1E40
1E40
0F40
0F80
0780
0700
0700
0300
0200
ENDCHAR
STARTCHAR w
ENCODING 119
SWIDTH 690 0
DWIDTH 19 0
BBX 19 13 0 -1
BITMAP
FE23E0
783080
3C7080
3C7900
3EF900
1EF900
1EBE00
0F3E00
0F1E00
0E1C00
060C00
060800
000800
ENDCHAR
STARTCHAR x
ENCODING 120
SWIDTH 578 0
DWIDTH 16 0
BBX 15 12 0 0
BITMAP
FF3E
3E08
1F10
0F20
0FC0
07C0
03E0
03E0
05F0
08F8
107C
FCFE
ENDCHAR
STARTCHAR y
ENCODING 121
SWIDTH 501 0
DWIDTH 14 0
BBX 14 21 0 -9
BITMAP
FE7C
7C10
3C20
3E20
1E20
1E40
0F40
0F80
0780
0780
0300
0300
0200
0200
0400
0400
0400
4800
F800
F000
E000
ENDCHAR
STARTCHAR z
ENCODING 122
SWIDTH 476 0
DWIDTH 13 0
BBX 11 12 1 0
BITMAP
7FE0
63E0
43C0
4780
0F80
0F00
1E00
3E20
7C20
7860
F060
FFE0
ENDCHAR
STARTCHAR braceleft
ENCODING 123
SWIDTH 300 0
DWIDTH 8 0
BBX 8 24 0 -3
BITMAP
0F
1C
3C
3C
3C
3C
3C
3C
3C
3C
38
E0
38
38
3C
3C
3C
3C
3C
3C
3C
3C
1C
0F
ENDCHAR
STARTCHAR bar
ENCODING 124
SWIDTH 367 0
DWIDTH 10 0
BBX 2 25 4 -4
BITMAP
C0
C0
C0
C0
C0
C0
C0
C0
C0
C0
C0
C0
C0
C0
C0
C0
C0
C0
C0
C0
C0
C0
C0
C0
C0
ENDCHAR
STARTCHAR braceright
ENCODING 125
SWIDTH 300 0
DWIDTH 8 0
BBX 8 24 0 -3
BITMAP
F0
3C
3C
3C
3C
3C
3C
3C
3C
1C
1C
07
1E
1C
3C
3C
3C
3C
3C
3C
3C
3C
3C
F0
ENDCHAR
STARTCHAR asciitilde
ENCODING 126
SWIDTH 475 0
DWIDTH 13 0
BBX 13 4 0 6
BITMAP
3C10
7F38
C7F0
41E0
ENDCHAR
STARTCHAR uni00A0
ENCODING 160
SWIDTH 160 0
DWIDTH 4 0
BBX 1 1 0 0
BITMAP
00
ENDCHAR
STARTCHAR exclamdown
ENCODING 161
SWIDTH 307 0
DWIDTH 8 0
BBX 5 21 2 -9
BITMAP
70
F0
F0
F0
60
00
20
20
20
20
60
60
60
60
70
F0
F0
F0
F8
F0
70
ENDCHAR
STARTCHAR cent
ENCODING 162
SWIDTH 520 0
DWIDTH 14 0
BBX 12 19 1 1
BITMAP
0200
0200
0200
0200
0F80
1A60
7AF0
7AF0
F2E0
F200
F200
F200
7A10
3A20
1A60
0F80
0200
0200
0200
ENDCHAR
STARTCHAR sterling
ENCODING 163
SWIDTH 559 0
DWIDTH 15 0
BBX 15 21 0 -1
BITMAP
01F0
0708
0F04
0E0C
1E1C
1E1C
1E00
1F00
1F00
7FF0
0F00
0F00
0F00
0700
0702
0706
7E0C
4FFC
CFFC
4CF8
7800
ENDCHAR
STARTCHAR currency
ENCODING 164
SWIDTH 669 0
DWIDTH 18 0
BBX 12 12 3 4
BITMAP
DFB0
FFF0
70E0
E070
C030
C030
C030
C030
E070
70E0
FFF0
DFB0
ENDCHAR
STARTCHAR yen
ENCODING 165
SWIDTH 766 0
DWIDTH 21 0
BBX 20 21 0 0
BITMAP
FFC3F0
3F0040
1F0080
0F8080
0F8100
07C100
07E200
03E200
03F400
01F400
00F800
0FFF80
007800
007800
0FFF80
007800
007800
007800
007800
007800
07FF00
ENDCHAR
STARTCHAR brokenbar
ENCODING 166
SWIDTH 367 0
DWIDTH 10 0
BBX 2 25 4 -4
BITMAP
C0
C0
C0
C0
C0
C0
C0
C0
C0
C0
C0
00
00
00
C0
C0
C0
C0
C0
C0
C0
C0
C0
C0
C0
ENDCHAR
STARTCHAR section
ENCODING 167
SWIDTH 499 0
DWIDTH 13 0
BBX 12 25 1 -4
BITMAP
1F00
30C0
60C0
71C0
70C0
7800
3C00
3F00
7F80
CFC0
C7E0
E3E0
F0F0
F8F0
7C70
7F60
3FC0
1F80
07C0
03C0
71C0
70C0
60C0
2180
1F00
ENDCHAR
STARTCHAR dieresis
ENCODING 168
SWIDTH 342 0
DWIDTH 9 0
BBX 9 4 0 16
BITMAP
6300
F780
F380
0100
ENDCHAR
STARTCHAR copyright
ENCODING 169
SWIDTH 833 0
DWIDTH 22 0
BBX 20 21 1 0
BITMAP
01F800
078E00
0C0380
1800C0
30FC60
638420
470430
470010
CF0010
8F0010
8F0010
8F0010
CF0010
C70210
430630
618E20
20FA60
1000C0
0C0180
070F00
01F800
ENDCHAR
STARTCHAR ordfeminine
ENCODING 170
SWIDTH 336 0
DWIDTH 9 0
BBX 9 8 0 13
BITMAP
3E00
6600
6700
1F00
6700
E700
E700
7F80
ENDCHAR
STARTCHAR guillemotleft
ENCODING 171
SWIDTH 508 0
DWIDTH 14 0
BBX 11 10 1 1
BITMAP
0420
0C40
18C0
7B80
F780
F780
7380
39C0
18C0
0420
ENDCHAR
STARTCHAR logicalnot
ENCODING 172
SWIDTH 538 0
DWIDTH 15 0
BBX 13 7 1 2
BITMAP
FFF8
0038
0038
0038
0038
0038
0038
ENDCHAR
STARTCHAR uni00AD
ENCODING 173
SWIDTH 395 0
DWIDTH 11 0
BBX 8 2 1 5
BITMAP
FF
FF
ENDCHAR
STARTCHAR registered
ENCODING 174
SWIDTH 537 0
DWIDTH 15 0
BBX 12 12 1 9
BITMAP
0F80
3040
5FA0
4D90
8D90
8F10
8D90
8D90
4D90
5E60
3040
0F80
ENDCHAR
STARTCHAR macron
ENCODING 175
SWIDTH 360 0
DWIDTH 10 0
BBX 9 2 0 17
BITMAP
FF80
FF80
ENDCHAR
STARTCHAR degree
ENCODING 176
SWIDTH 363 0
DWIDTH 10 0
BBX 8 8 1 13
BITMAP
3C
7E
C3
C3
C3
C3
E6
7E
ENDCHAR
STARTCHAR plusminus
ENCODING 177
SWIDTH 578 0
DWIDTH 16 0
BBX 14 18 1 1
BITMAP
0300
0300
0300
0300
0300
0300
0300
FFFC
0300
0300
0300
0300
0300
0300
0300
0000
0000
FFFC
ENDCHAR
STARTCHAR uni00B2
ENCODING 178
SWIDTH 360 0
DWIDTH 10 0
BBX 9 10 0 13
BITMAP
1E00
6780
7380
7380
0300
0600
0800
3080
7F80
FF80
ENDCHAR
STARTCHAR uni00B3
ENCODING 179
SWIDTH 346 0
DWIDTH 9 0
BBX 9 11 0 12
BITMAP
3E00
6700
7700
0700
3800
0700
0780
6380
E380
C700
7E00
ENDCHAR
STARTCHAR acute
ENCODING 180
SWIDTH 268 0
DWIDTH 7 0
BBX 7 6 0 15
BITMAP
0E
1E
1C
38
70
C0
ENDCHAR
STARTCHAR uni00B5
ENCODING 181
SWIDTH 613 0
DWIDTH 17 0
BBX 16 19 0 -7
BITMAP
FCFC
3C3C
3C3C
3C3C
3C3C
3C3C
3C3C
3C3C
3C3C
3C3C
3C7C
3FBF
3000
3000
3000
3000
3800
7800
3800
ENDCHAR
STARTCHAR paragraph
ENCODING 182
SWIDTH 633 0
DWIDTH 17 0
BBX 15 25 1 -4
BITMAP
1FFE
3FFE
7F18
FF18
FF18
FF18
FF18
FF18
FF18
7F18
3F18
1F18
0318
0318
0318
0318
0318
0318
0318
0318
0318
0318
0318
0318
0318
ENDCHAR
STARTCHAR periodcentered
ENCODING 183
SWIDTH 274 0
DWIDTH 7 0
BBX 5 5 1 4
BITMAP
70
F8
F8
78
30
ENDCHAR
STARTCHAR cedilla
ENCODING 184
SWIDTH 250 0
DWIDTH 7 0
BBX 6 6 0 -6
BITMAP
30
20
3C
1C
0C
F8
ENDCHAR
STARTCHAR uni00B9
ENCODING 185
SWIDTH 279 0
DWIDTH 8 0
BBX 7 11 0 12
BITMAP
F8
38
38
38
38
38
38
38
38
38
FE
ENDCHAR
STARTCHAR ordmasculine
ENCODING 186
SWIDTH 338 0
DWIDTH 9 0
BBX 9 9 0 12
BITMAP
1C00
6300
6300
E380
E380
E380
6300
3300
1C00
ENDCHAR
STARTCHAR guillemotright
ENCODING 187
SWIDTH 508 0
DWIDTH 14 0
BBX 11 10 2 1
BITMAP
8400
C600
6300
7380
39C0
3DE0
7BC0
7300
C600
8400
ENDCHAR
STARTCHAR onequarter
ENCODING 188
SWIDTH 913 0
DWIDTH 25 0
BBX 21 21 2 0
BITMAP
F80180
380300
380300
380600
380600
380C00
380C00
381800
381800
383000
3870C0
4461C0
00E3C0
00C5C0
0185C0
0189C0
0311C8
031FF8
0601C8
0601C0
0C01E0
ENDCHAR
STARTCHAR onehalf
ENCODING 189
SWIDTH 913 0
DWIDTH 25 0
BBX 21 21 2 0
BITMAP
F80180
380300
380300
380600
380600
380C00
380C00
381800
381800
383000
3873E0
446470
00E638
00C738
018070
018060
0300C0
030108
060608
060FF8
0C0FF8
ENDCHAR
STARTCHAR threequarters
ENCODING 190
SWIDTH 913 0
DWIDTH 25 0
BBX 21 21 2 0
BITMAP
3E0180
670380
670300
070700
0E0600
3C0C00
070C00
071800
E71800
E73000
C630C0
3861C0
0063C0
00C5C0
00C5C0
0189C0
0391C8
031FF8
0701C8
0601C0
0C01E0
ENDCHAR
STARTCHAR questiondown
ENCODING 191
SWIDTH 470 0
DWIDTH 13 0
BBX 10 21 1 -9
BITMAP
0700
0780
0780
0780
0300
0000
0000
0100
0300
0700
0E00
3E00
7E00
7C00
F800
F1C0
E1C0
E1C0
60C0
3080
1F00
ENDCHAR
STARTCHAR Agrave
ENCODING 192
SWIDTH 715 0
DWIDTH 19 0
BBX 20 27 0 0
BITMAP
018000
03E000
01F000
001C00
000000
000000
002000
006000
007000
007000
00F000
00F800
01F800
017800
017C00
027C00
023C00
043E00
043E00
041E00
0FFF00
080F00
100F80
100F80
100780
2007C0
FC3FF0
ENDCHAR
STARTCHAR Aacute
ENCODING 193
SWIDTH 715 0
DWIDTH 19 0
BBX 20 26 0 0
BITMAP
001C00
007C00
00F800
010000
000000
002000
006000
007000
007000
00F000
00F800
01F800
017800
017C00
027C00
023C00
043E00
043E00
041E00
0FFF00
080F00
100F80
100F80
100780
2007C0
FC3FF0
ENDCHAR
STARTCHAR Acircumflex
ENCODING 194
SWIDTH 715 0
DWIDTH 19 0
BBX 20 26 0 0
BITMAP
007000
00F800
038C00
000000
000000
002000
006000
007000
007000
00F000
00F800
01F800
017800
017C00
027C00
023C00
043E00
043E00
041E00
0FFF00
080F00
100F80
100F80
100780
2007C0
FC3FF0
ENDCHAR
STARTCHAR Atilde
ENCODING 195
SWIDTH 715 0
DWIDTH 19 0
BBX 20 28 0 0
BITMAP
008100
03FE00
03FE00
043C00
000000
000000
000000
002000
006000
007000
007000
00F000
00F800
01F800
017800
017C00
027C00
023C00
043E00
043E00
041E00
0FFF00
080F00
100F80
100F80
100780
2007C0
FC3FF0
ENDCHAR
STARTCHAR Adieresis
ENCODING 196
SWIDTH 715 0
DWIDTH 19 0
BBX 20 26 0 0
BITMAP
010000
039E00
03DE00
018C00
000000
002000
006000
007000
007000
00F000
00F800
01F800
017800
017C00
027C00
023C00
043E00
043E00
041E00
0FFF00
080F00
100F80
100F80
100780
2007C0
FC3FF0
ENDCHAR
STARTCHAR Aring
ENCODING 197
SWIDTH 715 0
DWIDTH 19 0
BBX 20 27 0 0
BITMAP
00F000
009800
009800
00F000
000000
000000
002000
006000
007000
007000
00F000
00F800
01F800
017800
017C00
027C00
023C00
043E00
043E00
041E00
0FFF00
080F00
100F80
100F80
100780
2007C0
FC3FF0
ENDCHAR
STARTCHAR AE
ENCODING 198
SWIDTH 1131 0
DWIDTH 31 0
BBX 30 21 0 0
BITMAP
003FFFF8
000DE038
0009E018
0019E008
0011E008
0031E000
0021E000
0061E080
0041E180
00C1E380
0081FF80
0181E380
0101E180
0301E080
03FFE08C
0601E00C
0401E00C
0C01E00C
0801E01C
1001E03C
FE0FFFFC
ENDCHAR
STARTCHAR Ccedilla
ENCODING 199
SWIDTH 711 0
DWIDTH 19 0
BBX 17 27 1 -6
BITMAP
01F880
070780
0E0380
1C0180
3C0180
3C0080
7C0080
7C0000
7C0000
F80000
F80000
F80000
F80000
7C0000
7C0000
7C0080
3C0080
1C0180
0E0380
070780
01F880
004000
007000
003800
001800
003800
01F000
ENDCHAR
STARTCHAR Egrave
ENCODING 200
SWIDTH 696 0
DWIDTH 19 0
BBX 17 27 1 0
BITMAP
070000
0F8000
03E000
001000
000000
000000
FFFF00
3C0700
3C0300
3C0100
3C0100
3C0000
3C0000
3C1000
3C1000
3C3000
3FF000
3C7000
3C1000
3C1000
3C1080
3C0080
3C0180
3C0180
3C0380
3C0780
FFFF80
ENDCHAR
STARTCHAR Eacute
ENCODING 201
SWIDTH 696 0
DWIDTH 19 0
BBX 17 26 1 0
BITMAP
007000
01F000
078000
000000
000000
FFFF00
3C0700
3C0300
3C0100
3C0100
3C0000
3C0000
3C1000
3C1000
3C3000
3FF000
3C7000
3C1000
3C1000
3C1080
3C0080
3C0180
3C0180
3C0380
3C0780
FFFF80
ENDCHAR
STARTCHAR Ecircumflex
ENCODING 202
SWIDTH 696 0
DWIDTH 19 0
BBX 17 26 1 0
BITMAP
01C000
03E000
0E3000
000000
000000
FFFF00
3C0700
3C0300
3C0100
3C0100
3C0000
3C0000
3C1000
3C1000
3C3000
3FF000
3C7000
3C1000
3C1000
3C1080
3C0080
3C0180
3C0180
3C0380
3C0780
FFFF80
ENDCHAR
STARTCHAR Edieresis
ENCODING 203
SWIDTH 696 0
DWIDTH 19 0
BBX 17 25 1 0
BITMAP
0E7800
0F7800
063000
000000
FFFF00
3C0700
3C0300
3C0100
3C0100
3C0000
3C0000
3C1000
3C1000
3C3000
3FF000
3C7000
3C1000
3C1000
3C1080
3C0080
3C0180
3C0180
3C0380
3C0780
FFFF80
ENDCHAR
STARTCHAR Igrave
ENCODING 204
SWIDTH 386 0
DWIDTH 10 0
BBX 9 27 1 0
BITMAP
F000
F800
3E00
0300
0000
0000
FF80
3C00
3C00
3C00
3C00
3C00
3C00
3C00
3C00
3C00
3C00
3C00
3C00
3C00
3C00
3C00
3C00
3C00
3C00
3C00
FF80
ENDCHAR
STARTCHAR Iacute
ENCODING 205
SWIDTH 386 0
DWIDTH 10 0
BBX 9 26 1 0
BITMAP
0F00
1F00
7800
0000
0000
FF80
3C00
3C00
3C00
3C00
3C00
3C00
3C00
3C00
3C00
3C00
3C00
3C00
3C00
3C00
3C00
3C00
3C00
3C00
3C00
FF80
ENDCHAR
STARTCHAR Icircumflex
ENCODING 206
SWIDTH 386 0
DWIDTH 10 0
BBX 9 26 1 0
BITMAP
1C00
7E00
C300
0000
0000
FF80
3C00
3C00
3C00
3C00
3C00
3C00
3C00
3C00
3C00
3C00
3C00
3C00
3C00
3C00
3C00
3C00
3C00
3C00
3C00
FF80
ENDCHAR
STARTCHAR Idieresis
ENCODING 207
SWIDTH 386 0
DWIDTH 10 0
BBX 9 26 1 0
BITMAP
4200
E700
E780
E300
0000
FF80
3C00
3C00
3C00
3C00
3C00
3C00
3C00
3C00
3C00
3C00
3C00
3C00
3C00
3C00
3C00
3C00
3C00
3C00
3C00
FF80
ENDCHAR
STARTCHAR Eth
ENCODING 208
SWIDTH 798 0
DWIDTH 22 0
BBX 21 21 0 0
BITMAP
7FFC00
1E0700
1E0380
1E01C0
1E01E0
1E01F0
1E01F0
1E01F0
1E00F8
FFC0F8
1E00F8
1E00F8
1E00F0
1E01F0
1E01F0
1E01E0
1E01E0
1E01C0
1E0380
1E0700
7FFC00
ENDCHAR
STARTCHAR Ntilde
ENCODING 209
SWIDTH 791 0
DWIDTH 21 0
BBX 20 28 1 0
BITMAP
008200
03FE00
07FC00
047800
000000
000000
000000
FF07F0
3F0080
3F8080
3FC080
37E080
37E080
33F080
31F880
31F880
30FC80
307E80
307E80
303F80
301F80
301F80
300F80
300780
300780
300380
300180
FE0180
ENDCHAR
STARTCHAR Ograve
ENCODING 210
SWIDTH 823 0
DWIDTH 22 0
BBX 20 27 1 0
BITMAP
038000
03E000
01F000
001C00
000000
000000
01F800
070600
0C0380
1C03C0
3C03C0
7801E0
7801E0
F801F0
F801F0
F801F0
F801F0
F801F0
F801F0
7801F0
7801E0
7801E0
3C03C0
1C0380
0C0380
060600
01F800
ENDCHAR
STARTCHAR Oacute
ENCODING 211
SWIDTH 823 0
DWIDTH 22 0
BBX 20 26 1 0
BITMAP
001C00
007C00
01F000
000000
000000
01F800
070600
0C0380
1C03C0
3C03C0
7801E0
7801E0
F801F0
F801F0
F801F0
F801F0
F801F0
F801F0
7801F0
7801E0
7801E0
3C03C0
1C0380
0C0380
060600
01F800
ENDCHAR
STARTCHAR Ocircumflex
ENCODING 212
SWIDTH 823 0
DWIDTH 22 0
BBX 20 26 1 0
BITMAP
007000
01F800
038C00
000000
000000
01F800
070600
0C0380
1C03C0
3C03C0
7801E0
7801E0
F801F0
F801F0
F801F0
F801F0
F801F0
F801F0
7801F0
7801E0
7801E0
3C03C0
1C0380
0C0380
060600
01F800
ENDCHAR
STARTCHAR Otilde
ENCODING 213
SWIDTH 823 0
DWIDTH 22 0
BBX 20 28 1 0
BITMAP
008200
03FE00
07FC00
043800
000000
000000
000000
01F800
070600
0C0380
1C03C0
3C03C0
7801E0
7801E0
F801F0
F801F0
F801F0
F801F0
F801F0
F801F0
7801F0
7801E0
7801E0
3C03C0
1C0380
0C0380
060600
01F800
ENDCHAR
STARTCHAR Odieresis
ENCODING 214
SWIDTH 823 0
DWIDTH 22 0
BBX 20 26 1 0
BITMAP
010800
039C00
039C00
039C00
000000
01F800
070600
0C0380
1C03C0
3C03C0
7801E0
7801E0
F801F0
F801F0
F801F0
F801F0
F801F0
F801F0
7801F0
7801E0
7801E0
3C03C0
1C0380
0C0380
060600
01F800
ENDCHAR
STARTCHAR multiply
ENCODING 215
SWIDTH 578 0
DWIDTH 16 0
BBX 12 12 2 3
BITMAP
C030
E060
70C0
3980
1F00
0E00
0F00
1B80
31C0
60E0
C070
0020
ENDCHAR
STARTCHAR Oslash
ENCODING 216
SWIDTH 823 0
DWIDTH 22 0
BBX 20 23 1 -1
BITMAP
0000C0
01F880
070780
0C0380
1C03C0
3C07C0
7805E0
780DE0
F819F0
F811F0
F831F0
F861F0
F841F0
F8C1F0
7981F0
7901E0
7B01E0
3E03C0
1C0380
0C0380
0F0600
11F800
300000
ENDCHAR
STARTCHAR Ugrave
ENCODING 217
SWIDTH 774 0
DWIDTH 21 0
BBX 21 27 0 0
BITMAP
01C000
01E000
00F800
000400
000000
000000
FFC3F8
1E0040
1E0040
1E0040
1E0040
1E0040
1E0040
1E0040
1E0040
1E0040
1E0040
1E0040
1E0040
1E0040
1E0040
1E0040
1E0040
1F0080
0F0080
078300
01FE00
ENDCHAR
STARTCHAR Uacute
ENCODING 218
SWIDTH 774 0
DWIDTH 21 0
BBX 21 26 0 0
BITMAP
001C00
007C00
01E000
000000
000000
FFC3F8
1E0040
1E0040
1E0040
1E0040
1E0040
1E0040
1E0040
1E0040
1E0040
1E0040
1E0040
1E0040
1E0040
1E0040
1E0040
1E0040
1F0080
0F0080
078300
01FE00
ENDCHAR
STARTCHAR Ucircumflex
ENCODING 219
SWIDTH 774 0
DWIDTH 21 0
BBX 21 26 0 0
BITMAP
007000
00F800
038C00
000000
000000
FFC3F8
1E0040
1E0040
1E0040
1E0040
1E0040
1E0040
1E0040
1E0040
1E0040
1E0040
1E0040
1E0040
1E0040
1E0040
1E0040
1E0040
1F0080
0F0080
078300
01FE00
ENDCHAR
STARTCHAR Udieresis
ENCODING 220
SWIDTH 774 0
DWIDTH 21 0
BBX 21 26 0 0
BITMAP
004200
00E700
00E700
00E700
000000
FFC3F8
1E0040
1E0040
1E0040
1E0040
1E0040
1E0040
1E0040
1E0040
1E0040
1E0040
1E0040
1E0040
1E0040
1E0040
1E0040
1E0040
1F0080
0F0080
078300
01FE00
ENDCHAR
STARTCHAR Yacute
ENCODING 221
SWIDTH 766 0
DWIDTH 21 0
BBX 20 26 0 0
BITMAP
003C00
007C00
01E000
000000
000000
FFC3F0
3F0040
1F0080
0F8080
0FC100
07C100
07E200
03E200
01F400
01F400
00F800
00F800
007800
007800
007800
007800
007800
007800
007800
007800
07FF00
ENDCHAR
STARTCHAR Thorn
ENCODING 222
SWIDTH 700 0
DWIDTH 19 0
BBX 18 21 1 0
BITMAP
FFC000
3C0000
3C0000
3C0000
3FF800
3C1E00
3C0F00
3C0F80
3C07C0
3C07C0
3C07C0
3C07C0
3C0F80
3C0F00
3C1E00
3FF800
3C0000
3C0000
3C0000
3C0000
FFC000
ENDCHAR
STARTCHAR germandbls
ENCODING 223
SWIDTH 669 0
DWIDTH 18 0
BBX 16 21 1 0
BITMAP
07F0
0E38
1C1C
3C1C
3C1E
3C1E
3C1C
3C1C
3C38
3CE0
3C3C
3C1E
3C1E
3C0F
3C0F
3C0F
3C0F
3C9E
3DDE
3D9C
FCF0
ENDCHAR
STARTCHAR agrave
ENCODING 224
SWIDTH 541 0
DWIDTH 15 0
BBX 13 18 1 0
BITMAP
1800
3E00
1F00
01C0
0000
0000
1F80
31E0
70E0
78E0
20E0
0FE0
38E0
70E0
F0E0
F1E0
7EF8
3C70
ENDCHAR
STARTCHAR aacute
ENCODING 225
SWIDTH 541 0
DWIDTH 15 0
BBX 13 17 1 0
BITMAP
01C0
07C0
0F80
1000
0000
1F80
31E0
70E0
78E0
20E0
0FE0
38E0
70E0
F0E0
F1E0
7EF8
3C70
ENDCHAR
STARTCHAR acircumflex
ENCODING 226
SWIDTH 541 0
DWIDTH 15 0
BBX 13 17 1 0
BITMAP
0700
0F80
38C0
0000
0000
1F80
31E0
70E0
78E0
20E0
0FE0
38E0
70E0
F0E0
F1E0
7EF8
3C70
ENDCHAR
STARTCHAR atilde
ENCODING 227
SWIDTH 541 0
DWIDTH 15 0
BBX 13 19 1 0
BITMAP
0800
3E20
3FE0
47C0
0100
0000
0000
1F80
31E0
70E0
78E0
20E0
0FE0
38E0
70E0
F0E0
F1E0
7EF8
3C70
ENDCHAR
STARTCHAR adieresis
ENCODING 228
SWIDTH 541 0
DWIDTH 15 0
BBX 13 19 1 0
BITMAP
18C0
3DE0
3DE0
0000
0000
0000
0000
1F80
31E0
70E0
78E0
20E0
0FE0
38E0
70E0
F0E0
F1E0
7EF8
3C70
ENDCHAR
STARTCHAR aring
ENCODING 229
SWIDTH 541 0
DWIDTH 15 0
BBX 13 21 1 0
BITMAP
0700
0F80
0880
0880
0F80
0700
0000
0000
0000
1F80
31E0
70E0
78E0
20E0
0FE0
38E0
70E0
F0E0
F1E0
7EF8
3C70
ENDCHAR
STARTCHAR ae
ENCODING 230
SWIDTH 796 0
DWIDTH 21 0
BBX 19 12 1 0
BITMAP
1F8F00
31F1C0
78F0E0
78E0E0
00FFE0
0FE000
38E000
70E000
F0F020
F17020
7F30C0
3C0F00
ENDCHAR
STARTCHAR ccedilla
ENCODING 231
SWIDTH 520 0
DWIDTH 14 0
BBX 12 18 1 -6
BITMAP
0F80
18E0
38F0
78F0
F0E0
F000
F000
F000
7810
7830
3860
0F80
0400
0700
0380
0180
0380
1F00
ENDCHAR
STARTCHAR egrave
ENCODING 232
SWIDTH 537 0
DWIDTH 15 0
BBX 13 18 1 0
BITMAP
1800
3E00
1F00
01C0
0000
0000
0F80
18E0
3870
7870
F070
FFF0
F000
F000
7008
7810
3820
0FC0
ENDCHAR
STARTCHAR eacute
ENCODING 233
SWIDTH 537 0
DWIDTH 15 0
BBX 13 17 1 0
BITMAP
01C0
07C0
0F80
1000
0000
0F80
18E0
3870
7870
F070
FFF0
F000
F000
7008
7810
3820
0FC0
ENDCHAR
STARTCHAR ecircumflex
ENCODING 234
SWIDTH 537 0
DWIDTH 15 0
BBX 13 17 1 0
BITMAP
0700
0F80
38C0
0000
0000
0F80
18E0
3870
7870
F070
FFF0
F000
F000
7008
7810
3820
0FC0
ENDCHAR
STARTCHAR edieresis
ENCODING 235
SWIDTH 537 0
DWIDTH 15 0
BBX 13 19 1 0
BITMAP
18C0
3DE0
3DE0
0000
0000
0000
0000
0F80
18E0
3870
7870
F070
FFF0
F000
F000
7008
7810
3820
0FC0
ENDCHAR
STARTCHAR igrave
ENCODING 236
SWIDTH 319 0
DWIDTH 9 0
BBX 8 18 0 0
BITMAP
F0
F8
3E
01
00
00
7C
1C
1C
1C
1C
1C
1C
1C
1C
1C
1C
7F
ENDCHAR
STARTCHAR iacute
ENCODING 237
SWIDTH 319 0
DWIDTH 9 0
BBX 7 17 1 0
BITMAP
1E
3E
F0
00
00
F8
38
38
38
38
38
38
38
38
38
38
FE
ENDCHAR
STARTCHAR icircumflex
ENCODING 238
SWIDTH 319 0
DWIDTH 9 0
BBX 8 17 0 0
BITMAP
1C
7E
E3
00
00
7C
1C
1C
1C
1C
1C
1C
1C
1C
1C
1C
7F
ENDCHAR
STARTCHAR idieresis
ENCODING 239
SWIDTH 319 0
DWIDTH 9 0
BBX 9 19 0 0
BITMAP
F780
F780
6300
0000
0000
0000
0000
7C00
1C00
1C00
1C00
1C00
1C00
1C00
1C00
1C00
1C00
1C00
7F00
ENDCHAR
STARTCHAR eth
ENCODING 240
SWIDTH 692 0
DWIDTH 19 0
BBX 15 20 2 0
BITMAP
0C00
038C
01F8
01E0
0770
0478
0078
003C
1FBC
3C7E
783E
F83E
F83E
F03E
F03C
F83C
783C
7838
3C70
0FC0
ENDCHAR
STARTCHAR ntilde
ENCODING 241
SWIDTH 614 0
DWIDTH 17 0
BBX 15 19 1 0
BITMAP
0400
1F10
1FF0
23E0
0080
0000
0000
F9F0
3B78
3A3C
3C3C
3C3C
383C
383C
383C
383C
383C
383C
FEFE
ENDCHAR
STARTCHAR ograve
ENCODING 242
SWIDTH 589 0
DWIDTH 16 0
BBX 14 18 1 0
BITMAP
1C00
1E00
0F80
00C0
0000
0000
0FC0
3860
7870
7878
F078
F07C
F07C
F078
7878
7870
3860
0FC0
ENDCHAR
STARTCHAR oacute
ENCODING 243
SWIDTH 589 0
DWIDTH 16 0
BBX 14 17 1 0
BITMAP
00E0
03E0
0FC0
0000
0000
0FC0
3860
7870
7878
F078
F07C
F07C
F078
7878
7870
3860
0FC0
ENDCHAR
STARTCHAR ocircumflex
ENCODING 244
SWIDTH 589 0
DWIDTH 16 0
BBX 14 17 1 0
BITMAP
0300
0FC0
1CE0
0000
0000
0FC0
3860
7870
7878
F078
F07C
F07C
F078
7878
7870
3860
0FC0
ENDCHAR
STARTCHAR otilde
ENCODING 245
SWIDTH 589 0
DWIDTH 16 0
BBX 14 19 1 0
BITMAP
0400
1F10
3FF0
23E0
0080
0000
0000
0FC0
3860
7870
7878
F078
F07C
F07C
F078
7878
7870
3860
0FC0
ENDCHAR
STARTCHAR odieresis
ENCODING 246
SWIDTH 589 0
DWIDTH 16 0
BBX 14 19 1 0
BITMAP
1C60
1CF0
1CE0
0840
0000
0000
0000
0FC0
3860
7870
7878
F078
F07C
F07C
F078
7878
7870
3860
0FC0
ENDCHAR
STARTCHAR divide
ENCODING 247
SWIDTH 578 0
DWIDTH 16 0
BBX 14 15 1 2
BITMAP
0300
0780
0780
0700
0000
0000
0000
FFFC
0000
0000
0000
0300
0780
0780
0700
ENDCHAR
STARTCHAR oslash
ENCODING 248
SWIDTH 589 0
DWIDTH 16 0
BBX 14 14 1 -1
BITMAP
0008
0FD8
3870
7870
78F8
F0F8
F17C
F27C
F678
7C78
7870
3860
2FC0
4000
ENDCHAR
STARTCHAR ugrave
ENCODING 249
SWIDTH 613 0
DWIDTH 17 0
BBX 16 18 0 0
BITMAP
0F00
0F80
03E0
0010
0000
0000
FCFC
3C3C
3C3C
3C3C
3C3C
3C3C
3C3C
3C3C
3C3C
3C3C
1C7C
1FBF
ENDCHAR
STARTCHAR uacute
ENCODING 250
SWIDTH 613 0
DWIDTH 17 0
BBX 16 17 0 0
BITMAP
00F0
01F0
0780
0000
0000
FCFC
3C3C
3C3C
3C3C
3C3C
3C3C
3C3C
3C3C
3C3C
3C3C
1C7C
1FBF
ENDCHAR
STARTCHAR ucircumflex
ENCODING 251
SWIDTH 613 0
DWIDTH 17 0
BBX 16 17 0 0
BITMAP
01C0
07E0
0E30
0000
0000
FCFC
3C3C
3C3C
3C3C
3C3C
3C3C
3C3C
3C3C
3C3C
3C3C
1C7C
1FBF
ENDCHAR
STARTCHAR udieresis
ENCODING 252
SWIDTH 613 0
DWIDTH 17 0
BBX 16 19 0 0
BITMAP
0F78
0F78
0630
0000
0000
0000
0000
FCFC
3C3C
3C3C
3C3C
3C3C
3C3C
3C3C
3C3C
3C3C
3C3C
1C7C
1FBF
ENDCHAR
STARTCHAR yacute
ENCODING 253
SWIDTH 501 0
DWIDTH 14 0
BBX 14 26 0 -9
BITMAP
01E0
07C0
0F00
0000
0000
FE7C
7C10
3C20
3E20
1E20
1E40
0F40
0F80
0780
0780
0300
0300
0200
0200
0400
0400
0400
4800
F800
F000
E000
ENDCHAR
STARTCHAR thorn
ENCODING 254
SWIDTH 630 0
DWIDTH 17 0
BBX 15 30 1 -9
BITMAP
F800
3800
3800
3800
3800
3800
3800
3800
3800
39E0
3A38
3C3C
3C3C
381E
381E
381E
3C1E
3C3C
3C3C
3A38
39E0
3800
3800
3800
3800
3800
3800
3800
3800
FF00
ENDCHAR
STARTCHAR ydieresis
ENCODING 255
SWIDTH 501 0
DWIDTH 14 0
BBX 14 29 0 -9
BITMAP
0840
1CE0
1CE0
1CE0
0000
0000
0000
0000
FE7C
7C10
3C20
3E20
1E20
1E40
0F40
0F80
0780
0780
0300
0300
0200
0200
0400
0400
0400
4800
F800
F000
E000
ENDCHAR
STARTCHAR Amacron
ENCODING 256
SWIDTH 715 0
DWIDTH 19 0
BBX 20 24 0 0
BITMAP
03FE00
03FE00
000000
002000
006000
007000
007000
00F000
00F800
01F800
017800
017C00
027C00
023C00
043E00
043E00
041E00
0FFF00
080F00
100F80
100F80
100780
2007C0
FC3FF0
ENDCHAR
STARTCHAR amacron
ENCODING 257
SWIDTH 541 0
DWIDTH 15 0
BBX 13 19 1 0
BITMAP
3FE0
3FE0
0000
0000
0000
0000
0000
1F80
31E0
70E0
78E0
20E0
0FE0
38E0
70E0
F0E0
F1E0
7EF8
3C70
ENDCHAR
STARTCHAR Abreve
ENCODING 258
SWIDTH 715 0
DWIDTH 19 0
BBX 20 26 0 0
BITMAP
030C00
01FC00
01F800
000000
000000
002000
006000
007000
007000
00F000
00F800
01F800
017800
017C00
027C00
023C00
043E00
043E00
041E00
0FFF00
080F00
100F80
100F80
100780
2007C0
FC3FF0
ENDCHAR
STARTCHAR abreve
ENCODING 259
SWIDTH 541 0
DWIDTH 15 0
BBX 13 17 1 0
BITMAP
30C0
1FC0
1F80
0000
0000
1F80
31E0
70E0
78E0
20E0
0FE0
38E0
70E0
F0E0
F1E0
7EF8
3C70
ENDCHAR
STARTCHAR Aogonek
ENCODING 260
SWIDTH 715 0
DWIDTH 19 0
BBX 20 27 0 -6
BITMAP
002000
006000
007000
007000
00F000
00F800
01F800
017800
017C00
027C00
023C00
043E00
043E00
041E00
0FFF00
080F00
100F80
100F80
100780
2007C0
FC3FF0
000600
000C00
001C00
001800
001C00
001F00
ENDCHAR
STARTCHAR aogonek
ENCODING 261
SWIDTH 541 0
DWIDTH 15 0
BBX 14 18 1 -6
BITMAP
1F80
31E0
70E0
78E0
20E0
0FE0
38E0
70E0
F0E0
F1E0
7AFC
3C70
0060
00C0
01C0
0180
01D0
00E0
ENDCHAR
STARTCHAR Cacute
ENCODING 262
SWIDTH 711 0
DWIDTH 19 0
BBX 17 26 1 0
BITMAP
001C00
007C00
01F000
000000
000000
01F880
070780
0E0380
1C0180
3C0180
3C0080
7C0080
7C0000
7C0000
F80000
F80000
F80000
F80000
7C0000
7C0000
7C0080
3C0080
1C0180
0E0380
070780
01F880
ENDCHAR
STARTCHAR cacute
ENCODING 263
SWIDTH 520 0
DWIDTH 14 0
BBX 12 17 1 0
BITMAP
01C0
07C0
0F80
1000
0000
0F80
38E0
78F0
78F0
F0E0
F000
F000
F000
7810
3820
1860
0F80
ENDCHAR
STARTCHAR Ccircumflex
ENCODING 264
SWIDTH 711 0
DWIDTH 19 0
BBX 17 26 1 0
BITMAP
007000
01F800
039C00
000000
000000
01F880
070780
0E0380
1C0180
3C0180
3C0080
7C0080
7C0000
7C0000
F80000
F80000
F80000
F80000
7C0000
7C0000
7C0080
3C0080
1C0180
0E0380
070780
01F880
ENDCHAR
STARTCHAR ccircumflex
ENCODING 265
SWIDTH 520 0
DWIDTH 14 0
BBX 12 17 1 0
BITMAP
0600
1F80
39C0
0000
0000
0F80
38E0
78F0
78F0
F0E0
F000
F000
F000
7810
3820
1860
0F80
ENDCHAR
STARTCHAR Cdotaccent
ENCODING 266
SWIDTH 711 0
DWIDTH 19 0
BBX 17 26 1 0
BITMAP
006000
00F000
00F000
006000
000000
01F880
070780
0E0380
1C0180
3C0180
3C0080
7C0080
7C0000
7C0000
F80000
F80000
F80000
F80000
7C0000
7C0000
7C0080
3C0080
1C0180
0E0380
070780
01F880
ENDCHAR
STARTCHAR cdotaccent
ENCODING 267
SWIDTH 520 0
DWIDTH 14 0
BBX 12 19 1 0
BITMAP
0600
0F00
0F00
0F00
0000
0000
0000
0F80
38E0
78F0
78F0
F0E0
F000
F000
F000
7810
3820
1860
0F80
ENDCHAR
STARTCHAR Ccaron
ENCODING 268
SWIDTH 711 0
DWIDTH 19 0
BBX 17 26 1 0
BITMAP
060600
03FC00
01F800
006000
000000
01F880
070780
0E0380
1C0180
3C0180
3C0080
7C0080
7C0000
7C0000
F80000
F80000
F80000
F80000
7C0000
7C0000
7C0080
3C0080
1C0180
0E0380
070780
01F880
ENDCHAR
STARTCHAR ccaron
ENCODING 269
SWIDTH 520 0
DWIDTH 14 0
BBX 12 19 1 0
BITMAP
30C0
19C0
1F80
0F00
0600
0000
0000
0F80
38E0
78F0
78F0
F0E0
F000
F000
F000
7810
3820
1860
0F80
ENDCHAR
STARTCHAR Dcaron
ENCODING 270
SWIDTH 798 0
DWIDTH 22 0
BBX 20 26 1 0
BITMAP
0C0600
03FC00
01F000
00E000
000000
FFF800
3C0E00
3C0700
3C0380
3C03C0
3C03E0
3C03E0
3C03E0
3C01F0
3C01F0
3C01F0
3C01F0
3C01F0
3C03E0
3C03E0
3C03C0
3C03C0
3C0380
3C0700
3C0E00
FFF800
ENDCHAR
STARTCHAR dcaron
ENCODING 271
SWIDTH 728 0
DWIDTH 20 0
BBX 16 21 0 0
BITMAP
70FC
F01C
F81C
681C
181C
101C
301C
601C
001C
079C
1C5C
3C3C
3C3C
783C
781C
781C
783C
3C3C
3C3C
1C5C
079F
ENDCHAR
STARTCHAR Dcroat
ENCODING 272
SWIDTH 798 0
DWIDTH 22 0
BBX 21 21 0 0
BITMAP
7FFC00
1E0700
1E0380
1E01C0
1E01E0
1E01F0
1E01F0
1E01F0
1E00F8
1E00F8
FFE0F8
1E00F8
1E00F8
1E01F0
1E01F0
1E01E0
1E01E0
1E01C0
1E0380
1E0700
7FFC00
ENDCHAR
STARTCHAR dcroat
ENCODING 273
SWIDTH 631 0
DWIDTH 17 0
BBX 15 21 1 0
BITMAP
01F8
0038
0038
0038
0038
03FE
0038
0038
0038
0F38
38B8
7878
7878
F078
F038
F038
F078
7878
7878
38B8
0F3E
ENDCHAR
STARTCHAR Emacron
ENCODING 274
SWIDTH 696 0
DWIDTH 19 0
BBX 17 25 1 0
BITMAP
0FF800
0FF800
000000
000000
FFFF00
3C0700
3C0300
3C0100
3C0100
3C0000
3C0000
3C1000
3C1000
3C3000
3FF000
3C7000
3C1000
3C1000
3C1080
3C0080
3C0180
3C0180
3C0380
3C0780
FFFF80
ENDCHAR
STARTCHAR emacron
ENCODING 275
SWIDTH 537 0
DWIDTH 15 0
BBX 13 19 1 0
BITMAP
3FE0
3FE0
0000
0000
0000
0000
0000
0F80
18E0
3870
7870
F070
FFF0
F000
F000
7008
7810
3820
0FC0
ENDCHAR
STARTCHAR Ebreve
ENCODING 276
SWIDTH 696 0
DWIDTH 19 0
BBX 17 27 1 0
BITMAP
0C1000
07F000
07F000
03E000
000000
000000
FFFF00
3C0700
3C0300
3C0100
3C0100
3C0000
3C0000
3C1000
3C1000
3C3000
3FF000
3C7000
3C1000
3C1000
3C1080
3C0080
3C0180
3C0180
3C0380
3C0780
FFFF80
ENDCHAR
STARTCHAR ebreve
ENCODING 277
SWIDTH 537 0
DWIDTH 15 0
BBX 13 17 1 0
BITMAP
30C0
1FC0
1F80
0000
0000
0F80
18E0
3870
7870
F070
FFF0
F000
F000
7008
7810
3820
0FC0
ENDCHAR
STARTCHAR Edotaccent
ENCODING 278
SWIDTH 696 0
DWIDTH 19 0
BBX 17 26 1 0
BITMAP
008000
01C000
01C000
01C000
000000
FFFF00
3C0700
3C0300
3C0100
3C0100
3C0000
3C0000
3C1000
3C1000
3C3000
3FF000
3C7000
3C1000
3C1000
3C1080
3C0080
3C0180
3C0180
3C0380
3C0780
FFFF80
ENDCHAR
STARTCHAR edotaccent
ENCODING 279
SWIDTH 537 0
DWIDTH 15 0
BBX 13 19 1 0
BITMAP
0700
0F00
0F00
0700
0000
0000
0000
0F80
18E0
3870
7870
F070
FFF0
F000
F000
7008
7810
3820
0FC0
ENDCHAR
STARTCHAR Eogonek
ENCODING 280
SWIDTH 696 0
DWIDTH 19 0
BBX 17 27 1 -6
BITMAP
FFFF00
3C0700
3C0300
3C0100
3C0100
3C0000
3C0000
3C1000
3C1000
3C3000
3FF000
3C7000
3C1000
3C1000
3C1080
3C0080
3C0180
3C0180
3C0380
3C0780
FFFF80
001800
003000
007000
006000
006000
007C00
ENDCHAR
STARTCHAR eogonek
ENCODING 281
SWIDTH 537 0
DWIDTH 15 0
BBX 14 18 0 -6
BITMAP
07C0
0C70
1C38
3C38
7838
7FF8
7800
7800
3804
3C08
1C10
0FE0
1800
3000
6000
E000
E000
7800
ENDCHAR
STARTCHAR Ecaron
ENCODING 282
SWIDTH 696 0
DWIDTH 19 0
BBX 17 26 1 0
BITMAP
180C00
0FF000
03E000
01C000
000000
FFFF00
3C0700
3C0300
3C0100
3C0100
3C0000
3C0000
3C1000
3C1000
3C3000
3FF000
3C7000
3C1000
3C1000
3C1080
3C0080
3C0180
3C0180
3C0380
3C0780
FFFF80
ENDCHAR
STARTCHAR ecaron
ENCODING 283
SWIDTH 537 0
DWIDTH 15 0
BBX 13 19 1 0
BITMAP
3060
1DC0
0F80
0F00
0700
0000
0000
0F80
18E0
3870
7870
F070
FFF0
F000
F000
7008
7810
3820
0FC0
ENDCHAR
STARTCHAR Gcircumflex
ENCODING 284
SWIDTH 790 0
DWIDTH 21 0
BBX 20 26 1 0
BITMAP
00E000
01F000
031C00
000000
000000
01F880
070780
0E0380
1E0180
3C0180
3C0080
7C0080
7C0000
7C0000
F80000
F80000
F80000
F80000
7C3FF0
7C07C0
7C07C0
3C07C0
3C0780
1E0700
070E00
01F800
ENDCHAR
STARTCHAR gcircumflex
ENCODING 285
SWIDTH 565 0
DWIDTH 15 0
BBX 15 26 1 -9
BITMAP
0700
0F80
18E0
0000
0000
0F8C
38FE
78F4
78F0
78F0
78F0
78E0
38E0
3F80
4000
C000
FFF0
FFF8
3FF8
3018
6008
E008
E018
E010
7060
1F80
ENDCHAR
STARTCHAR Gbreve
ENCODING 286
SWIDTH 790 0
DWIDTH 21 0
BBX 20 26 1 0
BITMAP
020C00
03F800
01F800
000000
000000
01F880
070780
0E0380
1E0180
3C0180
3C0080
7C0080
7C0000
7C0000
F80000
F80000
F80000
F80000
7C3FF0
7C07C0
7C07C0
3C07C0
3C0780
1E0700
070E00
01F800
ENDCHAR
STARTCHAR gbreve
ENCODING 287
SWIDTH 565 0
DWIDTH 15 0
BBX 15 26 1 -9
BITMAP
1060
1FC0
0F80
0000
0000
0F8C
38FE
78F4
78F0
78F0
78F0
78E0
38E0
3F80
4000
C000
FFF0
FFF8
3FF8
3018
6008
E008
E018
E010
7060
1F80
ENDCHAR
STARTCHAR Gdotaccent
ENCODING 288
SWIDTH 790 0
DWIDTH 21 0
BBX 20 26 1 0
BITMAP
004000
00E000
00E000
00E000
000000
01F880
070780
0E0380
1E0180
3C0180
3C0080
7C0080
7C0000
7C0000
F80000
F80000
F80000
F80000
7C3FF0
7C07C0
7C07C0
3C07C0
3C0780
1E0700
070E00
01F800
ENDCHAR
STARTCHAR gdotaccent
ENCODING 289
SWIDTH 565 0
DWIDTH 15 0
BBX 15 28 1 -9
BITMAP
0700
0780
0780
0700
0000
0000
0000
0F8C
38FE
78F4
78F0
78F0
78F0
78E0
38E0
3F80
4000
C000
FFF0
FFF8
3FF8
3018
6008
E008
E018
E010
7060
1F80
ENDCHAR
STARTCHAR Gcommaaccent
ENCODING 290
SWIDTH 790 0
DWIDTH 21 0
BBX 20 30 1 -9
BITMAP
01F880
070780
0E0380
1E0180
3C0180
3C0080
7C0080
7C0000
7C0000
F80000
F80000
F80000
F80000
7C3FF0
7C07C0
7C07C0
3C07C0
3C07C0
1C0780
0E0700
070E00
01F800
000000
00E000
01F000
00F000
001000
002000
006000
00C000
ENDCHAR
STARTCHAR gcommaaccent
ENCODING 291
SWIDTH 565 0
DWIDTH 15 0
BBX 15 30 1 -9
BITMAP
0100
0600
0400
0800
0F80
0780
0700
0000
0000
0F8C
38FE
78F4
78F0
78F0
78F0
78E0
38E0
3F80
4000
C000
FFF0
FFF8
3FF8
3018
6008
E008
E018
E010
7060
1F80
ENDCHAR
STARTCHAR Hcircumflex
ENCODING 292
SWIDTH 826 0
DWIDTH 22 0
BBX 21 26 1 0
BITMAP
007000
01F800
030C00
000000
000000
FF9FF8
3C03C0
3C03C0
3C03C0
3C03C0
3C03C0
3C03C0
3C03C0
3C03C0
3C03C0
3FFFC0
3C03C0
3C03C0
3C03C0
3C03C0
3C03C0
3C03C0
3C03C0
3C03C0
3C03C0
FF9FF8
ENDCHAR
STARTCHAR hcircumflex
ENCODING 293
SWIDTH 619 0
DWIDTH 17 0
BBX 15 21 1 0
BITMAP
F800
3800
3800
3870
38F8
3B8C
3800
3800
3800
39F0
3B78
3A3C
3C3C
3C3C
383C
383C
383C
383C
383C
383C
FEFE
ENDCHAR
STARTCHAR Hbar
ENCODING 294
SWIDTH 826 0
DWIDTH 22 0
BBX 21 21 1 0
BITMAP
FF9FF8
3C03C0
3C03C0
3C03C0
3C03C0
FFFFF0
3C03C0
3C03C0
3C03C0
3C03C0
3FFFC0
3C03C0
3C03C0
3C03C0
3C03C0
3C03C0
3C03C0
3C03C0
3C03C0
3C03C0
FF9FF8
ENDCHAR
STARTCHAR hbar
ENCODING 295
SWIDTH 619 0
DWIDTH 17 0
BBX 15 21 1 0
BITMAP
F800
3800
3800
3800
FFC0
3800
3800
3800
3800
39F0
3B78
3A3C
3C3C
3C3C
383C
383C
383C
383C
383C
383C
FEFE
ENDCHAR
STARTCHAR Itilde
ENCODING 296
SWIDTH 386 0
DWIDTH 10 0
BBX 10 28 0 0
BITMAP
1040
7FC0
FFC0
8700
0000
0000
0000
7FC0
1E00
1E00
1E00
1E00
1E00
1E00
1E00
1E00
1E00
1E00
1E00
1E00
1E00
1E00
1E00
1E00
1E00
1E00
1E00
7FC0
ENDCHAR
STARTCHAR itilde
ENCODING 297
SWIDTH 319 0
DWIDTH 9 0
BBX 11 19 -1 0
BITMAP
1020
7FC0
7FC0
8780
0000
0000
0000
3E00
0E00
0E00
0E00
0E00
0E00
0E00
0E00
0E00
0E00
0E00
3F80
ENDCHAR
STARTCHAR Imacron
ENCODING 298
SWIDTH 386 0
DWIDTH 10 0
BBX 9 25 1 0
BITMAP
FF80
FF80
0000
0000
FF80
3C00
3C00
3C00
3C00
3C00
3C00
3C00
3C00
3C00
3C00
3C00
3C00
3C00
3C00
3C00
3C00
3C00
3C00
3C00
FF80
ENDCHAR
STARTCHAR imacron
ENCODING 299
SWIDTH 319 0
DWIDTH 9 0
BBX 9 19 0 0
BITMAP
FF80
FF80
0000
0000
0000
0000
0000
7C00
1C00
1C00
1C00
1C00
1C00
1C00
1C00
1C00
1C00
1C00
7F00
ENDCHAR
STARTCHAR Ibreve
ENCODING 300
SWIDTH 386 0
DWIDTH 10 0
BBX 9 27 1 0
BITMAP
8100
FF00
7E00
3C00
0000
0000
FF80
3C00
3C00
3C00
3C00
3C00
3C00
3C00
3C00
3C00
3C00
3C00
3C00
3C00
3C00
3C00
3C00
3C00
3C00
3C00
FF80
ENDCHAR
STARTCHAR ibreve
ENCODING 301
SWIDTH 319 0
DWIDTH 9 0
BBX 8 18 0 0
BITMAP
C1
FF
7F
3C
00
00
7C
1C
1C
1C
1C
1C
1C
1C
1C
1C
1C
7F
ENDCHAR
STARTCHAR Iogonek
ENCODING 302
SWIDTH 386 0
DWIDTH 10 0
BBX 9 27 1 -6
BITMAP
FF80
3C00
3C00
3C00
3C00
3C00
3C00
3C00
3C00
3C00
3C00
3C00
3C00
3C00
3C00
3C00
3C00
3C00
3C00
3C00
FF80
1000
3000
6000
E000
E000
7800
ENDCHAR
STARTCHAR iogonek
ENCODING 303
SWIDTH 319 0
DWIDTH 9 0
BBX 8 25 0 -6
BITMAP
1C
3E
3C
1C
00
00
00
7C
1C
1C
1C
1C
1C
1C
1C
1C
1C
1C
7F
10
30
60
E0
E0
78
ENDCHAR
STARTCHAR Idotaccent
ENCODING 304
SWIDTH 386 0
DWIDTH 10 0
BBX 9 26 1 0
BITMAP
1800
3C00
3C00
1800
0000
FF80
3C00
3C00
3C00
3C00
3C00
3C00
3C00
3C00
3C00
3C00
3C00
3C00
3C00
3C00
3C00
3C00
3C00
3C00
3C00
FF80
ENDCHAR
STARTCHAR dotlessi
ENCODING 305
SWIDTH 319 0
DWIDTH 9 0
BBX 7 12 1 0
BITMAP
F8
38
38
38
38
38
38
38
38
38
38
FE
ENDCHAR
STARTCHAR IJ
ENCODING 306
SWIDTH 772 0
DWIDTH 21 0
BBX 19 24 1 -3
BITMAP
FFBFE0
3C0780
3C0780
3C0780
3C0780
3C0780
3C0780
3C0780
3C0780
3C0780
3C0780
3C0780
3C0780
3C0780
3C0780
3C0780
3C0780
3C0780
3C0780
3DC700
FFEF00
03CF00
01CE00
00F800
ENDCHAR
STARTCHAR ij
ENCODING 307
SWIDTH 637 0
DWIDTH 17 0
BBX 14 28 1 -9
BITMAP
383C
7C3C
783C
3818
0000
0000
0000
F8FC
383C
383C
383C
383C
383C
383C
383C
383C
383C
383C
FE3C
003C
003C
003C
003C
003C
03B8
07B8
03B0
01E0
ENDCHAR
STARTCHAR Jcircumflex
ENCODING 308
SWIDTH 386 0
DWIDTH 10 0
BBX 13 29 -3 -3
BITMAP
01C0
07E0
0C30
0000
0000
0FF8
03C0
03C0
03C0
03C0
03C0
03C0
03C0
03C0
03C0
03C0
03C0
03C0
03C0
03C0
03C0
03C0
03C0
03C0
F3C0
F3C0
F380
F700
7E00
ENDCHAR
STARTCHAR jcircumflex
ENCODING 309
SWIDTH 318 0
DWIDTH 9 0
BBX 10 26 -2 -9
BITMAP
0700
1F80
38C0
0000
0000
3F00
0700
0700
0700
0700
0700
0700
0700
0700
0700
0700
0700
0700
0700
0700
0700
0700
E700
E600
EC00
7800
ENDCHAR
STARTCHAR Kcommaaccent
ENCODING 310
SWIDTH 811 0
DWIDTH 22 0
BBX 21 30 1 -9
BITMAP
FF8FF0
3C0100
3C0200
3C0400
3C0800
3C1000
3C2000
3C6000
3CE000
3DF000
3FF800
3CF800
3C7C00
3C7E00
3C3E00
3C1F00
3C1F80
3C0F80
3C07C0
3C07E0
FF9FF8
000000
000000
00E000
00F000
00F000
001000
001000
002000
004000
ENDCHAR
STARTCHAR kcommaaccent
ENCODING 311
SWIDTH 618 0
DWIDTH 17 0
BBX 16 30 1 -9
BITMAP
F800
3800
3800
3800
3800
3800
3800
3800
3800
38FC
3820
3840
3880
3B80
3BC0
39E0
39F0
38F0
3878
387C
FEFF
0000
0000
0380
0780
07C0
0040
0080
0100
0200
ENDCHAR
STARTCHAR kgreenlandic
ENCODING 312
SWIDTH 618 0
DWIDTH 17 0
BBX 16 12 1 0
BITMAP
F8FC
3820
3840
3880
3B80
3BC0
39E0
39F0
38F0
3878
387C
FEFF
ENDCHAR
STARTCHAR Lacute
ENCODING 313
SWIDTH 681 0
DWIDTH 18 0
BBX 17 27 1 0
BITMAP
020000
0F0000
1F0000
780000
000000
000000
FFC000
3C0000
3C0000
3C0000
3C0000
3C0000
3C0000
3C0000
3C0000
3C0000
3C0000
3C0000
3C0000
3C0000
3C0080
3C0080
3C0180
3C0180
3C0380
3C0780
FFFF80
ENDCHAR
STARTCHAR lacute
ENCODING 314
SWIDTH 329 0
DWIDTH 9 0
BBX 7 26 1 0
BITMAP
0E
3E
78
80
00
F8
38
38
38
38
38
38
38
38
38
38
38
38
38
38
38
38
38
38
38
FE
ENDCHAR
STARTCHAR Lcommaaccent
ENCODING 315
SWIDTH 681 0
DWIDTH 18 0
BBX 17 30 1 -9
BITMAP
FFC000
3C0000
3C0000
3C0000
3C0000
3C0000
3C0000
3C0000
3C0000
3C0000
3C0000
3C0000
3C0000
3C0000
3C0080
3C0080
3C0180
3C0180
3C0380
3C0780
FFFF80
000000
000000
018000
03C000
03C000
004000
004000
008000
010000
ENDCHAR
STARTCHAR lcommaaccent
ENCODING 316
SWIDTH 329 0
DWIDTH 9 0
BBX 7 30 1 -9
BITMAP
F8
38
38
38
38
38
38
38
38
38
38
38
38
38
38
38
38
38
38
38
FE
00
00
38
78
7C
04
08
18
20
ENDCHAR
STARTCHAR Lcaron
ENCODING 317
SWIDTH 681 0
DWIDTH 18 0
BBX 18 26 0 0
BITMAP
C0C000
7F8000
3F0000
1C0000
000000
7FE000
1E0000
1E0000
1E0000
1E0000
1E0000
1E0000
1E0000
1E0000
1E0000
1E0000
1E0000
1E0000
1E0000
1E0040
1E0040
1E00C0
1E00C0
1E01C0
1E03C0
7FFFC0
ENDCHAR
STARTCHAR lcaron
ENCODING 318
SWIDTH 388 0
DWIDTH 10 0
BBX 11 21 1 0
BITMAP
F8C0
39E0
39E0
39E0
3820
3820
3840
3880
3800
3800
3800
3800
3800
3800
3800
3800
3800
3800
3800
3800
FE00
ENDCHAR
STARTCHAR Ldot
ENCODING 319
SWIDTH 955 0
DWIDTH 26 0
BBX 17 21 1 0
BITMAP
FFC000
3C0000
3C0000
3C0000
3C0000
3C0000
3C0000
3C0000
3C0000
3C3000
3C7800
3C7800
3C7800
3C3000
3C0000
3C0080
3C0180
3C0180
3C0380
3C0780
FFFF80
ENDCHAR
STARTCHAR ldot
ENCODING 320
SWIDTH 410 0
DWIDTH 11 0
BBX 12 21 1 0
BITMAP
F800
3800
3800
3800
3800
3800
3800
3800
3800
3800
38E0
39F0
39F0
39E0
38C0
3800
3800
3800
3800
3800
FE00
ENDCHAR
STARTCHAR Lslash
ENCODING 321
SWIDTH 681 0
DWIDTH 18 0
BBX 17 21 1 0
BITMAP
FFC000
3C0000
3C0000
3C0000
3C0000
3C0000
3C0000
3C4000
3CC000
3F0000
3C0000
3C0000
7C0000
BC0000
3C0080
3C0080
3C0180
3C0180
3C0380
3C0780
FFFF80
ENDCHAR
STARTCHAR lslash
ENCODING 322
SWIDTH 329 0
DWIDTH 9 0
BBX 8 21 1 0
BITMAP
F8
38
38
38
38
38
38
38
3B
3E
38
78
B8
38
38
38
38
38
38
38
FE
ENDCHAR
STARTCHAR Nacute
ENCODING 323
SWIDTH 791 0
DWIDTH 21 0
BBX 20 26 1 0
BITMAP
003C00
00F800
01E000
020000
000000
FF07F0
3F0080
3F8080
3FC080
37E080
37E080
33F080
31F880
31F880
30FC80
307E80
307E80
303F80
301F80
301F80
300F80
300780
300780
300380
300180
FE0180
ENDCHAR
STARTCHAR nacute
ENCODING 324
SWIDTH 614 0
DWIDTH 17 0
BBX 15 17 1 0
BITMAP
01E0
03E0
0F00
0000
0000
F9F0
3B78
3A3C
3C3C
3C3C
383C
383C
383C
383C
383C
383C
FEFE
ENDCHAR
STARTCHAR Ncommaaccent
ENCODING 325
SWIDTH 791 0
DWIDTH 21 0
BBX 20 30 1 -9
BITMAP
FF07F0
3F0080
3F8080
3FC080
37E080
37E080
33F080
31F880
31F880
30FC80
307E80
307E80
303F80
301F80
301F80
300F80
300780
300780
300380
300180
FE0180
000000
000000
00E000
01F000
00F000
001000
003000
006000
00C000
ENDCHAR
STARTCHAR ncommaaccent
ENCODING 326
SWIDTH 614 0
DWIDTH 17 0
BBX 15 21 1 -9
BITMAP
F9F0
3B78
3A3C
3C3C
3C3C
383C
383C
383C
383C
383C
383C
FEFE
0000
0000
0380
0780
07C0
0080
0080
0100
0200
ENDCHAR
STARTCHAR Ncaron
ENCODING 327
SWIDTH 791 0
DWIDTH 21 0
BBX 20 26 1 0
BITMAP
0C0600
03FC00
01F000
00E000
000000
FF07F0
3F0080
3F8080
3FC080
37E080
37E080
33F080
31F880
31F880
30FC80
307E80
307E80
303F80
301F80
301F80
300F80
300780
300780
300380
300180
FE0180
ENDCHAR
STARTCHAR ncaron
ENCODING 328
SWIDTH 614 0
DWIDTH 17 0
BBX 15 19 1 0
BITMAP
1830
0EE0
07C0
0780
0380
0000
0000
F9F0
3B78
3A3C
3C3C
3C3C
383C
383C
383C
383C
383C
383C
FEFE
ENDCHAR
STARTCHAR napostrophe
ENCODING 329
SWIDTH 614 0
DWIDTH 17 0
BBX 16 22 0 0
BITMAP
7000
F800
F800
FC00
4C00
0800
0800
1000
2000
0000
7CF8
1DBC
1D1E
1E1E
1E1E
1C1E
1C1E
1C1E
1C1E
1C1E
1C1E
7F7F
ENDCHAR
STARTCHAR Eng
ENCODING 330
SWIDTH 791 0
DWIDTH 21 0
BBX 20 25 1 -4
BITMAP
FF07F0
3F8080
3F8080
3FC080
37E080
33F080
33F880
31FC80
30FC80
307E80
307F80
303F80
301F80
300F80
300F80
300780
300380
300180
300180
300080
FE1880
003C80
003C80
003D80
001F00
ENDCHAR
STARTCHAR eng
ENCODING 331
SWIDTH 614 0
DWIDTH 17 0
BBX 14 21 1 -9
BITMAP
F9F0
3B78
3C3C
3C3C
3C3C
383C
383C
383C
383C
383C
383C
FE3C
003C
003C
003C
0038
0038
0738
0730
0770
03C0
ENDCHAR
STARTCHAR Omacron
ENCODING 332
SWIDTH 823 0
DWIDTH 22 0
BBX 20 24 1 0
BITMAP
03FE00
03FE00
000000
01F800
070600
0C0380
1C03C0
3C03C0
7801E0
7801E0
F801F0
F801F0
F801F0
F801F0
F801F0
F801F0
7801F0
7801E0
7801E0
3C03C0
1C0380
0C0380
060600
01F800
ENDCHAR
STARTCHAR omacron
ENCODING 333
SWIDTH 589 0
DWIDTH 16 0
BBX 14 19 1 0
BITMAP
1FF0
1FF0
0000
0000
0000
0000
0000
0FC0
3860
7870
7878
F078
F07C
F07C
F078
7878
7870
3860
0FC0
ENDCHAR
STARTCHAR Obreve
ENCODING 334
SWIDTH 823 0
DWIDTH 22 0
BBX 20 26 1 0
BITMAP
030C00
03FC00
01F800
000000
000000
01F800
070600
0C0380
1C03C0
3C03C0
7801E0
7801E0
F801F0
F801F0
F801F0
F801F0
F801F0
F801F0
7801F0
7801E0
7801E0
3C03C0
1C0380
0C0380
060600
01F800
ENDCHAR
STARTCHAR obreve
ENCODING 335
SWIDTH 589 0
DWIDTH 16 0
BBX 14 17 1 0
BITMAP
1860
1FE0
0FC0
0000
0000
0FC0
3860
7870
7878
F078
F07C
F07C
F078
7878
7870
3860
0FC0
ENDCHAR
STARTCHAR Ohungarumlaut
ENCODING 336
SWIDTH 823 0
DWIDTH 22 0
BBX 20 26 1 0
BITMAP
001040
0079E0
01FFE0
038E00
000000
01F800
070600
0C0380
1C03C0
3C03C0
7801E0
7801E0
F801F0
F801F0
F801F0
F801F0
F801F0
F801F0
7801F0
7801E0
7801E0
3C03C0
1C0380
0C0380
060600
01F800
ENDCHAR
STARTCHAR ohungarumlaut
ENCODING 337
SWIDTH 589 0
DWIDTH 16 0
BBX 15 21 1 0
BITMAP
018E
03DE
079C
0738
0C70
18C0
0000
0000
0000
0FC0
3860
7870
7878
F078
F07C
F07C
F078
7878
7870
3860
0FC0
ENDCHAR
STARTCHAR OE
ENCODING 338
SWIDTH 1179 0
DWIDTH 32 0
BBX 30 21 1 0
BITMAP
01FFFFF8
0707E038
0C03E018
1C03E008
3C03E008
7801E000
7801E000
F801E080
F801E080
F801E180
F801FF80
F801E380
F801E080
7801E080
7801E084
7801E004
3C03E00C
1C03E00C
0C03E01C
0607E03C
01FFFFFC
ENDCHAR
STARTCHAR oe
ENCODING 339
SWIDTH 881 0
DWIDTH 24 0
BBX 22 12 1 0
BITMAP
0FC7E0
386C30
787C38
707C3C
F07FFC
F07C00
F07C00
F07C00
787C04
787C08
386E10
0FC3E0
ENDCHAR
STARTCHAR Racute
ENCODING 340
SWIDTH 740 0
DWIDTH 20 0
BBX 19 27 1 0
BITMAP
001000
007800
00F800
03C000
000000
000000
FFFC00
3C1F00
3C0F80
3C0F80
3C0F80
3C0F80
3C0F80
3C0F00
3C1E00
3FF800
3C3800
3C1C00
3C1E00
3C1F00
3C1F00
3C1F00
3C1F00
3C1F80
3C0F80
3C0F80
FFC3E0
ENDCHAR
STARTCHAR racute
ENCODING 341
SWIDTH 506 0
DWIDTH 14 0
BBX 12 18 1 0
BITMAP
0080
03C0
0FC0
1E00
0000
0000
F9E0
3BF0
3CF0
3CF0
3C60
3800
3800
3800
3800
3800
3800
FE00
ENDCHAR
STARTCHAR Rcommaaccent
ENCODING 342
SWIDTH 740 0
DWIDTH 20 0
BBX 19 30 1 -9
BITMAP
FFFC00
3C1F00
3C0F80
3C0F80
3C0F80
3C0F80
3C0F80
3C0F00
3C1E00
3FF800
3C3800
3C1C00
3C1E00
3C1F00
3C1F00
3C1F00
3C1F00
3C1F80
3C0F80
3C0F80
FFC3E0
000000
000000
01C000
01E000
01E000
002000
002000
004000
008000
ENDCHAR
STARTCHAR rcommaaccent
ENCODING 343
SWIDTH 506 0
DWIDTH 14 0
BBX 12 21 1 -9
BITMAP
F9E0
3BF0
3CF0
3CF0
3C60
3800
3800
3800
3800
3800
3800
FE00
0000
0000
0E00
0F00
0F00
0100
0100
0200
0C00
ENDCHAR
STARTCHAR Rcaron
ENCODING 344
SWIDTH 740 0
DWIDTH 20 0
BBX 19 26 1 0
BITMAP
080C00
07F800
03F000
01C000
000000
FFFC00
3C1F00
3C0F80
3C0F80
3C0F80
3C0F80
3C0F80
3C0F00
3C1E00
3FF800
3C3800
3C1C00
3C1E00
3C1F00
3C1F00
3C1F00
3C1F00
3C1F80
3C0F80
3C0F80
FFC3E0
ENDCHAR
STARTCHAR rcaron
ENCODING 345
SWIDTH 506 0
DWIDTH 14 0
BBX 12 19 1 0
BITMAP
70C0
3980
1F80
0F00
0600
0000
0000
F9E0
3BF0
3CF0
3CF0
3C60
3800
3800
3800
3800
3800
3800
FE00
ENDCHAR
STARTCHAR Sacute
ENCODING 346
SWIDTH 569 0
DWIDTH 15 0
BBX 14 26 1 0
BITMAP
01E0
03E0
0F80
1000
0000
0F98
3078
6038
4018
C018
E008
F800
FF00
7FE0
7FF0
3FF8
1FF8
03FC
003C
001C
801C
8008
C018
E018
F030
8FC0
ENDCHAR
STARTCHAR sacute
ENCODING 347
SWIDTH 429 0
DWIDTH 12 0
BBX 10 17 1 0
BITMAP
0780
0F80
3E00
0000
0000
3E80
6180
4080
E080
FC00
7F00
7F80
1FC0
81C0
C080
E180
9F00
ENDCHAR
STARTCHAR Scircumflex
ENCODING 348
SWIDTH 569 0
DWIDTH 15 0
BBX 14 26 1 0
BITMAP
0700
0F80
18E0
0000
0000
0F98
3078
6038
4018
C018
E008
F800
FF00
7FE0
7FF0
3FF8
1FF8
03FC
003C
001C
801C
8008
C018
E018
F030
8FC0
ENDCHAR
STARTCHAR scircumflex
ENCODING 349
SWIDTH 429 0
DWIDTH 12 0
BBX 10 17 1 0
BITMAP
1C00
3F00
6180
0000
0000
3E80
6180
4080
E080
FC00
7F00
7F80
1FC0
81C0
C080
E180
9F00
ENDCHAR
STARTCHAR Scedilla
ENCODING 350
SWIDTH 569 0
DWIDTH 15 0
BBX 14 27 1 -6
BITMAP
0F98
3078
6038
4018
C018
E008
F800
FF00
7FE0
7FF0
3FF8
1FF8
03FC
003C
001C
801C
8008
C018
E018
F030
8FC0
0200
0780
01C0
01C0
01C0
0F80
ENDCHAR
STARTCHAR scedilla
ENCODING 351
SWIDTH 429 0
DWIDTH 12 0
BBX 10 18 1 -6
BITMAP
3E80
6180
4080
E080
FC00
7F00
7F80
1FC0
81C0
C080
E180
BF00
0800
1E00
0700
0700
0700
3E00
ENDCHAR
STARTCHAR Scaron
ENCODING 352
SWIDTH 569 0
DWIDTH 15 0
BBX 14 26 1 0
BITMAP
6030
1FE0
0F80
0700
0000
0F98
3078
6038
4018
C018
E008
F800
FF00
7FE0
7FF0
3FF8
1FF8
03FC
003C
001C
801C
8008
C018
E018
F030
8FC0
ENDCHAR
STARTCHAR scaron
ENCODING 353
SWIDTH 429 0
DWIDTH 12 0
BBX 10 20 1 0
BITMAP
C080
7380
3F00
1E00
1C00
0000
0000
0000
3E80
6180
4080
E080
FC00
7F00
7F80
1FC0
81C0
C080
E180
9F00
ENDCHAR
STARTCHAR uni0162
ENCODING 354
SWIDTH 724 0
DWIDTH 20 0
BBX 19 27 0 -6
BITMAP
FFFFE0
F0F0E0
E0F060
C0F060
C0F020
C0F020
80F020
00F000
00F000
00F000
00F000
00F000
00F000
00F000
00F000
00F000
00F000
00F000
00F000
00F000
0FFE00
004000
00F000
003800
003800
003800
01F000
ENDCHAR
STARTCHAR uni0163
ENCODING 355
SWIDTH 354 0
DWIDTH 10 0
BBX 10 23 0 -6
BITMAP
0400
0C00
0C00
1C00
3C00
FF80
3C00
3C00
3C00
3C00
3C00
3C00
3C00
3C00
3C40
3F80
1F00
0800
1E00
0700
0700
0700
3E00
ENDCHAR
STARTCHAR Tcaron
ENCODING 356
SWIDTH 724 0
DWIDTH 20 0
BBX 19 26 0 0
BITMAP
0C0600
03FC00
01F000
00E000
000000
FFFFE0
F0F0E0
E0F060
C0F060
C0F020
C0F020
80F020
00F000
00F000
00F000
00F000
00F000
00F000
00F000
00F000
00F000
00F000
00F000
00F000
00F000
0FFE00
ENDCHAR
STARTCHAR tcaron
ENCODING 357
SWIDTH 379 0
DWIDTH 10 0
BBX 12 22 0 -1
BITMAP
00E0
00F0
01F0
00D0
0410
0C20
0C60
1C40
3C00
FF80
3C00
3C00
3C00
3C00
3C00
3C00
3C00
3C00
3C00
3C80
1F80
0400
ENDCHAR
STARTCHAR Tbar
ENCODING 358
SWIDTH 724 0
DWIDTH 20 0
BBX 19 21 0 0
BITMAP
FFFFE0
F0F0E0
E0F060
C0F060
C0F020
C0F020
80F020
00F000
00F000
0FFE00
00F000
00F000
00F000
00F000
00F000
00F000
00F000
00F000
00F000
00F000
0FFE00
ENDCHAR
STARTCHAR tbar
ENCODING 359
SWIDTH 354 0
DWIDTH 10 0
BBX 11 18 -1 -1
BITMAP
0200
0600
0600
0E00
1E00
7FC0
1E00
1E00
1E00
FFE0
1E00
1E00
1E00
1E00
1E00
1E40
0FC0
0200
ENDCHAR
STARTCHAR Utilde
ENCODING 360
SWIDTH 774 0
DWIDTH 21 0
BBX 21 28 0 0
BITMAP
000100
03FE00
03FE00
063C00
000000
000000
000000
FFC3F8
1E0040
1E0040
1E0040
1E0040
1E0040
1E0040
1E0040
1E0040
1E0040
1E0040
1E0040
1E0040
1E0040
1E0040
1E0040
1E0040
1F0080
0F0080
078300
01FE00
ENDCHAR
STARTCHAR utilde
ENCODING 361
SWIDTH 613 0
DWIDTH 17 0
BBX 16 19 0 0
BITMAP
0204
0FF8
0FF8
10F0
0000
0000
0000
FCFC
3C3C
3C3C
3C3C
3C3C
3C3C
3C3C
3C3C
3C3C
3C3C
1C7C
1FBF
ENDCHAR
STARTCHAR Umacron
ENCODING 362
SWIDTH 774 0
DWIDTH 21 0
BBX 21 25 0 0
BITMAP
03FE00
03FE00
000000
000000
FFC3F8
1E0040
1E0040
1E0040
1E0040
1E0040
1E0040
1E0040
1E0040
1E0040
1E0040
1E0040
1E0040
1E0040
1E0040
1E0040
1E0040
1F0080
0F0080
078300
01FE00
ENDCHAR
STARTCHAR umacron
ENCODING 363
SWIDTH 613 0
DWIDTH 17 0
BBX 16 19 0 0
BITMAP
0FF8
0FF8
0000
0000
0000
0000
0000
FCFC
3C3C
3C3C
3C3C
3C3C
3C3C
3C3C
3C3C
3C3C
3C3C
1C7C
1FBF
ENDCHAR
STARTCHAR Ubreve
ENCODING 364
SWIDTH 774 0
DWIDTH 21 0
BBX 21 27 0 0
BITMAP
030400
01FC00
01FC00
00F800
000000
000000
FFC3F8
1E0040
1E0040
1E0040
1E0040
1E0040
1E0040
1E0040
1E0040
1E0040
1E0040
1E0040
1E0040
1E0040
1E0040
1E0040
1E0040
1F0080
0F0080
078300
01FE00
ENDCHAR
STARTCHAR ubreve
ENCODING 365
SWIDTH 613 0
DWIDTH 17 0
BBX 16 18 0 0
BITMAP
0C10
0FF0
07F0
03C0
0000
0000
FCFC
3C3C
3C3C
3C3C
3C3C
3C3C
3C3C
3C3C
3C3C
3C3C
1C7C
1FBF
ENDCHAR
STARTCHAR Uring
ENCODING 366
SWIDTH 774 0
DWIDTH 21 0
BBX 21 28 0 0
BITMAP
007000
00F800
008800
00D800
00F000
000000
000000
FFC3F8
1E0040
1E0040
1E0040
1E0040
1E0040
1E0040
1E0040
1E0040
1E0040
1E0040
1E0040
1E0040
1E0040
1E0040
1E0040
1E0040
1F0080
0F0080
078300
01FE00
ENDCHAR
STARTCHAR uring
ENCODING 367
SWIDTH 613 0
DWIDTH 17 0
BBX 16 21 0 0
BITMAP
03C0
03C0
0660
0660
03C0
0000
0000
0000
0000
FCFC
3C3C
3C3C
3C3C
3C3C
3C3C
3C3C
3C3C
3C3C
3C3C
1C7C
1FBF
ENDCHAR
STARTCHAR Uhungarumlaut
ENCODING 368
SWIDTH 774 0
DWIDTH 21 0
BBX 21 26 0 0
BITMAP
000820
003CF0
007DF0
01E780
000000
FFC3F8
1E0040
1E0040
1E0040
1E0040
1E0040
1E0040
1E0040
1E0040
1E0040
1E0040
1E0040
1E0040
1E0040
1E0040
1E0040
1E0040
1F0080
0F0080
078300
01FE00
ENDCHAR
STARTCHAR uhungarumlaut
ENCODING 369
SWIDTH 613 0
DWIDTH 17 0
BBX 16 21 0 0
BITMAP
0E70
1E70
1CF0
39C0
7380
C200
0000
0000
0000
FCFC
3C3C
3C3C
3C3C
3C3C
3C3C
3C3C
3C3C
3C3C
3C3C
1C7C
1FBF
ENDCHAR
STARTCHAR Uogonek
ENCODING 370
SWIDTH 774 0
DWIDTH 21 0
BBX 21 27 0 -6
BITMAP
FFC3F8
1E0040
1E0040
1E0040
1E0040
1E0040
1E0040
1E0040
1E0040
1E0040
1E0040
1E0040
1E0040
1E0040
1E0040
1E0040
1E0040
1F0080
0F0080
07C300
01FE00
006000
00C000
00C000
01C000
00F000
00F000
ENDCHAR
STARTCHAR uogonek
ENCODING 371
SWIDTH 613 0
DWIDTH 17 0
BBX 16 18 0 -6
BITMAP
FCFC
3C3C
3C3C
3C3C
3C3C
3C3C
3C3C
3C3C
3C3C
3C3C
1C7C
1FBF
0018
0030
0070
0060
0060
007C
ENDCHAR
STARTCHAR Wcircumflex
ENCODING 372
SWIDTH 1019 0
DWIDTH 28 0
BBX 29 26 -1 0
BITMAP
00070000
000FC000
00186000
00000000
00000000
FFFFFDF8
1F1F1040
1F0F2040
0F0FA040
0F87A080
0F87C080
0787C080
07C3C100
07C3E100
03E3E100
03E1E200
01E3F200
01F3F400
01F4F400
00F4FC00
00FC7800
00F87800
00787800
00703000
00303000
00303000
ENDCHAR
STARTCHAR wcircumflex
ENCODING 373
SWIDTH 690 0
DWIDTH 19 0
BBX 19 18 0 -1
BITMAP
00E000
03F000
071800
000000
000000
FE23E0
783080
3C7080
3C7900
3EF900
1EF900
1EBE00
0F3E00
0F1E00
0E1C00
060C00
060800
000800
ENDCHAR
STARTCHAR Ycircumflex
ENCODING 374
SWIDTH 766 0
DWIDTH 21 0
BBX 20 26 0 0
BITMAP
007000
00F800
038C00
000000
000000
FFC3F0
3F0040
1F0080
0F8080
0FC100
07C100
07E200
03E200
01F400
01F400
00F800
00F800
007800
007800
007800
007800
007800
007800
007800
007800
07FF00
ENDCHAR
STARTCHAR ycircumflex
ENCODING 375
SWIDTH 501 0
DWIDTH 14 0
BBX 14 26 0 -9
BITMAP
0700
0FC0
1860
0000
0000
FE7C
7C10
3C20
3E20
1E20
1E40
0F40
0F80
0780
0780
0300
0300
0200
0200
0400
0400
0400
4800
F800
F000
E000
ENDCHAR
STARTCHAR Ydieresis
ENCODING 376
SWIDTH 766 0
DWIDTH 21 0
BBX 20 26 0 0
BITMAP
010000
039E00
03DE00
018C00
000000
FFC3F0
3F0040
1F0080
0F8080
0FC100
07C100
07E200
03E200
01F400
01F400
00F800
00F800
007800
007800
007800
007800
007800
007800
007800
007800
07FF00
ENDCHAR
STARTCHAR Zacute
ENCODING 377
SWIDTH 621 0
DWIDTH 17 0
BBX 17 26 0 0
BITMAP
007000
01F000
078000
000000
000000
3FFF80
381F00
301F00
203E00
207E00
207C00
00F800
00F800
01F000
03F000
03E000
07C000
07C000
0F8000
1F8100
1F0100
3E0100
3E0300
7C0300
7C0F00
FFFF00
ENDCHAR
STARTCHAR zacute
ENCODING 378
SWIDTH 476 0
DWIDTH 13 0
BBX 11 17 1 0
BITMAP
0380
0F80
3C00
0000
0000
7FE0
63E0
43C0
4780
0F80
0F00
1E00
3E20
7C20
7860
F060
FFE0
ENDCHAR
STARTCHAR Zdotaccent
ENCODING 379
SWIDTH 621 0
DWIDTH 17 0
BBX 17 26 0 0
BITMAP
008000
01C000
01C000
01C000
000000
3FFF80
381F00
301F00
203E00
207E00
207C00
00F800
00F800
01F000
03F000
03E000
07C000
07C000
0F8000
1F8100
1F0100
3E0100
3E0300
7C0300
7C0F00
FFFF00
ENDCHAR
STARTCHAR zdotaccent
ENCODING 380
SWIDTH 476 0
DWIDTH 13 0
BBX 11 19 1 0
BITMAP
0E00
1F00
1F00
0E00
0000
0000
0000
7FE0
63E0
43C0
4780
0F80
0F00
1E00
3E20
7C20
7860
F060
FFE0
ENDCHAR
STARTCHAR Zcaron
ENCODING 381
SWIDTH 621 0
DWIDTH 17 0
BBX 17 26 0 0
BITMAP
180C00
0FF000
03E000
01C000
000000
3FFF80
381F00
301F00
203E00
207E00
207C00
00F800
00F800
01F000
03F000
03E000
07C000
07C000
0F8000
1F8100
1F0100
3E0100
3E0300
7C0300
7C0F00
FFFF00
ENDCHAR
STARTCHAR zcaron
ENCODING 382
SWIDTH 476 0
DWIDTH 13 0
BBX 11 20 1 0
BITMAP
60C0
3180
3F80
1F00
0E00
0000
0000
0000
7FE0
63E0
43C0
4780
0F80
0F00
1E00
3E20
7C20
7860
F060
FFE0
ENDCHAR
STARTCHAR uni018F
ENCODING 399
SWIDTH 795 0
DWIDTH 21 0
BBX 19 21 1 0
BITMAP
03F000
060C00
180700
300780
2003C0
4003C0
4003E0
0003E0
0003E0
0003E0
0003E0
FFFFE0
F803E0
F803E0
F803C0
7803C0
780380
380780
1C0700
0E0E00
03F000
ENDCHAR
STARTCHAR florin
ENCODING 402
SWIDTH 435 0
DWIDTH 12 0
BBX 20 30 -6 -9
BITMAP
0003E0
000670
000C70
001C70
003C20
003C00
003800
007800
007800
01FF00
007800
007800
00F000
00F000
00F000
00F000
00F000
00F000
00E000
01E000
01E000
01E000
01E000
01C000
01C000
01C000
638000
F30000
670000
3C0000
ENDCHAR
STARTCHAR Ohorn
ENCODING 416
SWIDTH 823 0
DWIDTH 22 0
BBX 20 23 1 0
BITMAP
000300
000300
01FE00
070600
0C0380
1C0380
3C03C0
7801E0
7801E0
F801F0
F801F0
F801F0
F801F0
F801F0
F801F0
7801F0
7801E0
7801E0
3C03C0
1C0380
0C0380
060600
01F800
ENDCHAR
STARTCHAR ohorn
ENCODING 417
SWIDTH 589 0
DWIDTH 16 0
BBX 14 14 1 0
BITMAP
0018
0018
0FF8
3860
7870
7878
F078
F07C
F07C
F078
7878
7870
3860
0FC0
ENDCHAR
STARTCHAR Uhorn
ENCODING 431
SWIDTH 774 0
DWIDTH 21 0
BBX 22 23 0 0
BITMAP
00001C
000018
FFC3F0
1E0040
1E0040
1E0040
1E0040
1E0040
1E0040
1E0040
1E0040
1E0040
1E0040
1E0040
1E0040
1E0040
1E0040
1E0040
1E0040
1F0080
0F0080
078300
01FE00
ENDCHAR
STARTCHAR uhorn
ENCODING 432
SWIDTH 613 0
DWIDTH 17 0
BBX 17 14 0 0
BITMAP
000180
000180
FCFF80
3C3C00
3C3C00
3C3C00
3C3C00
3C3C00
3C3C00
3C3C00
3C3C00
3C3C00
1C7C00
1FBF00
ENDCHAR
STARTCHAR uni01C4
ENCODING 452
SWIDTH 1419 0
DWIDTH 38 0
BBX 37 26 1 0
BITMAP
00000080C0
0000007F80
0000003F00
0000001C00
0000000000
FFF803FFF8
3C0E03C0F8
3C070301F0
3C038303F0
3C03C203E0
3C03E207E0
3C03E007C0
3C03E00F80
3C01F00F80
3C01F01F00
3C01F03F00
3C01F03E00
3C01F07C00
3C03E07C00
3C03E0F808
3C03C1F808
3C03C1F018
3C0383E018
3C0703E038
3C0E07C078
FFF807FFF8
ENDCHAR
STARTCHAR uni01C5
ENCODING 453
SWIDTH 1274 0
DWIDTH 34 0
BBX 33 21 1 0
BITMAP
FFF8000000
3C0E000000
3C07000000
3C03800000
3C03C38700
3C03C1FC00
3C03E07800
3C03E03000
3C01E00000
3C01F3FF80
3C01F30F00
3C01F21E00
3C01F23E00
3C01E23C00
3C03E07800
3C03E0F800
3C03C0F000
3C0381E100
3C0703E100
3C0E03C300
FFF807FF00
ENDCHAR
STARTCHAR uni01C6
ENCODING 454
SWIDTH 1107 0
DWIDTH 30 0
BBX 28 21 1 0
BITMAP
01F80000
00383060
00381DC0
00380F80
00380700
00380700
00380000
00380000
00380000
0F383FF0
38B831F0
787821E0
787823C0
F07807C0
F0380780
F0380F00
F0781F10
78783E10
78783C30
38B87C30
0F3E7FF0
ENDCHAR
STARTCHAR uni01C7
ENCODING 455
SWIDTH 1236 0
DWIDTH 33 0
BBX 31 24 1 -3
BITMAP
FFC003FE
3C0000F0
3C0000F0
3C0000F0
3C0000F0
3C0000F0
3C0000F0
3C0000F0
3C0000F0
3C0000F0
3C0000F0
3C0000F0
3C0000F0
3C0000F0
3C0080F0
3C0080F0
3C0180F0
3C0180F0
3C0380F0
3C07BCF0
FFFFBCF0
00003CE0
00003DC0
00001F80
ENDCHAR
STARTCHAR uni01C8
ENCODING 456
SWIDTH 999 0
DWIDTH 27 0
BBX 24 30 1 -9
BITMAP
FFC000
3C000E
3C000F
3C000F
3C000E
3C0000
3C0000
3C0000
3C0000
3C003F
3C000F
3C000F
3C000F
3C000F
3C008F
3C008F
3C018F
3C018F
3C038F
3C078F
FFFF8F
00000F
00000F
00000F
00000F
00000E
0001EE
0001EC
0000CC
000070
ENDCHAR
STARTCHAR uni01C9
ENCODING 457
SWIDTH 647 0
DWIDTH 17 0
BBX 14 30 1 -9
BITMAP
F800
381C
383C
383C
381C
3800
3800
3800
3800
38FC
381C
381C
381C
381C
381C
381C
381C
381C
381C
381C
FE1C
001C
001C
001C
001C
011C
0398
03B8
03B0
01E0
ENDCHAR
STARTCHAR uni01CA
ENCODING 458
SWIDTH 1177 0
DWIDTH 32 0
BBX 30 24 1 -3
BITMAP
FF07F7FC
3F0081F0
3F8081F0
3FC081F0
37E081F0
37E081F0
33F081F0
31F881F0
31F881F0
30FC81F0
307E81F0
307E81F0
303F81F0
301F81F0
301F81F0
300F81F0
300781F0
300781F0
300381F0
3001B9E0
FE01F9E0
000079E0
000039C0
00001F00
ENDCHAR
STARTCHAR uni01CB
ENCODING 459
SWIDTH 1109 0
DWIDTH 30 0
BBX 27 30 1 -9
BITMAP
FF07F000
3F0081C0
3F8081E0
3FC081E0
37C081C0
37E08000
33F08000
31F08000
31F88000
30FC87E0
307C81E0
307E81E0
303F81E0
301F81E0
301F81E0
300F81E0
300781E0
300781E0
300381E0
300181E0
FE0181E0
000001E0
000001E0
000001E0
000001E0
000001C0
00003DC0
00003D80
00001980
00000E00
ENDCHAR
STARTCHAR uni01CC
ENCODING 460
SWIDTH 932 0
DWIDTH 25 0
BBX 22 28 1 -9
BITMAP
000018
00003C
00003C
00003C
000000
000000
000000
F9F0FC
3B783C
3A3C3C
3C3C3C
3C3C3C
383C3C
383C3C
383C3C
383C3C
383C3C
383C3C
FEFE3C
00003C
00003C
00003C
00003C
00003C
0003B8
0007B8
0003B0
0001E0
ENDCHAR
STARTCHAR uni01EA
ENCODING 490
SWIDTH 823 0
DWIDTH 22 0
BBX 20 27 1 -6
BITMAP
01F800
070600
0C0380
1C03C0
3C03C0
7801E0
7801E0
F801F0
F801F0
F801F0
F801F0
F801F0
F801F0
F801F0
7801E0
7801E0
3C03C0
1C03C0
0C0380
060600
01F800
00C000
018000
038000
030000
03A000
01C000
ENDCHAR
STARTCHAR uni01EB
ENCODING 491
SWIDTH 589 0
DWIDTH 16 0
BBX 15 18 0 -6
BITMAP
07E0
1C30
3C38
3C3C
783C
783E
783E
783C
3C3C
3C38
1C30
1FE0
3000
6000
6000
E000
E000
7800
ENDCHAR
STARTCHAR uni01F1
ENCODING 497
SWIDTH 1419 0
DWIDTH 38 0
BBX 37 21 1 0
BITMAP
FFF803FFF8
3C0E03C0F8
3C070301F0
3C038303F0
3C03C203E0
3C03E207E0
3C03E007C0
3C03E00F80
3C01F00F80
3C01F01F00
3C01F03F00
3C01F03E00
3C01F07C00
3C03E07C00
3C03E0F808
3C03C1F808
3C03C1F018
3C0383E018
3C0703E038
3C0E07C078
FFF807FFF8
ENDCHAR
STARTCHAR uni01F2
ENCODING 498
SWIDTH 1274 0
DWIDTH 34 0
BBX 33 21 1 0
BITMAP
FFF8000000
3C0E000000
3C07000000
3C03800000
3C03C00000
3C03C00000
3C03E00000
3C03E00000
3C01E00000
3C01F3FF80
3C01F30F00
3C01F21E00
3C01F23E00
3C01E23C00
3C03E07800
3C03E0F800
3C03C0F000
3C0381E100
3C0703E100
3C0E03C300
FFF807FF00
ENDCHAR
STARTCHAR uni01F3
ENCODING 499
SWIDTH 1107 0
DWIDTH 30 0
BBX 28 21 1 0
BITMAP
01F80000
00380000
00380000
00380000
00380000
00380000
00380000
00380000
00380000
0F383FF0
38B831F0
787821E0
787823C0
F07807C0
F0380780
F0380F00
F0781F10
78783E10
78783C30
38B87C30
0F3E7FF0
ENDCHAR
STARTCHAR uni01F4
ENCODING 500
SWIDTH 790 0
DWIDTH 21 0
BBX 20 26 1 0
BITMAP
003C00
007800
01F000
020000
000000
01F880
070780
0E0380
1E0180
3C0180
3C0080
7C0080
7C0000
7C0000
F80000
F80000
F80000
F80000
7C3FF0
7C07C0
7C07C0
3C07C0
3C0780
1E0700
070E00
01F800
ENDCHAR
STARTCHAR uni01F5
ENCODING 501
SWIDTH 565 0
DWIDTH 15 0
BBX 15 26 1 -9
BITMAP
01C0
03E0
0F80
1000
0000
0F8C
38FE
78F4
78F0
78F0
78F0
78E0
38E0
3F80
4000
C000
FFF0
FFF8
3FF8
3018
6008
E008
E018
E010
7060
1F80
ENDCHAR
STARTCHAR Aringacute
ENCODING 506
SWIDTH 715 0
DWIDTH 19 0
BBX 20 30 0 0
BITMAP
000300
000F80
001F00
00F800
009800
009800
00F000
000000
000000
002000
006000
007000
007000
00F000
00F800
01F800
017800
017C00
027C00
023C00
043E00
043E00
041E00
0FFF00
080F00
100F80
100F80
100780
2007C0
FC3FF0
ENDCHAR
STARTCHAR aringacute
ENCODING 507
SWIDTH 541 0
DWIDTH 15 0
BBX 13 22 1 0
BITMAP
0070
01F0
07E0
0F80
0880
0980
0F80
0200
0000
0000
1F80
31E0
70E0
78E0
20E0
0FE0
38E0
70E0
F0E0
F1E0
7EF8
3C70
ENDCHAR
STARTCHAR AEacute
ENCODING 508
SWIDTH 1131 0
DWIDTH 31 0
BBX 30 26 0 0
BITMAP
0001E000
0003E000
000F0000
00000000
00000000
003FFFF8
000DE038
0009E018
0019E008
0011E008
0031E000
0021E000
0061E080
0041E180
00C1E380
0081FF80
0181E380
0101E180
0301E080
03FFE08C
0601E00C
0401E00C
0C01E00C
0801E01C
1001E03C
FE0FFFFC
ENDCHAR
STARTCHAR aeacute
ENCODING 509
SWIDTH 816 0
DWIDTH 22 0
BBX 19 17 1 0
BITMAP
003800
007800
01F000
020000
000000
1F8F00
31F1C0
78F0E0
78E0E0
00FFE0
0FE000
38E000
70E000
F0F020
F17020
7F30C0
3C0F00
ENDCHAR
STARTCHAR Oslashacute
ENCODING 510
SWIDTH 823 0
DWIDTH 22 0
BBX 20 27 1 -1
BITMAP
000E00
001E00
007C00
00C000
0000C0
01F880
070780
0C0380
1C03C0
3C07C0
7805E0
780DE0
F819F0
F811F0
F831F0
F861F0
F841F0
F8C1F0
7981F0
7901E0
7B01E0
3E03C0
1C0380
0C0380
0F0600
11F800
300000
ENDCHAR
STARTCHAR oslashacute
ENCODING 511
SWIDTH 589 0
DWIDTH 16 0
BBX 14 18 1 -1
BITMAP
00E0
03E0
07C0
0800
0008
0FD8
3870
7870
78F8
F0F8
F17C
F27C
F678
7C78
7870
3860
2FC0
4000
ENDCHAR
STARTCHAR uni0200
ENCODING 512
SWIDTH 715 0
DWIDTH 19 0
BBX 20 26 0 0
BITMAP
0C3000
1E7800
0FBE00
01E780
000000
002000
006000
007000
007000
00F000
00F800
01F800
017800
017C00
027C00
023C00
043E00
043E00
041E00
0FFF00
080F00
100F80
100F80
100780
2007C0
FC3FF0
ENDCHAR
STARTCHAR uni0201
ENCODING 513
SWIDTH 541 0
DWIDTH 15 0
BBX 13 21 1 0
BITMAP
6300
F380
7BC0
38E0
0C70
0610
0000
0000
0000
1F80
31E0
70E0
78E0
20E0
0FE0
38E0
70E0
F0E0
F1E0
7EF8
3C70
ENDCHAR
STARTCHAR uni0202
ENCODING 514
SWIDTH 715 0
DWIDTH 19 0
BBX 20 25 0 0
BITMAP
01FC00
03FC00
030600
000000
002000
006000
007000
007000
00F000
00F800
01F800
017800
017C00
027C00
023C00
043E00
043E00
041E00
0FFF00
080F00
100F80
100F80
100780
2007C0
FC3FF0
ENDCHAR
STARTCHAR uni0203
ENCODING 515
SWIDTH 541 0
DWIDTH 15 0
BBX 13 19 1 0
BITMAP
0F80
1FC0
3FC0
2060
2020
0000
0000
1F80
31E0
70E0
78E0
20E0
0FE0
38E0
70E0
F0E0
F1E0
7EF8
3C70
ENDCHAR
STARTCHAR uni0204
ENCODING 516
SWIDTH 696 0
DWIDTH 19 0
BBX 17 26 1 0
BITMAP
30C000
79E000
3EF800
079E00
000000
FFFF00
3C0700
3C0300
3C0100
3C0100
3C0000
3C0000
3C1000
3C1000
3C3000
3FF000
3C7000
3C1000
3C1000
3C1080
3C0080
3C0180
3C0180
3C0380
3C0780
FFFF80
ENDCHAR
STARTCHAR uni0205
ENCODING 517
SWIDTH 537 0
DWIDTH 15 0
BBX 13 21 1 0
BITMAP
E300
F380
7BC0
38E0
0C70
0630
0000
0000
0000
0F80
18E0
3870
7870
F070
FFF0
F000
F000
7008
7810
3820
0FC0
ENDCHAR
STARTCHAR uni0206
ENCODING 518
SWIDTH 696 0
DWIDTH 19 0
BBX 17 25 1 0
BITMAP
07F000
0FF000
0C1800
000000
FFFF00
3C0700
3C0300
3C0100
3C0100
3C0000
3C0000
3C1000
3C1000
3C3000
3FF000
3C7000
3C1000
3C1000
3C1080
3C0080
3C0180
3C0180
3C0380
3C0780
FFFF80
ENDCHAR
STARTCHAR uni0207
ENCODING 519
SWIDTH 537 0
DWIDTH 15 0
BBX 13 19 1 0
BITMAP
0F00
1FC0
3FC0
2060
2020
0000
0000
0F80
18E0
3870
7870
F070
FFF0
F000
F000
7008
7810
3820
0FC0
ENDCHAR
STARTCHAR uni0208
ENCODING 520
SWIDTH 386 0
DWIDTH 10 0
BBX 13 26 -2 0
BITMAP
4100
F3C0
7DF0
0E38
0000
1FF0
0780
0780
0780
0780
0780
0780
0780
0780
0780
0780
0780
0780
0780
0780
0780
0780
0780
0780
0780
1FF0
ENDCHAR
STARTCHAR uni0209
ENCODING 521
SWIDTH 319 0
DWIDTH 9 0
BBX 12 21 -2 0
BITMAP
6300
F380
7BC0
38E0
0C70
0610
0000
0000
0000
1F00
0700
0700
0700
0700
0700
0700
0700
0700
0700
0700
1FC0
ENDCHAR
STARTCHAR uni020A
ENCODING 522
SWIDTH 386 0
DWIDTH 10 0
BBX 9 25 1 0
BITMAP
7F00
FF00
8180
0000
FF80
3C00
3C00
3C00
3C00
3C00
3C00
3C00
3C00
3C00
3C00
3C00
3C00
3C00
3C00
3C00
3C00
3C00
3C00
3C00
FF80
ENDCHAR
STARTCHAR uni020B
ENCODING 523
SWIDTH 319 0
DWIDTH 9 0
BBX 9 20 0 0
BITMAP
0800
7E00
FF00
C180
8180
0000
0000
0000
7C00
1C00
1C00
1C00
1C00
1C00
1C00
1C00
1C00
1C00
1C00
7F00
ENDCHAR
STARTCHAR uni020C
ENCODING 524
SWIDTH 823 0
DWIDTH 22 0
BBX 20 26 1 0
BITMAP
082000
1E7800
1FFE00
01C700
000000
01F800
070600
0C0380
1C03C0
3C03C0
7801E0
7801E0
F801F0
F801F0
F801F0
F801F0
F801F0
F801F0
7801F0
7801E0
7801E0
3C03C0
1C0380
0C0380
060600
01F800
ENDCHAR
STARTCHAR uni020D
ENCODING 525
SWIDTH 589 0
DWIDTH 16 0
BBX 14 21 1 0
BITMAP
7180
7BC0
39E0
1CE0
0E30
0318
0000
0000
0000
0FC0
3860
7870
7878
F078
F07C
F07C
F078
7878
7870
3860
0FC0
ENDCHAR
STARTCHAR uni020E
ENCODING 526
SWIDTH 823 0
DWIDTH 22 0
BBX 20 25 1 0
BITMAP
01F800
03FC00
020600
000000
01F800
070600
0C0380
1C03C0
3C03C0
7801E0
7801E0
F801F0
F801F0
F801F0
F801F0
F801F0
F801F0
7801F0
7801E0
7801E0
3C03C0
1C0380
0C0380
060600
01F800
ENDCHAR
STARTCHAR uni020F
ENCODING 527
SWIDTH 589 0
DWIDTH 16 0
BBX 14 19 1 0
BITMAP
0780
1FC0
1FE0
1020
3020
0000
0000
0FC0
3860
7870
7878
F078
F07C
F07C
F078
7878
7870
3860
0FC0
ENDCHAR
STARTCHAR uni0210
ENCODING 528
SWIDTH 740 0
DWIDTH 20 0
BBX 19 26 1 0
BITMAP
104000
3CF000
3FFC00
038E00
000000
FFFC00
3C1F00
3C0F80
3C0F80
3C0F80
3C0F80
3C0F80
3C0F00
3C1E00
3FF800
3C3800
3C1C00
3C1E00
3C1F00
3C1F00
3C1F00
3C1F00
3C1F80
3C0F80
3C0F80
FFC3E0
ENDCHAR
STARTCHAR uni0211
ENCODING 529
SWIDTH 506 0
DWIDTH 14 0
BBX 12 21 1 0
BITMAP
E700
E780
F3C0
39C0
1C60
0430
0000
0000
0000
F9E0
3BF0
3EF0
3CF0
3C60
3800
3800
3800
3800
3800
3800
FE00
ENDCHAR
STARTCHAR uni0212
ENCODING 530
SWIDTH 740 0
DWIDTH 20 0
BBX 19 25 1 0
BITMAP
03F000
07F800
040800
000000
FFFC00
3C1F00
3C0F80
3C0F80
3C0F80
3C0F80
3C0F80
3C0F00
3C1E00
3FF800
3C3800
3C1C00
3C1E00
3C1F00
3C1F00
3C1F00
3C1F00
3C1F80
3C0F80
3C0F80
FFC3E0
ENDCHAR
STARTCHAR uni0213
ENCODING 531
SWIDTH 506 0
DWIDTH 14 0
BBX 12 19 1 0
BITMAP
0F00
3F80
3FC0
6040
6040
0000
0000
F9E0
3BF0
3EF0
3CF0
3C60
3800
3800
3800
3800
3800
3800
FE00
ENDCHAR
STARTCHAR uni0214
ENCODING 532
SWIDTH 774 0
DWIDTH 21 0
BBX 21 26 0 0
BITMAP
0C3000
1F7C00
0FBE00
01E780
000000
FFC3F8
1E0040
1E0040
1E0040
1E0040
1E0040
1E0040
1E0040
1E0040
1E0040
1E0040
1E0040
1E0040
1E0040
1E0040
1E0040
1E0040
1F0080
0F0080
078300
01FE00
ENDCHAR
STARTCHAR uni0215
ENCODING 533
SWIDTH 613 0
DWIDTH 17 0
BBX 16 21 0 0
BITMAP
18C0
3CE0
1EF0
0E38
031C
0184
0000
0000
0000
FCFC
3C3C
3C3C
3C3C
3C3C
3C3C
3C3C
3C3C
3C3C
3C3C
1C7C
1FBF
ENDCHAR
STARTCHAR uni0216
ENCODING 534
SWIDTH 774 0
DWIDTH 21 0
BBX 21 25 0 0
BITMAP
007E00
00FF00
008180
000000
FFC3F8
1E0040
1E0040
1E0040
1E0040
1E0040
1E0040
1E0040
1E0040
1E0040
1E0040
1E0040
1E0040
1E0040
1E0040
1E0040
1E0040
1F0080
0F0080
078300
01FE00
ENDCHAR
STARTCHAR uni0217
ENCODING 535
SWIDTH 613 0
DWIDTH 17 0
BBX 16 20 0 0
BITMAP
0180
07E0
0FF0
0C18
0818
0000
0000
0000
FCFC
3C3C
3C3C
3C3C
3C3C
3C3C
3C3C
3C3C
3C3C
3C3C
1C7C
1FBF
ENDCHAR
STARTCHAR Scommaaccent
ENCODING 536
SWIDTH 569 0
DWIDTH 15 0
BBX 14 30 1 -9
BITMAP
0F98
3078
6038
4018
C018
E008
F800
FF00
7FE0
7FF0
3FF8
1FF8
03FC
003C
001C
801C
8008
C018
E018
F030
8FC0
0000
0000
0700
0F80
0780
0080
0180
0300
0600
ENDCHAR
STARTCHAR scommaaccent
ENCODING 537
SWIDTH 429 0
DWIDTH 12 0
BBX 10 21 1 -9
BITMAP
3E80
6180
4080
E080
FC00
7F00
7F80
1FC0
81C0
C080
E180
9F00
0000
0000
1C00
1E00
1E00
0200
0200
0400
1800
ENDCHAR
STARTCHAR uni021A
ENCODING 538
SWIDTH 724 0
DWIDTH 20 0
BBX 19 30 0 -9
BITMAP
FFFFE0
F0F0E0
E0F060
C0F060
C0F020
C0F020
80F020
00F000
00F000
00F000
00F000
00F000
00F000
00F000
00F000
00F000
00F000
00F000
00F000
00F000
0FFE00
000000
000000
00E000
00F000
00F000
001000
001000
006000
00C000
ENDCHAR
STARTCHAR uni021B
ENCODING 539
SWIDTH 354 0
DWIDTH 10 0
BBX 9 26 0 -9
BITMAP
0400
0C00
0C00
1C00
3C00
FF80
3C00
3C00
3C00
3C00
3C00
3C00
3C00
3C00
3C00
3C80
1F80
0400
0000
0000
1C00
1E00
1A00
0200
0400
1800
ENDCHAR
STARTCHAR uni0237
ENCODING 567
SWIDTH 318 0
DWIDTH 9 0
BBX 8 21 -2 -9
BITMAP
3F
07
07
07
07
07
07
07
07
07
07
07
07
07
07
07
07
E7
E6
EC
78
ENDCHAR
STARTCHAR uni0259
ENCODING 601
SWIDTH 537 0
DWIDTH 15 0
BBX 12 12 1 0
BITMAP
1F00
61C0
40E0
80E0
00F0
00F0
00F0
FFF0
F0F0
70E0
71C0
1F00
ENDCHAR
STARTCHAR uni02BC
ENCODING 700
SWIDTH 186 0
DWIDTH 5 0
BBX 5 7 0 14
BITMAP
70
F0
F8
68
18
10
20
ENDCHAR
STARTCHAR circumflex
ENCODING 710
SWIDTH 384 0
DWIDTH 10 0
BBX 9 5 1 16
BITMAP
1800
3C00
7E00
6700
C380
ENDCHAR
STARTCHAR caron
ENCODING 711
SWIDTH 384 0
DWIDTH 10 0
BBX 9 5 1 16
BITMAP
8180
E700
7E00
3C00
1C00
ENDCHAR
STARTCHAR uni02C9
ENCODING 713
SWIDTH 360 0
DWIDTH 10 0
BBX 9 2 0 17
BITMAP
FF80
FF80
ENDCHAR
STARTCHAR breve
ENCODING 728
SWIDTH 353 0
DWIDTH 10 0
BBX 9 5 0 15
BITMAP
8080
C180
7F80
7F00
1E00
ENDCHAR
STARTCHAR dotaccent
ENCODING 729
SWIDTH 181 0
DWIDTH 5 0
BBX 5 4 0 16
BITMAP
70
F0
F8
70
ENDCHAR
STARTCHAR ring
ENCODING 730
SWIDTH 224 0
DWIDTH 6 0
BBX 6 5 0 16
BITMAP
78
78
CC
CC
78
ENDCHAR
STARTCHAR ogonek
ENCODING 731
SWIDTH 249 0
DWIDTH 7 0
BBX 5 6 0 -6
BITMAP
18
30
60
E0
E0
78
ENDCHAR
STARTCHAR tilde
ENCODING 732
SWIDTH 412 0
DWIDTH 11 0
BBX 11 4 0 16
BITMAP
0020
3FC0
7FC0
C780
ENDCHAR
STARTCHAR hungarumlaut
ENCODING 733
SWIDTH 468 0
DWIDTH 13 0
BBX 12 6 0 15
BITMAP
0E70
1E70
1CF0
39C0
7380
C200
ENDCHAR
STARTCHAR gravecomb
ENCODING 768
SWIDTH 0 0
DWIDTH 0 0
BBX 7 4 -13 15
BITMAP
C0
F0
F8
1E
ENDCHAR
STARTCHAR acutecomb
ENCODING 769
SWIDTH 0 0
DWIDTH 0 0
BBX 7 4 -9 14
BITMAP
04
1E
3E
F0
ENDCHAR
STARTCHAR uni0302
ENCODING 770
SWIDTH 0 0
DWIDTH 0 0
BBX 8 3 -12 14
BITMAP
38
7E
C3
ENDCHAR
STARTCHAR tildecomb
ENCODING 771
SWIDTH 0 0
DWIDTH 0 0
BBX 10 4 -13 15
BITMAP
3840
7FC0
FFC0
8780
ENDCHAR
STARTCHAR uni0306
ENCODING 774
SWIDTH 0 0
DWIDTH 0 0
BBX 8 4 -12 14
BITMAP
81
FF
7E
3C
ENDCHAR
STARTCHAR hookabovecomb
ENCODING 777
SWIDTH 0 0
DWIDTH 0 0
BBX 6 5 -12 14
BITMAP
78
4C
C4
6C
18
ENDCHAR
STARTCHAR uni030F
ENCODING 783
SWIDTH 0 0
DWIDTH 0 0
BBX 12 6 -12 15
BITMAP
C700
E780
F380
39C0
1CE0
0430
ENDCHAR
STARTCHAR uni0311
ENCODING 785
SWIDTH 0 0
DWIDTH 0 0
BBX 9 5 -9 15
BITMAP
1800
7E00
FF00
C180
8180
ENDCHAR
STARTCHAR uni031B
ENCODING 795
SWIDTH 0 0
DWIDTH 0 0
BBX 4 3 -10 13
BITMAP
30
30
E0
ENDCHAR
STARTCHAR dotbelowcomb
ENCODING 803
SWIDTH 0 0
DWIDTH 0 0
BBX 4 4 -10 -7
BITMAP
E0
F0
F0
E0
ENDCHAR
STARTCHAR uni0326
ENCODING 806
SWIDTH 0 0
DWIDTH 0 0
BBX 5 7 -5 -9
BITMAP
70
F0
F8
08
10
30
40
ENDCHAR
STARTCHAR uni0335
ENCODING 821
SWIDTH 0 0
DWIDTH 0 0
BBX 11 1 -12 0
BITMAP
FFE0
ENDCHAR
STARTCHAR uni0394
ENCODING 916
SWIDTH 727 0
DWIDTH 20 0
BBX 18 20 1 0
BITMAP
00C000
01C000
01E000
03E000
03E000
03F000
07F000
06F800
0CF800
0C7C00
087C00
183C00
103E00
303E00
301F00
601F00
600F80
400F80
FFFF80
FFFFC0
ENDCHAR
STARTCHAR uni03A9
ENCODING 937
SWIDTH 812 0
DWIDTH 22 0
BBX 20 20 1 0
BITMAP
01F800
070E00
1E0780
3E0780
3C03C0
7C03C0
7C03E0
7C03E0
7C03E0
7C03E0
7C03E0
7C03C0
3C03C0
3C0780
1E0700
8E0610
C30C30
FF0FE0
FF1FE0
7F9FE0
ENDCHAR
STARTCHAR uni03BC
ENCODING 956
SWIDTH 613 0
DWIDTH 17 0
BBX 16 19 0 -7
BITMAP
FCFC
3C3C
3C3C
3C3C
3C3C
3C3C
3C3C
3C3C
3C3C
3C3C
3C7C
3FBF
3000
3000
3000
3000
3800
7800
3800
ENDCHAR
STARTCHAR pi
ENCODING 960
SWIDTH 652 0
DWIDTH 18 0
BBX 16 14 1 0
BITMAP
0001
3FFF
7FFE
FFFE
8878
0878
0878
1878
1878
1878
1878
3878
307E
707C
ENDCHAR
STARTCHAR uni1E0C
ENCODING 7692
SWIDTH 798 0
DWIDTH 22 0
BBX 20 28 1 -7
BITMAP
FFF800
3C0E00
3C0700
3C0380
3C03C0
3C03E0
3C03E0
3C03E0
3C01F0
3C01F0
3C01F0
3C01F0
3C01F0
3C03E0
3C03E0
3C03C0
3C03C0
3C0380
3C0700
3C0E00
FFF800
000000
000000
000000
00E000
00F000
00F000
00E000
ENDCHAR
STARTCHAR uni1E0D
ENCODING 7693
SWIDTH 631 0
DWIDTH 17 0
BBX 15 28 1 -7
BITMAP
01F8
0038
0038
0038
0038
0038
0038
0038
0038
0F38
38B8
7878
7878
F078
F038
F038
F078
7878
7878
38B8
0F3E
0000
0000
0000
0380
07C0
07C0
0380
ENDCHAR
STARTCHAR uni1E24
ENCODING 7716
SWIDTH 826 0
DWIDTH 22 0
BBX 21 28 1 -7
BITMAP
FF9FF8
3C03C0
3C03C0
3C03C0
3C03C0
3C03C0
3C03C0
3C03C0
3C03C0
3C03C0
3FFFC0
3C03C0
3C03C0
3C03C0
3C03C0
3C03C0
3C03C0
3C03C0
3C03C0
3C03C0
FF9FF8
000000
000000
000000
00F000
00F000
00F000
006000
ENDCHAR
STARTCHAR uni1E25
ENCODING 7717
SWIDTH 619 0
DWIDTH 17 0
BBX 15 28 1 -7
BITMAP
F800
3800
3800
3800
3800
3800
3800
3800
3800
39F0
3B78
3A3C
3C3C
3C3C
383C
383C
383C
383C
383C
383C
FEFE
0000
0000
0000
0380
0780
0780
0380
ENDCHAR
STARTCHAR uni1E44
ENCODING 7748
SWIDTH 791 0
DWIDTH 21 0
BBX 20 26 1 0
BITMAP
004000
00E000
00E000
00E000
000000
FF07F0
3F0080
3F8080
3FC080
37E080
37E080
33F080
31F880
31F880
30FC80
307E80
307E80
303F80
301F80
301F80
300F80
300780
300780
300380
300180
FE0180
ENDCHAR
STARTCHAR uni1E45
ENCODING 7749
SWIDTH 614 0
DWIDTH 17 0
BBX 15 19 1 0
BITMAP
0380
0780
0780
0380
0000
0000
0000
F9F0
3B78
3A3C
3C3C
3C3C
383C
383C
383C
383C
383C
383C
FEFE
ENDCHAR
STARTCHAR uni1E5A
ENCODING 7770
SWIDTH 740 0
DWIDTH 20 0
BBX 19 28 1 -7
BITMAP
FFFC00
3C1F00
3C0F80
3C0F80
3C0F80
3C0F80
3C0F80
3C0F00
3C1E00
3FF800
3C3800
3C1C00
3C1E00
3C1F00
3C1F00
3C1F00
3C1F00
3C1F80
3C0F80
3C0F80
FFC3E0
000000
000000
000000
01E000
01E000
01E000
00C000
ENDCHAR
STARTCHAR uni1E5B
ENCODING 7771
SWIDTH 506 0
DWIDTH 14 0
BBX 12 19 1 -7
BITMAP
F9E0
3BF0
3CF0
3CF0
3C60
3800
3800
3800
3800
3800
3800
FE00
0000
0000
0000
0E00
0F00
0F00
0E00
ENDCHAR
STARTCHAR uni1E62
ENCODING 7778
SWIDTH 569 0
DWIDTH 15 0
BBX 14 28 1 -7
BITMAP
0F98
3078
6038
4018
C018
E008
F800
FF00
7FE0
7FF0
3FF8
1FF8
03FC
003C
001C
801C
8008
C018
E018
F030
8FC0
0000
0000
0000
0700
0780
0780
0700
ENDCHAR
STARTCHAR uni1E63
ENCODING 7779
SWIDTH 429 0
DWIDTH 12 0
BBX 10 19 1 -7
BITMAP
3E80
6180
4080
E080
FC00
7F00
7F80
1FC0
81C0
C080
E180
9F00
0000
0000
0000
1C00
1E00
1E00
1C00
ENDCHAR
STARTCHAR uni1E6C
ENCODING 7788
SWIDTH 724 0
DWIDTH 20 0
BBX 19 28 0 -7
BITMAP
FFFFE0
F0F0E0
E0F060
C0F060
C0F020
C0F020
80F020
00F000
00F000
00F000
00F000
00F000
00F000
00F000
00F000
00F000
00F000
00F000
00F000
00F000
0FFE00
000000
000000
000000
00E000
00F000
00F000
00E000
ENDCHAR
STARTCHAR uni1E6D
ENCODING 7789
SWIDTH 354 0
DWIDTH 10 0
BBX 9 24 0 -7
BITMAP
0400
0C00
0C00
1C00
3C00
FF80
3C00
3C00
3C00
3C00
3C00
3C00
3C00
3C00
3C00
3C80
1F80
0400
0000
0000
1C00
1E00
1E00
1C00
ENDCHAR
STARTCHAR Wgrave
ENCODING 7808
SWIDTH 1019 0
DWIDTH 28 0
BBX 29 27 -1 0
BITMAP
001C0000
001F0000
000F8000
00006000
00000000
00000000
FFFFFDF8
1F1F1040
1F0F2040
0F0FA040
0F87A080
0F87C080
0787C080
07C3C100
07C3E100
03E3E100
03E1E200
01E3F200
01F3F400
01F4F400
00F4FC00
00FC7800
00F87800
00787800
00703000
00303000
00303000
ENDCHAR
STARTCHAR wgrave
ENCODING 7809
SWIDTH 690 0
DWIDTH 19 0
BBX 19 19 0 -1
BITMAP
078000
07C000
01F000
000800
000000
000000
FE23E0
783080
3C7080
3C7900
3EF900
1EF900
1EBE00
0F3E00
0F1E00
0E1C00
060C00
060800
000800
ENDCHAR
STARTCHAR Wacute
ENCODING 7810
SWIDTH 1019 0
DWIDTH 28 0
BBX 29 26 -1 0
BITMAP
0001E000
0007C000
000F0000
00000000
00000000
FFFFFDF8
1F1F1040
1F0F2040
0F0FA040
0F87A080
0F87C080
0787C080
07C3C100
07C3E100
03E3E100
03E1E200
01E3F200
01F3F400
01F4F400
00F4FC00
00FC7800
00F87800
00787800
00703000
00303000
00303000
ENDCHAR
STARTCHAR wacute
ENCODING 7811
SWIDTH 690 0
DWIDTH 19 0
BBX 19 18 0 -1
BITMAP
007800
00F800
03C000
000000
000000
FE23E0
783080
3C7080
3C7900
3EF900
1EF900
1EBE00
0F3E00
0F1E00
0E1C00
060C00
060800
000800
ENDCHAR
STARTCHAR Wdieresis
ENCODING 7812
SWIDTH 1019 0
DWIDTH 28 0
BBX 29 26 -1 0
BITMAP
00084000
001CE000
003CE000
0018E000
00000000
FFFFFDF8
1F1F1040
1F0F2040
0F0FA040
0F87A080
0F87C080
0787C080
07C3C100
07C3E100
03E3E100
03E1E200
01E3F200
01F3F400
01F4F400
00F4FC00
00FC7800
00F87800
00787800
00703000
00303000
00303000
ENDCHAR
STARTCHAR wdieresis
ENCODING 7813
SWIDTH 690 0
DWIDTH 19 0
BBX 19 20 0 -1
BITMAP
07BC00
07BC00
031800
000000
000000
000000
000000
FE23E0
783080
3C7080
3C7900
3EF900
1EF900
1EBE00
0F3E00
0F1E00
0E1C00
060C00
060800
000800
ENDCHAR
STARTCHAR uni1E92
ENCODING 7826
SWIDTH 621 0
DWIDTH 17 0
BBX 17 28 0 -7
BITMAP
3FFF80
381F00
301F00
203E00
207E00
207C00
00F800
00F800
01F000
03F000
03E000
07C000
07C000
0F8000
1F8100
1F0100
3E0100
3E0300
7C0300
7C0F00
FFFF00
000000
000000
000000
01C000
03E000
03C000
01C000
ENDCHAR
STARTCHAR uni1E93
ENCODING 7827
SWIDTH 476 0
DWIDTH 13 0
BBX 11 19 1 -7
BITMAP
7FE0
63E0
43C0
4780
0F80
0F00
1E00
3E20
7C20
7860
F060
FFE0
0000
0000
0000
0E00
1F00
1E00
0E00
ENDCHAR
STARTCHAR uni1EA0
ENCODING 7840
SWIDTH 715 0
DWIDTH 19 0
BBX 20 28 0 -7
BITMAP
002000
006000
007000
007000
00F000
00F800
01F800
017800
017C00
027C00
023C00
043E00
043E00
041E00
0FFF00
080F00
100F80
100F80
100780
2007C0
FC3FF0
000000
000000
000000
00E000
01F000
00F000
00E000
ENDCHAR
STARTCHAR uni1EA1
ENCODING 7841
SWIDTH 541 0
DWIDTH 15 0
BBX 13 19 1 -7
BITMAP
1F80
31E0
70E0
78E0
20E0
0FE0
38E0
70E0
F0E0
F1E0
7EF8
3C70
0000
0000
0000
0700
0F00
0F00
0700
ENDCHAR
STARTCHAR uni1EA2
ENCODING 7842
SWIDTH 715 0
DWIDTH 19 0
BBX 20 27 0 0
BITMAP
00F000
019800
01D800
003800
002000
000000
002000
006000
007000
007000
00F000
00F800
01F800
017800
017C00
027C00
023C00
043E00
043E00
041E00
0FFF00
080F00
100F80
100F80
100780
2007C0
FC3FF0
ENDCHAR
STARTCHAR uni1EA3
ENCODING 7843
SWIDTH 541 0
DWIDTH 15 0
BBX 13 18 1 0
BITMAP
0F00
1980
1980
0B80
0200
0000
1F80
31E0
70E0
78E0
20E0
0FE0
38E0
70E0
F0E0
F1E0
7EF8
3C70
ENDCHAR
STARTCHAR uni1EA4
ENCODING 7844
SWIDTH 715 0
DWIDTH 19 0
BBX 20 30 0 0
BITMAP
001C00
007C00
00F800
030000
007000
00F800
038C00
000000
000000
002000
006000
007000
007000
00F000
00F800
01F800
017800
017C00
027C00
023C00
043E00
043E00
041E00
0FFF00
080F00
100F80
100F80
100780
2007C0
FC3FF0
ENDCHAR
STARTCHAR uni1EA5
ENCODING 7845
SWIDTH 541 0
DWIDTH 15 0
BBX 13 21 1 0
BITMAP
01C0
07C0
0F80
3000
0700
0F80
38C0
0000
0000
1F80
31E0
70E0
78E0
20E0
0FE0
38E0
70E0
F0E0
F1E0
7EF8
3C70
ENDCHAR
STARTCHAR uni1EA6
ENCODING 7846
SWIDTH 715 0
DWIDTH 19 0
BBX 20 31 0 0
BITMAP
018000
03E000
01F000
001C00
000000
007000
00F800
038C00
000000
000000
002000
006000
007000
007000
00F000
00F800
01F800
017800
017C00
027C00
023C00
043E00
043E00
041E00
0FFF00
080F00
100F80
100F80
100780
2007C0
FC3FF0
ENDCHAR
STARTCHAR uni1EA7
ENCODING 7847
SWIDTH 541 0
DWIDTH 15 0
BBX 13 22 1 0
BITMAP
1800
3E00
1F00
01C0
0000
0700
0F80
38C0
0000
0000
1F80
31E0
70E0
78E0
20E0
0FE0
38E0
70E0
F0E0
F1E0
7EF8
3C70
ENDCHAR
STARTCHAR uni1EA8
ENCODING 7848
SWIDTH 715 0
DWIDTH 19 0
BBX 20 31 0 0
BITMAP
000F00
001980
001980
000B00
000200
007000
00F800
038C00
000000
000000
002000
006000
007000
007000
00F000
00F800
01F800
017800
017C00
027C00
023C00
043E00
043E00
041E00
0FFF00
080F00
100F80
100F80
100780
2007C0
FC3FF0
ENDCHAR
STARTCHAR uni1EA9
ENCODING 7849
SWIDTH 541 0
DWIDTH 15 0
BBX 13 22 1 0
BITMAP
00F0
0198
0198
00B8
0020
0700
0F80
38C0
0000
0000
1F80
31E0
70E0
78E0
20E0
0FE0
38E0
70E0
F0E0
F1E0
7EF8
3C70
ENDCHAR
STARTCHAR uni1EAA
ENCODING 7850
SWIDTH 715 0
DWIDTH 19 0
BBX 20 31 0 0
BITMAP
01E200
03FE00
07FC00
041000
000000
007000
00F800
038C00
000000
000000
002000
006000
007000
007000
00F000
00F800
01F800
017800
017C00
027C00
023C00
043E00
043E00
041E00
0FFF00
080F00
100F80
100F80
100780
2007C0
FC3FF0
ENDCHAR
STARTCHAR uni1EAB
ENCODING 7851
SWIDTH 541 0
DWIDTH 15 0
BBX 13 22 1 0
BITMAP
1E20
3FE0
7FC0
4100
0000
0700
0F80
38C0
0000
0000
1F80
31E0
70E0
78E0
20E0
0FE0
38E0
70E0
F0E0
F1E0
7EF8
3C70
ENDCHAR
STARTCHAR uni1EAC
ENCODING 7852
SWIDTH 715 0
DWIDTH 19 0
BBX 20 33 0 -7
BITMAP
007000
00F800
038C00
000000
000000
002000
006000
007000
007000
00F000
00F800
01F800
017800
017C00
027C00
023C00
043E00
043E00
041E00
0FFF00
080F00
100F80
100F80
100780
2007C0
FC3FF0
000000
000000
000000
00E000
01F000
00F000
00E000
ENDCHAR
STARTCHAR uni1EAD
ENCODING 7853
SWIDTH 541 0
DWIDTH 15 0
BBX 13 24 1 -7
BITMAP
0700
0F80
38C0
0000
0000
1F80
31E0
70E0
78E0
20E0
0FE0
38E0
70E0
F0E0
F1E0
7EF8
3C70
0000
0000
0000
0700
0F00
0F00
0700
ENDCHAR
STARTCHAR uni1EAE
ENCODING 7854
SWIDTH 715 0
DWIDTH 19 0
BBX 20 32 0 0
BITMAP
000C00
003C00
007C00
01C000
000000
000000
030C00
01FC00
01F800
000000
000000
002000
006000
007000
007000
00F000
00F800
01F800
017800
017C00
027C00
023C00
043E00
043E00
041E00
0FFF00
080F00
100F80
100F80
100780
2007C0
FC3FF0
ENDCHAR
STARTCHAR uni1EAF
ENCODING 7855
SWIDTH 541 0
DWIDTH 15 0
BBX 13 23 1 0
BITMAP
00C0
03C0
07C0
1C00
0000
0000
30C0
1FC0
1F80
0000
0000
1F80
31E0
70E0
78E0
20E0
0FE0
38E0
70E0
F0E0
F1E0
7EF8
3C70
ENDCHAR
STARTCHAR uni1EB0
ENCODING 7856
SWIDTH 715 0
DWIDTH 19 0
BBX 20 31 0 0
BITMAP
018000
03E000
01F800
000C00
000000
030C00
01FC00
01F800
000000
000000
002000
006000
007000
007000
00F000
00F800
01F800
017800
017C00
027C00
023C00
043E00
043E00
041E00
0FFF00
080F00
100F80
100F80
100780
2007C0
FC3FF0
ENDCHAR
STARTCHAR uni1EB1
ENCODING 7857
SWIDTH 541 0
DWIDTH 15 0
BBX 13 22 1 0
BITMAP
1800
3E00
1F80
00C0
0000
30C0
1FC0
1F80
0000
0000
1F80
31E0
70E0
78E0
20E0
0FE0
38E0
70E0
F0E0
F1E0
7EF8
3C70
ENDCHAR
STARTCHAR uni1EB2
ENCODING 7858
SWIDTH 715 0
DWIDTH 19 0
BBX 20 32 0 0
BITMAP
00F000
019000
019800
01B800
003000
002000
030C00
01FC00
01F800
000000
000000
002000
006000
007000
007000
00F000
00F800
01F800
017800
017C00
027C00
023C00
043E00
043E00
041E00
0FFF00
080F00
100F80
100F80
100780
2007C0
FC3FF0
ENDCHAR
STARTCHAR uni1EB3
ENCODING 7859
SWIDTH 541 0
DWIDTH 15 0
BBX 13 22 1 0
BITMAP
0F00
1980
1980
0300
0200
3040
1FC0
1F80
0000
0000
1F80
31E0
70E0
78E0
20E0
0FE0
38E0
70E0
F0E0
F1E0
7EF8
3C70
ENDCHAR
STARTCHAR uni1EB4
ENCODING 7860
SWIDTH 715 0
DWIDTH 19 0
BBX 20 32 0 0
BITMAP
008000
03E200
03FE00
067C00
001000
000000
030400
01FC00
01F800
000000
000000
002000
006000
007000
007000
00F000
00F800
01F800
017800
017C00
027C00
023C00
043E00
043E00
041E00
0FFF00
080F00
100F80
100F80
100780
2007C0
FC3FF0
ENDCHAR
STARTCHAR uni1EB5
ENCODING 7861
SWIDTH 541 0
DWIDTH 15 0
BBX 13 22 1 0
BITMAP
1E20
3FE0
7FC0
4100
0000
3040
1FC0
1F80
0000
0000
1F80
31E0
70E0
78E0
20E0
0FE0
38E0
70E0
F0E0
F1E0
7EF8
3C70
ENDCHAR
STARTCHAR uni1EB6
ENCODING 7862
SWIDTH 715 0
DWIDTH 19 0
BBX 20 33 0 -7
BITMAP
030C00
01FC00
01F800
000000
000000
002000
006000
007000
007000
00F000
00F800
01F800
017800
017C00
027C00
023C00
043E00
043E00
041E00
0FFF00
080F00
100F80
100F80
100780
2007C0
FC3FF0
000000
000000
000000
00E000
01F000
00F000
00E000
ENDCHAR
STARTCHAR uni1EB7
ENCODING 7863
SWIDTH 541 0
DWIDTH 15 0
BBX 13 24 1 -7
BITMAP
30C0
1FC0
1F80
0000
0000
1F80
31E0
70E0
78E0
20E0
0FE0
38E0
70E0
F0E0
F1E0
7EF8
3C70
0000
0000
0000
0700
0F00
0F00
0700
ENDCHAR
STARTCHAR uni1EB8
ENCODING 7864
SWIDTH 696 0
DWIDTH 19 0
BBX 17 28 1 -7
BITMAP
FFFF00
3C0700
3C0300
3C0100
3C0100
3C0000
3C0000
3C1000
3C1000
3C3000
3FF000
3C7000
3C1000
3C1000
3C1080
3C0080
3C0180
3C0180
3C0380
3C0780
FFFF80
000000
000000
000000
01C000
03E000
03C000
01C000
ENDCHAR
STARTCHAR uni1EB9
ENCODING 7865
SWIDTH 537 0
DWIDTH 15 0
BBX 13 19 1 -7
BITMAP
0F80
18E0
3870
7870
F070
FFF0
F000
F000
7008
7810
3820
0FC0
0000
0000
0000
0700
0F00
0F00
0700
ENDCHAR
STARTCHAR uni1EBA
ENCODING 7866
SWIDTH 696 0
DWIDTH 19 0
BBX 17 28 1 0
BITMAP
03C000
026000
062000
036000
00C000
000000
000000
FFFF00
3C0700
3C0300
3C0100
3C0100
3C0000
3C0000
3C1000
3C1000
3C3000
3FF000
3C7000
3C1000
3C1000
3C1080
3C0080
3C0180
3C0180
3C0380
3C0780
FFFF80
ENDCHAR
STARTCHAR uni1EBB
ENCODING 7867
SWIDTH 537 0
DWIDTH 15 0
BBX 13 18 1 0
BITMAP
0F00
1980
1980
0B80
0200
0000
0F80
18E0
3870
7870
F070
FFF0
F000
F000
7008
7810
3820
0FC0
ENDCHAR
STARTCHAR uni1EBC
ENCODING 7868
SWIDTH 696 0
DWIDTH 19 0
BBX 17 28 1 0
BITMAP
020400
0FF800
0FF800
10F000
000000
000000
000000
FFFF00
3C0700
3C0300
3C0100
3C0100
3C0000
3C0000
3C1000
3C1000
3C3000
3FF000
3C7000
3C1000
3C1000
3C1080
3C0080
3C0180
3C0180
3C0380
3C0780
FFFF80
ENDCHAR
STARTCHAR uni1EBD
ENCODING 7869
SWIDTH 537 0
DWIDTH 15 0
BBX 13 19 1 0
BITMAP
0800
3E20
3FE0
47C0
0100
0000
0000
0F80
18E0
3870
7870
F070
FFF0
F000
F000
7008
7810
3820
0FC0
ENDCHAR
STARTCHAR uni1EBE
ENCODING 7870
SWIDTH 696 0
DWIDTH 19 0
BBX 17 30 1 0
BITMAP
007000
01F000
03E000
040000
01C000
03E000
0E3000
000000
000000
FFFF00
3C0700
3C0300
3C0100
3C0100
3C0000
3C0000
3C1000
3C1000
3C3000
3FF000
3C7000
3C1000
3C1000
3C1080
3C0080
3C0180
3C0180
3C0380
3C0780
FFFF80
ENDCHAR
STARTCHAR uni1EBF
ENCODING 7871
SWIDTH 537 0
DWIDTH 15 0
BBX 13 21 1 0
BITMAP
01C0
07C0
0F80
3000
0700
0F80
38C0
0000
0000
0F80
18E0
3870
7870
F070
FFF0
F000
F000
7008
7810
3820
0FC0
ENDCHAR
STARTCHAR uni1EC0
ENCODING 7872
SWIDTH 696 0
DWIDTH 19 0
BBX 17 31 1 0
BITMAP
060000
0F8000
07C000
003000
000000
01C000
03E000
0E3000
000000
000000
FFFF00
3C0700
3C0300
3C0100
3C0100
3C0000
3C0000
3C1000
3C1000
3C3000
3FF000
3C7000
3C1000
3C1000
3C1080
3C0080
3C0180
3C0180
3C0380
3C0780
FFFF80
ENDCHAR
STARTCHAR uni1EC1
ENCODING 7873
SWIDTH 537 0
DWIDTH 15 0
BBX 13 22 1 0
BITMAP
1800
3E00
1F00
01C0
0000
0700
0F80
38C0
0000
0000
0F80
18E0
3870
7870
F070
FFF0
F000
F000
7008
7810
3820
0FC0
ENDCHAR
STARTCHAR uni1EC2
ENCODING 7874
SWIDTH 696 0
DWIDTH 19 0
BBX 17 31 1 0
BITMAP
003C00
006600
006600
002E00
000800
01C000
03E000
0E3000
000000
000000
FFFF00
3C0700
3C0300
3C0100
3C0100
3C0000
3C0000
3C1000
3C1000
3C3000
3FF000
3C7000
3C1000
3C1000
3C1080
3C0080
3C0180
3C0180
3C0380
3C0780
FFFF80
ENDCHAR
STARTCHAR uni1EC3
ENCODING 7875
SWIDTH 537 0
DWIDTH 15 0
BBX 13 22 1 0
BITMAP
00F0
0198
0198
00B8
0020
0700
0F80
38C0
0000
0000
0F80
18E0
3870
7870
F070
FFF0
F000
F000
7008
7810
3820
0FC0
ENDCHAR
STARTCHAR uni1EC4
ENCODING 7876
SWIDTH 696 0
DWIDTH 19 0
BBX 17 32 1 0
BITMAP
020400
0FF800
0FF800
18F000
000000
000000
01C000
03E000
0E3000
000000
000000
FFFF00
3C0700
3C0300
3C0100
3C0100
3C0000
3C0000
3C1000
3C1000
3C3000
3FF000
3C7000
3C1000
3C1000
3C1080
3C0080
3C0180
3C0180
3C0380
3C0780
FFFF80
ENDCHAR
STARTCHAR uni1EC5
ENCODING 7877
SWIDTH 537 0
DWIDTH 15 0
BBX 13 22 1 0
BITMAP
1E20
3FE0
7FC0
4100
0000
0700
0F80
38C0
0000
0000
0F80
18E0
3870
7870
F070
FFF0
F000
F000
7008
7810
3820
0FC0
ENDCHAR
STARTCHAR uni1EC6
ENCODING 7878
SWIDTH 696 0
DWIDTH 19 0
BBX 17 33 1 -7
BITMAP
01C000
03E000
0E3000
000000
000000
FFFF00
3C0700
3C0300
3C0100
3C0100
3C0000
3C0000
3C1000
3C1000
3C3000
3FF000
3C7000
3C1000
3C1000
3C1080
3C0080
3C0180
3C0180
3C0380
3C0780
FFFF80
000000
000000
000000
01C000
03E000
03C000
01C000
ENDCHAR
STARTCHAR uni1EC7
ENCODING 7879
SWIDTH 537 0
DWIDTH 15 0
BBX 13 24 1 -7
BITMAP
0700
0F80
38C0
0000
0000
0F80
18E0
3870
7870
F070
FFF0
F000
F000
7008
7810
3820
0FC0
0000
0000
0000
0700
0F00
0F00
0700
ENDCHAR
STARTCHAR uni1EC8
ENCODING 7880
SWIDTH 386 0
DWIDTH 10 0
BBX 9 28 1 0
BITMAP
3C00
6600
6600
2600
0C00
0000
0000
FF80
3C00
3C00
3C00
3C00
3C00
3C00
3C00
3C00
3C00
3C00
3C00
3C00
3C00
3C00
3C00
3C00
3C00
3C00
3C00
FF80
ENDCHAR
STARTCHAR uni1EC9
ENCODING 7881
SWIDTH 319 0
DWIDTH 9 0
BBX 7 19 1 0
BITMAP
78
4C
CC
4C
18
00
00
F8
38
38
38
38
38
38
38
38
38
38
FE
ENDCHAR
STARTCHAR uni1ECA
ENCODING 7882
SWIDTH 386 0
DWIDTH 10 0
BBX 9 28 1 -7
BITMAP
FF80
3C00
3C00
3C00
3C00
3C00
3C00
3C00
3C00
3C00
3C00
3C00
3C00
3C00
3C00
3C00
3C00
3C00
3C00
3C00
FF80
0000
0000
0000
3C00
3C00
3C00
1C00
ENDCHAR
STARTCHAR uni1ECB
ENCODING 7883
SWIDTH 319 0
DWIDTH 9 0
BBX 7 26 1 -7
BITMAP
38
7C
78
38
00
00
00
F8
38
38
38
38
38
38
38
38
38
38
FE
00
00
00
38
78
78
38
ENDCHAR
STARTCHAR uni1ECC
ENCODING 7884
SWIDTH 823 0
DWIDTH 22 0
BBX 20 28 1 -7
BITMAP
01F800
070600
0C0380
1C03C0
3C03C0
7801E0
7801E0
F801F0
F801F0
F801F0
F801F0
F801F0
F801F0
7801F0
7801E0
7801E0
3C03C0
1C0380
0C0380
060600
01F800
000000
000000
000000
00F000
00F000
00F000
006000
ENDCHAR
STARTCHAR uni1ECD
ENCODING 7885
SWIDTH 589 0
DWIDTH 16 0
BBX 14 19 1 -7
BITMAP
0FC0
3860
7870
7878
F078
F07C
F07C
F078
7878
7870
3860
0FC0
0000
0000
0000
0780
0780
0780
0300
ENDCHAR
STARTCHAR uni1ECE
ENCODING 7886
SWIDTH 823 0
DWIDTH 22 0
BBX 20 27 1 0
BITMAP
00F000
019800
019800
003000
002000
000000
01F800
070600
0C0380
1C03C0
3C03C0
7801E0
7801E0
F801F0
F801F0
F801F0
F801F0
F801F0
F801F0
7801F0
7801E0
7801E0
3C03C0
1C0380
0C0380
060600
01F800
ENDCHAR
STARTCHAR uni1ECF
ENCODING 7887
SWIDTH 589 0
DWIDTH 16 0
BBX 14 18 1 0
BITMAP
0780
0CC0
0CC0
0180
0100
0000
0FC0
3860
7870
7878
F078
F07C
F07C
F078
7878
7870
3860
0FC0
ENDCHAR
STARTCHAR uni1ED0
ENCODING 7888
SWIDTH 823 0
DWIDTH 22 0
BBX 20 30 1 0
BITMAP
001C00
007C00
00F800
030000
007000
01F800
038C00
000000
000000
01F800
070600
0C0380
1C03C0
3C03C0
7801E0
7801E0
F801F0
F801F0
F801F0
F801F0
F801F0
F801F0
7801F0
7801E0
7801E0
3C03C0
1C0380
0C0380
060600
01F800
ENDCHAR
STARTCHAR uni1ED1
ENCODING 7889
SWIDTH 589 0
DWIDTH 16 0
BBX 14 21 1 0
BITMAP
00E0
03E0
07C0
1800
0300
0FC0
1CE0
0000
0000
0FC0
3860
7870
7878
F078
F07C
F07C
F078
7878
7870
3860
0FC0
ENDCHAR
STARTCHAR uni1ED2
ENCODING 7890
SWIDTH 823 0
DWIDTH 22 0
BBX 20 31 1 0
BITMAP
018000
03C000
01F000
001C00
000000
007000
01F800
038C00
000000
000000
01F800
070600
0C0380
1C03C0
3C03C0
7801E0
7801E0
F801F0
F801F0
F801F0
F801F0
F801F0
F801F0
7801F0
7801E0
7801E0
3C03C0
1C0380
0C0380
060600
01F800
ENDCHAR
STARTCHAR uni1ED3
ENCODING 7891
SWIDTH 589 0
DWIDTH 16 0
BBX 14 22 1 0
BITMAP
1C00
1E00
0F80
01C0
0000
0300
0FC0
1CE0
0000
0000
0FC0
3860
7870
7878
F078
F07C
F07C
F078
7878
7870
3860
0FC0
ENDCHAR
STARTCHAR uni1ED4
ENCODING 7892
SWIDTH 823 0
DWIDTH 22 0
BBX 20 31 1 0
BITMAP
000F00
001980
001980
000B00
000200
007000
01F800
038C00
000000
000000
01F800
070600
0C0380
1C03C0
3C03C0
7801E0
7801E0
F801F0
F801F0
F801F0
F801F0
F801F0
F801F0
7801F0
7801E0
7801E0
3C03C0
1C0380
0C0380
060600
01F800
ENDCHAR
STARTCHAR uni1ED5
ENCODING 7893
SWIDTH 589 0
DWIDTH 16 0
BBX 14 22 1 0
BITMAP
0078
00C8
00CC
00D8
0010
0300
0FC0
1CE0
0000
0000
0FC0
3860
7870
7878
F078
F07C
F07C
F078
7878
7870
3860
0FC0
ENDCHAR
STARTCHAR uni1ED6
ENCODING 7894
SWIDTH 823 0
DWIDTH 22 0
BBX 20 31 1 0
BITMAP
01C200
03FE00
07FC00
041000
000000
007000
01F800
038C00
000000
000000
01F800
070600
0C0380
1C03C0
3C03C0
7801E0
7801E0
F801F0
F801F0
F801F0
F801F0
F801F0
F801F0
7801F0
7801E0
7801E0
3C03C0
1C0380
0C0380
060600
01F800
ENDCHAR
STARTCHAR uni1ED7
ENCODING 7895
SWIDTH 589 0
DWIDTH 16 0
BBX 14 22 1 0
BITMAP
0E10
1FF0
3FE0
2080
0000
0300
0FC0
1CE0
0000
0000
0FC0
3860
7870
7878
F078
F07C
F07C
F078
7878
7870
3860
0FC0
ENDCHAR
STARTCHAR uni1ED8
ENCODING 7896
SWIDTH 823 0
DWIDTH 22 0
BBX 20 33 1 -7
BITMAP
007000
01F800
038C00
000000
000000
01F800
070600
0C0380
1C03C0
3C03C0
7801E0
7801E0
F801F0
F801F0
F801F0
F801F0
F801F0
F801F0
7801F0
7801E0
7801E0
3C03C0
1C0380
0C0380
060600
01F800
000000
000000
000000
00F000
00F000
00F000
006000
ENDCHAR
STARTCHAR uni1ED9
ENCODING 7897
SWIDTH 589 0
DWIDTH 16 0
BBX 14 24 1 -7
BITMAP
0300
0FC0
1CE0
0000
0000
0FC0
3860
7870
7878
F078
F07C
F07C
F078
7878
7870
3860
0FC0
0000
0000
0000
0780
0780
0780
0300
ENDCHAR
STARTCHAR uni1EDA
ENCODING 7898
SWIDTH 823 0
DWIDTH 22 0
BBX 20 26 1 0
BITMAP
001C00
007C00
01F000
000300
000300
01FE00
070600
0C0380
1C0380
3C03C0
7801E0
7801E0
F801F0
F801F0
F801F0
F801F0
F801F0
F801F0
7801F0
7801E0
7801E0
3C03C0
1C0380
0C0380
060600
01F800
ENDCHAR
STARTCHAR uni1EDB
ENCODING 7899
SWIDTH 589 0
DWIDTH 16 0
BBX 14 17 1 0
BITMAP
00E0
03E0
0FC0
0018
0018
0FF8
3860
7870
7878
F078
F07C
F07C
F078
7878
7870
3860
0FC0
ENDCHAR
STARTCHAR uni1EDC
ENCODING 7900
SWIDTH 823 0
DWIDTH 22 0
BBX 20 27 1 0
BITMAP
038000
03E000
01F000
001C00
000300
000300
01FE00
070600
0C0380
1C0380
3C03C0
7801E0
7801E0
F801F0
F801F0
F801F0
F801F0
F801F0
F801F0
7801F0
7801E0
7801E0
3C03C0
1C0380
0C0380
060600
01F800
ENDCHAR
STARTCHAR uni1EDD
ENCODING 7901
SWIDTH 589 0
DWIDTH 16 0
BBX 14 18 1 0
BITMAP
1C00
1E00
0F80
00C0
0018
0018
0FF8
3860
7870
7878
F078
F07C
F07C
F078
7878
7870
3860
0FC0
ENDCHAR
STARTCHAR uni1EDE
ENCODING 7902
SWIDTH 823 0
DWIDTH 22 0
BBX 20 28 1 0
BITMAP
00F000
019800
019800
019800
003000
002300
000300
01FE00
070600
0C0380
1C0380
3C03C0
7801E0
7801E0
F801F0
F801F0
F801F0
F801F0
F801F0
F801F0
7801F0
7801E0
7801E0
3C03C0
1C0380
0C0380
060600
01F800
ENDCHAR
STARTCHAR uni1EDF
ENCODING 7903
SWIDTH 589 0
DWIDTH 16 0
BBX 14 18 1 0
BITMAP
0780
0CC0
0CC0
0180
0118
0018
0FF8
3860
7870
7878
F078
F07C
F07C
F078
7878
7870
3860
0FC0
ENDCHAR
STARTCHAR uni1EE0
ENCODING 7904
SWIDTH 823 0
DWIDTH 22 0
BBX 20 28 1 0
BITMAP
008200
03FE00
07FC00
043800
000000
000300
000300
01FE00
070600
0C0380
1C0380
3C03C0
7801E0
7801E0
F801F0
F801F0
F801F0
F801F0
F801F0
F801F0
7801F0
7801E0
7801E0
3C03C0
1C0380
0C0380
060600
01F800
ENDCHAR
STARTCHAR uni1EE1
ENCODING 7905
SWIDTH 589 0
DWIDTH 16 0
BBX 14 19 1 0
BITMAP
0400
1F10
3FF0
23E0
0080
0018
0018
0FF8
3860
7870
7878
F078
F07C
F07C
F078
7878
7870
3860
0FC0
ENDCHAR
STARTCHAR uni1EE2
ENCODING 7906
SWIDTH 823 0
DWIDTH 22 0
BBX 20 30 1 -7
BITMAP
000300
000300
01FE00
070600
0C0380
1C0380
3C03C0
7801E0
7801E0
F801F0
F801F0
F801F0
F801F0
F801F0
F801F0
7801F0
7801E0
7801E0
3C03C0
1C0380
0C0380
060600
01F800
000000
000000
000000
00F000
00F000
00F000
006000
ENDCHAR
STARTCHAR uni1EE3
ENCODING 7907
SWIDTH 589 0
DWIDTH 16 0
BBX 14 21 1 -7
BITMAP
0018
0018
0FF8
3860
7870
7878
F078
F07C
F07C
F078
7878
7870
3860
0FC0
0000
0000
0000
0780
0780
0780
0300
ENDCHAR
STARTCHAR uni1EE4
ENCODING 7908
SWIDTH 774 0
DWIDTH 21 0
BBX 21 28 0 -7
BITMAP
FFC3F8
1E0040
1E0040
1E0040
1E0040
1E0040
1E0040
1E0040
1E0040
1E0040
1E0040
1E0040
1E0040
1E0040
1E0040
1E0040
1E0040
1F0080
0F0080
078300
01FE00
000000
000000
000000
007000
00F800
00F000
007000
ENDCHAR
STARTCHAR uni1EE5
ENCODING 7909
SWIDTH 613 0
DWIDTH 17 0
BBX 16 19 0 -7
BITMAP
FCFC
3C3C
3C3C
3C3C
3C3C
3C3C
3C3C
3C3C
3C3C
3C3C
1C7C
1FBF
0000
0000
0000
01C0
03C0
03C0
01C0
ENDCHAR
STARTCHAR uni1EE6
ENCODING 7910
SWIDTH 774 0
DWIDTH 21 0
BBX 21 28 0 0
BITMAP
00F000
009800
018800
00D800
003000
000000
000000
FFC3F8
1E0040
1E0040
1E0040
1E0040
1E0040
1E0040
1E0040
1E0040
1E0040
1E0040
1E0040
1E0040
1E0040
1E0040
1E0040
1E0040
1F0080
0F0080
078300
01FE00
ENDCHAR
STARTCHAR uni1EE7
ENCODING 7911
SWIDTH 613 0
DWIDTH 17 0
BBX 16 19 0 0
BITMAP
03C0
0660
0660
0260
00C0
0000
0000
FCFC
3C3C
3C3C
3C3C
3C3C
3C3C
3C3C
3C3C
3C3C
3C3C
1C7C
1FBF
ENDCHAR
STARTCHAR uni1EE8
ENCODING 7912
SWIDTH 774 0
DWIDTH 21 0
BBX 22 26 0 0
BITMAP
001C00
007C00
01E000
00001C
000018
FFC3F0
1E0040
1E0040
1E0040
1E0040
1E0040
1E0040
1E0040
1E0040
1E0040
1E0040
1E0040
1E0040
1E0040
1E0040
1E0040
1E0040
1F0080
0F0080
078300
01FE00
ENDCHAR
STARTCHAR uni1EE9
ENCODING 7913
SWIDTH 613 0
DWIDTH 17 0
BBX 17 17 0 0
BITMAP
00F000
01F000
078000
000180
000180
FCFF80
3C3C00
3C3C00
3C3C00
3C3C00
3C3C00
3C3C00
3C3C00
3C3C00
3C3C00
1C7C00
1FBF00
ENDCHAR
STARTCHAR uni1EEA
ENCODING 7914
SWIDTH 774 0
DWIDTH 21 0
BBX 22 27 0 0
BITMAP
01C000
01E000
00F800
000400
00001C
000018
FFC3F0
1E0040
1E0040
1E0040
1E0040
1E0040
1E0040
1E0040
1E0040
1E0040
1E0040
1E0040
1E0040
1E0040
1E0040
1E0040
1E0040
1F0080
0F0080
078300
01FE00
ENDCHAR
STARTCHAR uni1EEB
ENCODING 7915
SWIDTH 613 0
DWIDTH 17 0
BBX 17 18 0 0
BITMAP
0F0000
0F8000
03E000
001000
000180
000180
FCFF80
3C3C00
3C3C00
3C3C00
3C3C00
3C3C00
3C3C00
3C3C00
3C3C00
3C3C00
1C7C00
1FBF00
ENDCHAR
STARTCHAR uni1EEC
ENCODING 7916
SWIDTH 774 0
DWIDTH 21 0
BBX 22 28 0 0
BITMAP
003C00
006600
006600
006600
000800
00001C
000018
FFC3F0
1E0040
1E0040
1E0040
1E0040
1E0040
1E0040
1E0040
1E0040
1E0040
1E0040
1E0040
1E0040
1E0040
1E0040
1E0040
1E0040
1F0080
0F0080
078300
01FE00
ENDCHAR
STARTCHAR uni1EED
ENCODING 7917
SWIDTH 613 0
DWIDTH 17 0
BBX 17 19 0 0
BITMAP
03C000
066000
066000
026000
00C000
000180
000180
FCFF80
3C3C00
3C3C00
3C3C00
3C3C00
3C3C00
3C3C00
3C3C00
3C3C00
3C3C00
1C7C00
1FBF00
ENDCHAR
STARTCHAR uni1EEE
ENCODING 7918
SWIDTH 774 0
DWIDTH 21 0
BBX 22 27 0 0
BITMAP
0078C0
00FF80
01FF00
010400
00001C
000018
FFC3F0
1E0040
1E0040
1E0040
1E0040
1E0040
1E0040
1E0040
1E0040
1E0040
1E0040
1E0040
1E0040
1E0040
1E0040
1E0040
1E0040
1F0080
0F0080
078300
01FE00
ENDCHAR
STARTCHAR uni1EEF
ENCODING 7919
SWIDTH 613 0
DWIDTH 17 0
BBX 17 19 0 0
BITMAP
020400
0FF800
0FF800
10F000
000000
000180
000180
FCFF80
3C3C00
3C3C00
3C3C00
3C3C00
3C3C00
3C3C00
3C3C00
3C3C00
3C3C00
1C7C00
1FBF00
ENDCHAR
STARTCHAR uni1EF0
ENCODING 7920
SWIDTH 774 0
DWIDTH 21 0
BBX 22 30 0 -7
BITMAP
00001C
000018
FFC3F0
1E0040
1E0040
1E0040
1E0040
1E0040
1E0040
1E0040
1E0040
1E0040
1E0040
1E0040
1E0040
1E0040
1E0040
1E0040
1E0040
1F0080
0F0080
078300
01FE00
000000
000000
000000
007000
00F800
00F000
007000
ENDCHAR
STARTCHAR uni1EF1
ENCODING 7921
SWIDTH 613 0
DWIDTH 17 0
BBX 17 21 0 -7
BITMAP
000180
000180
FCFF80
3C3C00
3C3C00
3C3C00
3C3C00
3C3C00
3C3C00
3C3C00
3C3C00
3C3C00
1C7C00
1FBF00
000000
000000
000000
01C000
03C000
03C000
01C000
ENDCHAR
STARTCHAR Ygrave
ENCODING 7922
SWIDTH 766 0
DWIDTH 21 0
BBX 20 27 0 0
BITMAP
03C000
03E000
00F800
000400
000000
000000
FFC3F0
3F0040
1F0080
0F8080
0FC100
07C100
07E200
03E200
01F400
01F400
00F800
00F800
007800
007800
007800
007800
007800
007800
007800
007800
07FF00
ENDCHAR
STARTCHAR ygrave
ENCODING 7923
SWIDTH 501 0
DWIDTH 14 0
BBX 14 27 0 -9
BITMAP
1C00
1F00
0F80
0060
0000
0000
FE7C
7C10
3C20
3E20
1E20
1E40
0F40
0F80
0780
0780
0300
0300
0200
0200
0400
0400
0400
4800
F800
F000
E000
ENDCHAR
STARTCHAR uni1EF4
ENCODING 7924
SWIDTH 766 0
DWIDTH 21 0
BBX 20 28 0 -7
BITMAP
FFC3F0
3F0040
1F0080
0F8080
0FC100
07C100
07E200
03E200
01F400
01F400
00F800
00F800
007800
007800
007800
007800
007800
007800
007800
007800
07FF00
000000
000000
000000
007000
00F000
00F000
007000
ENDCHAR
STARTCHAR uni1EF5
ENCODING 7925
SWIDTH 501 0
DWIDTH 14 0
BBX 14 21 0 -9
BITMAP
FE7C
7C10
3C20
3E20
1E20
1E40
0F40
0F80
0780
0780
0300
0300
0200
0200
0400
0460
04F0
48F0
F8F0
F000
E000
ENDCHAR
STARTCHAR uni1EF6
ENCODING 7926
SWIDTH 766 0
DWIDTH 21 0
BBX 20 28 0 0
BITMAP
00F000
009800
019800
00D800
003000
000000
000000
FFC3F0
3F0040
1F0080
0F8080
0FC100
07C100
07E200
03E200
01F400
01F400
00F800
00F800
007800
007800
007800
007800
007800
007800
007800
007800
07FF00
ENDCHAR
STARTCHAR uni1EF7
ENCODING 7927
SWIDTH 501 0
DWIDTH 14 0
BBX 14 28 0 -9
BITMAP
0780
0C80
0CC0
0D80
0100
0000
0000
FE7C
7C10
3C20
3E20
1E20
1E40
0F40
0F80
0780
0780
0300
0300
0200
0200
0400
0400
0400
4800
F800
F000
E000
ENDCHAR
STARTCHAR uni1EF8
ENCODING 7928
SWIDTH 766 0
DWIDTH 21 0
BBX 20 28 0 0
BITMAP
008100
03FE00
03FE00
043C00
000000
000000
000000
FFC3F0
3F0040
1F0080
0F8080
0FC100
07C100
07E200
03E200
01F400
01F400
00F800
00F800
007800
007800
007800
007800
007800
007800
007800
007800
07FF00
ENDCHAR
STARTCHAR uni1EF9
ENCODING 7929
SWIDTH 501 0
DWIDTH 14 0
BBX 14 28 0 -9
BITMAP
0410
1FF0
3FE0
23C0
0000
0000
0000
FE7C
7C10
3C20
3E20
1E20
1E40
0F40
0F80
0780
0780
0300
0300
0200
0200
0400
0400
0400
4800
F800
F000
E000
ENDCHAR
STARTCHAR endash
ENCODING 8211
SWIDTH 584 0
DWIDTH 16 0
BBX 16 1 0 5
BITMAP
FFFF
ENDCHAR
STARTCHAR emdash
ENCODING 8212
SWIDTH 875 0
DWIDTH 24 0
BBX 24 1 0 5
BITMAP
FFFFFF
ENDCHAR
STARTCHAR quoteleft
ENCODING 8216
SWIDTH 308 0
DWIDTH 8 0
BBX 6 9 1 11
BITMAP
30
20
40
40
C8
FC
FC
7C
38
ENDCHAR
STARTCHAR quoteright
ENCODING 8217
SWIDTH 308 0
DWIDTH 8 0
BBX 6 10 1 11
BITMAP
70
78
FC
7C
24
04
08
18
30
20
ENDCHAR
STARTCHAR quotesinglbase
ENCODING 8218
SWIDTH 308 0
DWIDTH 8 0
BBX 6 10 1 -5
BITMAP
70
78
FC
7C
24
04
08
18
30
20
ENDCHAR
STARTCHAR quotedblleft
ENCODING 8220
SWIDTH 561 0
DWIDTH 15 0
BBX 13 9 1 11
BITMAP
3060
20C0
4080
4180
C9A0
FDF8
FDF8
7CF8
3870
ENDCHAR
STARTCHAR quotedblright
ENCODING 8221
SWIDTH 561 0
DWIDTH 15 0
BBX 13 10 1 11
BITMAP
70E0
79F0
FDF8
7DF8
24D8
0418
0810
1830
3060
2000
ENDCHAR
STARTCHAR quotedblbase
ENCODING 8222
SWIDTH 561 0
DWIDTH 15 0
BBX 13 10 1 -5
BITMAP
70E0
79F0
FDF8
7DF8
24D8
0418
0810
1830
3060
2000
ENDCHAR
STARTCHAR dagger
ENCODING 8224
SWIDTH 541 0
DWIDTH 15 0
BBX 13 29 1 -8
BITMAP
0700
0F00
0F00
0700
0600
0600
E278
FFF8
F278
0200
0600
0600
0700
0F00
0F00
0700
0700
0600
0600
0600
0600
0200
0200
0200
0200
0200
0200
0200
0200
ENDCHAR
STARTCHAR daggerdbl
ENCODING 8225
SWIDTH 541 0
DWIDTH 15 0
BBX 14 29 0 -8
BITMAP
0380
0780
0780
0380
0300
0300
713C
7FFC
793C
0100
0100
0300
0300
0380
0780
0380
0300
0300
0300
0100
793C
FFFC
713C
0300
0300
0380
0780
0780
0300
ENDCHAR
STARTCHAR bullet
ENCODING 8226
SWIDTH 410 0
DWIDTH 11 0
BBX 7 6 2 7
BITMAP
7C
7C
FE
FE
7C
38
ENDCHAR
STARTCHAR ellipsis
ENCODING 8230
SWIDTH 822 0
DWIDTH 22 0
BBX 20 5 1 -1
BITMAP
7060E0
F8F1F0
F8F1F0
78F1F0
306040
ENDCHAR
STARTCHAR perthousand
ENCODING 8240
SWIDTH 1353 0
DWIDTH 37 0
BBX 35 21 1 0
BITMAP
1E00C00000
3181800000
61C1800000
61C3000000
E1C7000000
E1C6000000
E1CE000000
61CC000000
61D8000000
3198000000
1E31F01F00
0033183180
00670C71C0
00670C60C0
00C70E60E0
00C70E60E0
01870E60E0
01870C60C0
03070C71C0
0703183180
0600F01F00
ENDCHAR
STARTCHAR guilsinglleft
ENCODING 8249
SWIDTH 345 0
DWIDTH 9 0
BBX 6 10 2 1
BITMAP
04
08
38
70
F0
F0
70
38
18
08
ENDCHAR
STARTCHAR guilsinglright
ENCODING 8250
SWIDTH 345 0
DWIDTH 9 0
BBX 6 10 2 1
BITMAP
80
C0
60
70
38
3C
78
70
C0
80
ENDCHAR
STARTCHAR fraction
ENCODING 8260
SWIDTH 489 0
DWIDTH 13 0
BBX 13 20 0 0
BITMAP
0018
0030
0030
0060
00E0
00C0
0180
0180
0300
0300
0600
0600
0C00
0C00
1800
3800
3000
6000
6000
C000
ENDCHAR
STARTCHAR uni2070
ENCODING 8304
SWIDTH 419 0
DWIDTH 11 0
BBX 10 11 1 12
BITMAP
3E00
6300
E180
E180
E1C0
E1C0
E1C0
E180
E180
6300
3E00
ENDCHAR
STARTCHAR uni2074
ENCODING 8308
SWIDTH 391 0
DWIDTH 11 0
BBX 10 11 0 12
BITMAP
0600
0E00
1600
1600
2600
4600
8640
FFC0
0640
0600
1F80
ENDCHAR
STARTCHAR uni2075
ENCODING 8309
SWIDTH 362 0
DWIDTH 10 0
BBX 9 12 0 12
BITMAP
0080
3F80
3F00
4000
4000
7E00
0780
0380
0380
E380
6380
3E00
ENDCHAR
STARTCHAR uni2076
ENCODING 8310
SWIDTH 352 0
DWIDTH 10 0
BBX 8 12 1 12
BITMAP
02
1C
30
60
E0
FC
E7
C7
C7
C7
66
3C
ENDCHAR
STARTCHAR uni2077
ENCODING 8311
SWIDTH 351 0
DWIDTH 9 0
BBX 8 11 1 12
BITMAP
7F
FF
82
82
04
08
08
18
38
38
38
ENDCHAR
STARTCHAR uni2078
ENCODING 8312
SWIDTH 356 0
DWIDTH 10 0
BBX 9 11 0 12
BITMAP
3E00
7300
7380
7380
3300
1C00
7300
E380
E380
6380
3F00
ENDCHAR
STARTCHAR uni2079
ENCODING 8313
SWIDTH 352 0
DWIDTH 10 0
BBX 9 11 0 12
BITMAP
3E00
6300
6300
E380
E380
7380
1F00
0700
0600
1800
6000
ENDCHAR
STARTCHAR uni2080
ENCODING 8320
SWIDTH 419 0
DWIDTH 11 0
BBX 10 11 1 -3
BITMAP
3E00
6300
E180
E180
E1C0
E1C0
E1C0
E180
E180
6300
3E00
ENDCHAR
STARTCHAR uni2081
ENCODING 8321
SWIDTH 279 0
DWIDTH 8 0
BBX 7 11 0 -3
BITMAP
F8
38
38
38
38
38
38
38
38
38
FE
ENDCHAR
STARTCHAR uni2082
ENCODING 8322
SWIDTH 360 0
DWIDTH 10 0
BBX 9 11 0 -3
BITMAP
1E00
6780
7380
7380
0300
0600
0C00
1080
2080
FF80
FF80
ENDCHAR
STARTCHAR uni2083
ENCODING 8323
SWIDTH 346 0
DWIDTH 9 0
BBX 9 11 0 -3
BITMAP
3E00
6700
7700
0700
3800
0700
0780
6380
E380
C700
7E00
ENDCHAR
STARTCHAR uni2084
ENCODING 8324
SWIDTH 391 0
DWIDTH 11 0
BBX 10 11 0 -3
BITMAP
0600
0E00
1600
1600
2600
4600
8640
FFC0
0640
0600
1F80
ENDCHAR
STARTCHAR uni2085
ENCODING 8325
SWIDTH 362 0
DWIDTH 10 0
BBX 9 12 0 -3
BITMAP
0080
3F80
3F00
4000
4000
7E00
0780
0380
0380
E380
6380
3E00
ENDCHAR
STARTCHAR uni2086
ENCODING 8326
SWIDTH 352 0
DWIDTH 10 0
BBX 8 12 1 -3
BITMAP
02
1C
30
60
E0
FC
E7
C7
C7
C7
66
3C
ENDCHAR
STARTCHAR uni2087
ENCODING 8327
SWIDTH 351 0
DWIDTH 9 0
BBX 8 11 1 -3
BITMAP
7F
FF
82
82
04
08
08
18
38
38
38
ENDCHAR
STARTCHAR uni2088
ENCODING 8328
SWIDTH 356 0
DWIDTH 10 0
BBX 9 11 0 -3
BITMAP
3E00
7300
7380
7380
3300
1C00
7300
E380
E380
6380
3F00
ENDCHAR
STARTCHAR uni2089
ENCODING 8329
SWIDTH 352 0
DWIDTH 10 0
BBX 9 11 0 -3
BITMAP
3E00
6300
6300
E380
E380
6380
3F00
0700
0600
0C00
7000
ENDCHAR
STARTCHAR colonmonetary
ENCODING 8353
SWIDTH 500 0
DWIDTH 14 0
BBX 11 19 1 1
BITMAP
0140
0140
0140
0280
0FE0
3AE0
7AA0
7B20
F500
F500
F500
F500
7A20
3A20
1A40
0F80
1400
1400
1400
ENDCHAR
STARTCHAR franc
ENCODING 8355
SWIDTH 702 0
DWIDTH 19 0
BBX 16 21 1 0
BITMAP
FFFF
3C07
3C03
3C01
3C01
3C01
3C10
3C10
3C10
3C70
3FF0
3C30
3C10
3C10
3C10
3C00
FFC0
3C00
3C00
3C00
FFC0
ENDCHAR
STARTCHAR lira
ENCODING 8356
SWIDTH 559 0
DWIDTH 15 0
BBX 15 21 0 -1
BITMAP
01F0
0708
0F0C
0E0C
1E1C
1E1C
1E00
1F00
7FF0
1F00
1F00
0F00
7FF0
0F00
0700
0706
7E04
4FFC
CFFC
4CF8
7800
ENDCHAR
STARTCHAR uni20A6
ENCODING 8358
SWIDTH 743 0
DWIDTH 20 0
BBX 20 21 1 0
BITMAP
FF07F0
3F0080
3F8080
3FC080
37C080
37E080
FFFFF0
31F080
31F880
FFFFF0
307E80
307E80
303F80
301F80
301F80
300F80
300780
300780
300380
300180
FE0180
ENDCHAR
STARTCHAR uni20A9
ENCODING 8361
SWIDTH 998 0
DWIDTH 27 0
BBX 29 21 -1 0
BITMAP
FFFFFDF8
1F1F1040
1F0F2040
0F0FA040
0F87A080
0F87C080
3FFFFFE0
07C3C100
03C3E100
3FFFFFE0
03E1E200
01E3F200
01F2F400
01F4FC00
00F4FC00
00F87800
00F87800
00787800
00703000
00303000
00301000
ENDCHAR
STARTCHAR Euro
ENCODING 8364
SWIDTH 651 0
DWIDTH 18 0
BBX 15 20 1 0
BITMAP
01F2
078E
0F06
0E02
1E02
1E00
3E00
3E00
FFF8
3E00
3E00
FFF8
3E00
3E00
3E00
1E02
1E02
0F06
078E
03F2
ENDCHAR
STARTCHAR uni20B9
ENCODING 8377
SWIDTH 604 0
DWIDTH 16 0
BBX 15 20 1 0
BITMAP
FFFE
03C0
01E0
01F0
FFFE
01F0
01F0
01E0
07C0
FE00
0780
03C0
03E0
03E0
03F0
03F0
01F0
01F0
00F0
007C
ENDCHAR
STARTCHAR uni20BA
ENCODING 8378
SWIDTH 576 0
DWIDTH 16 0
BBX 14 21 1 0
BITMAP
FFC0
3C00
3C00
3C00
3C10
3C70
3FC0
3F00
7C10
FCF0
3FC0
3E00
FC38
BC3C
3C34
3C04
3C04
3C04
3C08
3C30
FFC0
ENDCHAR
STARTCHAR uni2113
ENCODING 8467
SWIDTH 504 0
DWIDTH 14 0
BBX 12 21 1 0
BITMAP
0F80
1CC0
1CC0
3C40
3C40
3CC0
3CC0
3C80
3D80
3F00
3E00
3C00
3C00
FC00
BC00
3C00
3C00
3C30
3F60
1FC0
0F80
ENDCHAR
STARTCHAR uni2116
ENCODING 8470
SWIDTH 1129 0
DWIDTH 30 0
BBX 29 21 1 0
BITMAP
FF07F1E0
3F008330
3F808738
3FC08638
37C08638
37E08738
33F08330
31F881E0
31F88000
30FC8000
307E8000
307E8000
303F8000
301F8000
301F8000
300F8000
30078000
30078000
30038000
30018000
FE018000
ENDCHAR
STARTCHAR uni2120
ENCODING 8480
SWIDTH 785 0
DWIDTH 21 0
BBX 20 11 1 10
BITMAP
7DF0F0
44F0E0
84B1E0
E0B9E0
F8BAE0
7CBAE0
1E9AE0
069EE0
829CE0
C48CE0
B9EDF0
ENDCHAR
STARTCHAR trademark
ENCODING 8482
SWIDTH 845 0
DWIDTH 23 0
BBX 21 11 1 10
BITMAP
FF7878
9D3C70
9D3C70
1C3CB0
1C2CB0
1C2EB0
1C2F30
1C2730
1C2730
1C2730
7E72F8
ENDCHAR
STARTCHAR uni2126
ENCODING 8486
SWIDTH 812 0
DWIDTH 22 0
BBX 20 20 1 0
BITMAP
01F800
070E00
1E0780
3E0780
3C03C0
7C03C0
7C03E0
7C03E0
7C03E0
7C03E0
7C03E0
7C03C0
3C03C0
3C0780
1E0700
8E0610
C30C30
FF0FE0
FF1FE0
7F9FE0
ENDCHAR
STARTCHAR estimated
ENCODING 8494
SWIDTH 898 0
DWIDTH 24 0
BBX 22 20 1 0
BITMAP
00FE00
070180
080060
300030
300030
700038
70003C
F0003C
F0003C
FFFFFC
F00000
F00000
F00000
700000
700000
300000
100020
080040
060180
01FE00
ENDCHAR
STARTCHAR uni2153
ENCODING 8531
SWIDTH 913 0
DWIDTH 25 0
BBX 20 21 2 0
BITMAP
F80300
380300
380600
380E00
380C00
381C00
381800
383000
383000
386180
386660
44C670
00C670
018060
018300
0300E0
030070
060C70
060E70
0C0C70
1C07C0
ENDCHAR
STARTCHAR uni2154
ENCODING 8532
SWIDTH 913 0
DWIDTH 25 0
BBX 20 21 2 0
BITMAP
3C0180
C70300
E70300
E70600
070600
0E0C00
180C00
201800
411800
FF3000
FF33E0
006670
00E670
00C060
01C380
0180E0
030070
030C70
060E70
060C70
0C07C0
ENDCHAR
STARTCHAR oneeighth
ENCODING 8539
SWIDTH 913 0
DWIDTH 25 0
BBX 20 21 2 0
BITMAP
F80300
380300
380600
380E00
380C00
381C00
381800
383000
383000
386180
386660
44CE70
00CE70
018E70
018660
0303C0
030E70
060E30
060E30
0C0E70
1C07E0
ENDCHAR
STARTCHAR threeeighths
ENCODING 8540
SWIDTH 913 0
DWIDTH 25 0
BBX 21 21 2 0
BITMAP
3E0180
670300
670300
070600
0E0600
3C0C00
070C00
471800
E73800
C73080
7C7770
006630
00C638
00C730
018360
0181C0
030630
030E38
060E38
060638
0C03E0
ENDCHAR
STARTCHAR fiveeighths
ENCODING 8541
SWIDTH 913 0
DWIDTH 25 0
BBX 21 21 2 0
BITMAP
7F0180
7F0300
400300
400600
7E0600
070C00
078C00
439800
E3B800
C73080
7E7770
006630
00E638
00C730
018360
0181C0
030630
030E38
060E38
060638
0C03E0
ENDCHAR
STARTCHAR seveneighths
ENCODING 8542
SWIDTH 913 0
DWIDTH 25 0
BBX 21 21 2 0
BITMAP
7F8300
7F8300
410600
820600
020C00
040C00
0C1800
0C1800
1C3000
1C3080
1C6770
006630
00C638
01C730
018360
0381C0
030630
070E38
060E38
0C0638
0C03E0
ENDCHAR
STARTCHAR partialdiff
ENCODING 8706
SWIDTH 616 0
DWIDTH 17 0
BBX 14 21 1 0
BITMAP
1F00
3FC0
3860
2030
0038
0018
001C
001C
001C
0F9C
1FFC
3C3C
783C
783C
F83C
F078
F078
F070
70F0
39E0
1F80
ENDCHAR
STARTCHAR uni2206
ENCODING 8710
SWIDTH 727 0
DWIDTH 20 0
BBX 18 20 1 0
BITMAP
00C000
01C000
01E000
03E000
03E000
03F000
07F000
06F800
0CF800
0C7C00
087C00
183C00
103E00
303E00
301F00
601F00
600F80
400F80
FFFF80
FFFFC0
ENDCHAR
STARTCHAR product
ENCODING 8719
SWIDTH 802 0
DWIDTH 22 0
BBX 20 22 1 -2
BITMAP
FFFFF0
3E0780
3E0780
3E0780
3E0780
3E0780
3E0780
3E0780
3E0780
3E0780
3E0780
3E0780
3E0780
3E0780
3E0780
3E0780
3E0780
3E0780
3E0780
3E0780
3E0780
FF9FF0
ENDCHAR
STARTCHAR summation
ENCODING 8721
SWIDTH 630 0
DWIDTH 17 0
BBX 15 23 1 -3
BITMAP
FFFC
F81C
7C0C
7C0C
3E04
3E00
1F00
1F00
0F80
0F80
0780
0700
0300
0600
0400
0C00
1802
1006
3006
7FFE
FFFC
FFFC
FFFC
ENDCHAR
STARTCHAR minus
ENCODING 8722
SWIDTH 578 0
DWIDTH 16 0
BBX 14 1 1 9
BITMAP
FFFC
ENDCHAR
STARTCHAR uni2215
ENCODING 8725
SWIDTH 489 0
DWIDTH 13 0
BBX 13 20 0 0
BITMAP
0018
0030
0030
0060
00E0
00C0
0180
0180
0300
0300
0600
0600
0C00
0C00
1800
3800
3000
6000
6000
C000
ENDCHAR
STARTCHAR uni2219
ENCODING 8729
SWIDTH 274 0
DWIDTH 7 0
BBX 5 5 1 4
BITMAP
70
F8
F8
78
30
ENDCHAR
STARTCHAR radical
ENCODING 8730
SWIDTH 617 0
DWIDTH 17 0
BBX 15 30 1 -5
BITMAP
0002
0002
0006
0006
0006
0006
0004
0004
000C
000C
000C
0008
0008
FC08
1E18
1E18
0E18
0F10
0710
07B0
07B0
03B0
03E0
01E0
01E0
01E0
00E0
00E0
0040
0040
ENDCHAR
STARTCHAR infinity
ENCODING 8734
SWIDTH 814 0
DWIDTH 22 0
BBX 20 10 1 3
BITMAP
1E0780
3F8FC0
71D8E0
E0F060
C0E070
C06070
E0F060
71F8E0
7F9FC0
1E0780
ENDCHAR
STARTCHAR integral
ENCODING 8747
SWIDTH 446 0
DWIDTH 12 0
BBX 14 28 -1 -5
BITMAP
00F0
0398
039C
0798
0780
0F80
0F80
0F80
0F80
0F80
0F80
0F80
0F80
0F80
0F80
0780
0780
0780
0780
0780
0780
0780
0700
0700
4700
E600
E600
7C00
ENDCHAR
STARTCHAR approxequal
ENCODING 8776
SWIDTH 585 0
DWIDTH 16 0
BBX 13 8 1 5
BITMAP
3C18
7FF8
C1F0
0000
1800
7E18
E7F8
40F0
ENDCHAR
STARTCHAR notequal
ENCODING 8800
SWIDTH 598 0
DWIDTH 16 0
BBX 14 14 1 2
BITMAP
00C0
0080
0080
0080
FFFC
0100
0100
0300
0200
FFFC
0200
0600
0400
0400
ENDCHAR
STARTCHAR lessequal
ENCODING 8804
SWIDTH 578 0
DWIDTH 16 0
BBX 14 18 1 1
BITMAP
0008
0038
00F0
03C0
0F00
3C00
7000
6000
7800
1E00
0780
01E0
0078
0018
0000
0000
0000
FFFC
ENDCHAR
STARTCHAR greaterequal
ENCODING 8805
SWIDTH 578 0
DWIDTH 16 0
BBX 14 18 1 1
BITMAP
8000
E000
3800
0E00
0380
00E0
0038
0018
0070
01C0
0700
1C00
7000
C000
0000
0000
0000
FFFC
ENDCHAR
STARTCHAR lozenge
ENCODING 9674
SWIDTH 633 0
DWIDTH 17 0
BBX 15 23 1 -2
BITMAP
0380
07C0
06C0
0EE0
0C60
1C70
1830
3838
3018
701C
600C
E00E
600C
701C
3018
3838
1830
1C70
0C60
0EE0
06C0
07C0
0380
ENDCHAR
STARTCHAR .notdef
ENCODING -1
SWIDTH 809 0
DWIDTH 22 0
BBX 15 34 3 -9
BITMAP
FFFE
E00E
F00E
F00E
F016
E816
E816
E826
E426
E426
E446
E246
E246
E286
E186
E186
E106
E106
E186
E186
E286
E246
E246
E446
E426
E426
E826
E816
E816
F016
F00E
F00E
E00E
FFFE
ENDCHAR
STARTCHAR uni1ECD.001
ENCODING -1
SWIDTH 589 0
DWIDTH 16 0
BBX 14 19 1 -7
BITMAP
0FC0
3860
7870
7878
F078
F07C
F07C
F078
7878
7870
3860
0FC0
0000
0000
0000
0780
0780
0780
0300
ENDCHAR
STARTCHAR f_f
ENCODING -1
SWIDTH 658 0
DWIDTH 18 0
BBX 20 21 1 0
BITMAP
0003C0
07CE60
0CECF0
1CFCF0
1CFC60
3C7C00
3C3C00
3C3C00
3C3C00
FFFF80
3C3C00
3C3C00
3C3C00
3C3C00
3C3C00
3C3C00
3C3C00
3C3C00
3C3C00
3C3C00
FEFF80
ENDCHAR
STARTCHAR f_f_i
ENCODING -1
SWIDTH 925 0
DWIDTH 25 0
BBX 24 21 1 0
BITMAP
0003E0
07C638
0CEC38
1CFC38
1CFC38
3C7C00
3C3C00
3C3C00
3C3C00
FFFFFC
3C3C3C
3C3C3C
3C3C3C
3C3C3C
3C3C3C
3C3C3C
3C3C3C
3C3C3C
3C3C3C
3C3C3C
FEFF7F
ENDCHAR
STARTCHAR f_f_l
ENCODING -1
SWIDTH 944 0
DWIDTH 25 0
BBX 24 21 1 0
BITMAP
0003EC
07CE7C
0CEC7C
1CFC7C
1CFC3C
3C7C3C
3C3C3C
3C3C3C
3C3C3C
FFFFFC
3C3C3C
3C3C3C
3C3C3C
3C3C3C
3C3C3C
3C3C3C
3C3C3C
3C3C3C
3C3C3C
3C3C3C
FEFFFF
ENDCHAR
STARTCHAR f_i
ENCODING -1
SWIDTH 613 0
DWIDTH 17 0
BBX 15 21 1 0
BITMAP
03E0
0C30
1C38
1C78
3C30
3C00
3C00
3C00
3C00
FFF8
3C38
3C38
3C38
3C38
3C38
3C38
3C38
3C38
3C38
3C38
FEFE
ENDCHAR
STARTCHAR f_l
ENCODING -1
SWIDTH 634 0
DWIDTH 17 0
BBX 16 21 1 0
BITMAP
03CC
0C7C
1CFC
1CFC
3C3C
3C3C
3C3C
3C3C
3C3C
FFFC
3C3C
3C3C
3C3C
3C3C
3C3C
3C3C
3C3C
3C3C
3C3C
3C3C
FEFF
ENDCHAR
STARTCHAR zero.denominator
ENCODING -1
SWIDTH 419 0
DWIDTH 11 0
BBX 10 11 1 0
BITMAP
3E00
6300
E180
E180
E1C0
E1C0
E1C0
E180
E180
6300
3E00
ENDCHAR
STARTCHAR one.denominator
ENCODING -1
SWIDTH 279 0
DWIDTH 8 0
BBX 5 10 1 0
BITMAP
F0
70
70
70
70
70
70
70
70
F8
ENDCHAR
STARTCHAR two.denominator
ENCODING -1
SWIDTH 360 0
DWIDTH 10 0
BBX 9 11 0 0
BITMAP
1E00
6780
7380
7380
0300
0600
0C00
1080
2080
FF80
FF80
ENDCHAR
STARTCHAR three.denominator
ENCODING -1
SWIDTH 346 0
DWIDTH 9 0
BBX 9 11 0 0
BITMAP
3E00
6700
7700
0700
0600
3E00
0700
6380
E380
E700
7E00
ENDCHAR
STARTCHAR four.denominator
ENCODING -1
SWIDTH 391 0
DWIDTH 11 0
BBX 10 11 0 0
BITMAP
0600
0600
1E00
1600
2600
4600
4640
FFC0
0640
0600
0F00
ENDCHAR
STARTCHAR five.denominator
ENCODING -1
SWIDTH 362 0
DWIDTH 10 0
BBX 9 12 0 0
BITMAP
0080
3F80
3F00
4000
4000
7E00
0780
0380
0380
E380
6380
3E00
ENDCHAR
STARTCHAR six.denominator
ENCODING -1
SWIDTH 352 0
DWIDTH 10 0
BBX 8 12 1 0
BITMAP
02
1C
30
60
E0
FC
E7
C7
C7
C7
66
3C
ENDCHAR
STARTCHAR seven.denominator
ENCODING -1
SWIDTH 351 0
DWIDTH 9 0
BBX 8 10 1 0
BITMAP
FF
FF
82
04
04
08
18
38
38
38
ENDCHAR
STARTCHAR eight.denominator
ENCODING -1
SWIDTH 356 0
DWIDTH 10 0
BBX 9 11 0 0
BITMAP
3E00
7300
7380
7380
3300
1C00
7300
E380
E380
6380
3F00
ENDCHAR
STARTCHAR nine.denominator
ENCODING -1
SWIDTH 352 0
DWIDTH 10 0
BBX 9 11 0 0
BITMAP
3E00
6300
6300
E380
E380
6380
3F00
0700
0600
0C00
7000
ENDCHAR
STARTCHAR zero.numerator
ENCODING -1
SWIDTH 419 0
DWIDTH 11 0
BBX 10 12 1 9
BITMAP
3E00
6300
E380
E180
E1C0
E1C0
E1C0
E180
E180
6380
2300
1C00
ENDCHAR
STARTCHAR one.numerator
ENCODING -1
SWIDTH 279 0
DWIDTH 8 0
BBX 6 11 0 10
BITMAP
F8
38
38
38
38
38
38
38
38
38
7C
ENDCHAR
STARTCHAR two.numerator
ENCODING -1
SWIDTH 360 0
DWIDTH 10 0
BBX 9 11 0 10
BITMAP
1E00
6780
7380
7380
0300
0600
0C00
1080
2080
FF80
FF80
ENDCHAR
STARTCHAR three.numerator
ENCODING -1
SWIDTH 346 0
DWIDTH 9 0
BBX 9 12 0 9
BITMAP
3E00
6700
7700
0700
0600
3E00
0700
0380
E380
E700
4700
3800
ENDCHAR
STARTCHAR four.numerator
ENCODING -1
SWIDTH 391 0
DWIDTH 11 0
BBX 10 11 0 10
BITMAP
0600
0600
1E00
1600
2600
4600
4640
FFC0
0640
0600
0F00
ENDCHAR
STARTCHAR five.numerator
ENCODING -1
SWIDTH 362 0
DWIDTH 10 0
BBX 9 12 0 10
BITMAP
0080
3F80
3F00
4000
4000
7E00
0780
0380
0380
E380
6380
3E00
ENDCHAR
STARTCHAR six.numerator
ENCODING -1
SWIDTH 352 0
DWIDTH 10 0
BBX 8 12 1 9
BITMAP
0E
18
70
60
E8
F6
C7
C7
C7
C7
66
18
ENDCHAR
STARTCHAR seven.numerator
ENCODING -1
SWIDTH 351 0
DWIDTH 9 0
BBX 8 11 1 10
BITMAP
7F
FF
82
82
04
08
08
18
38
38
38
ENDCHAR
STARTCHAR eight.numerator
ENCODING -1
SWIDTH 356 0
DWIDTH 10 0
BBX 9 11 0 10
BITMAP
3E00
7300
7380
7380
3300
1C00
7300
6380
E380
6380
7F00
ENDCHAR
STARTCHAR nine.numerator
ENCODING -1
SWIDTH 352 0
DWIDTH 10 0
BBX 9 11 0 10
BITMAP
3E00
6300
6300
E380
E380
6380
3F00
0700
0600
0C00
7000
ENDCHAR
STARTCHAR uni030F.cap
ENCODING -1
SWIDTH 0 0
DWIDTH 0 0
BBX 13 4 -14 21
BITMAP
E380
F3C0
7DF0
0618
ENDCHAR
STARTCHAR uni0311.cap
ENCODING -1
SWIDTH 0 0
DWIDTH 0 0
BBX 9 4 -9 21
BITMAP
3E00
FF00
FF80
8180
ENDCHAR
STARTCHAR caron.alt
ENCODING -1
SWIDTH 186 0
DWIDTH 5 0
BBX 5 7 0 14
BITMAP
70
F0
F8
68
18
10
20
ENDCHAR
STARTCHAR acute.case
ENCODING -1
SWIDTH 313 0
DWIDTH 8 0
BBX 7 4 1 21
BITMAP
0E
1E
7C
C0
ENDCHAR
STARTCHAR breve.case
ENCODING -1
SWIDTH 353 0
DWIDTH 10 0
BBX 9 4 0 21
BITMAP
C080
FF80
7F80
3E00
ENDCHAR
STARTCHAR caron.case
ENCODING -1
SWIDTH 424 0
DWIDTH 11 0
BBX 10 4 1 21
BITMAP
C1C0
7F00
3E00
0C00
ENDCHAR
STARTCHAR circumflex.case
ENCODING -1
SWIDTH 424 0
DWIDTH 11 0
BBX 11 4 0 21
BITMAP
0E00
1F00
3FC0
C060
ENDCHAR
STARTCHAR dieresis.case
ENCODING -1
SWIDTH 342 0
DWIDTH 9 0
BBX 9 4 0 21
BITMAP
6300
F780
F380
0100
ENDCHAR
STARTCHAR dotaccent.case
ENCODING -1
SWIDTH 157 0
DWIDTH 4 0
BBX 4 4 0 21
BITMAP
60
F0
F0
60
ENDCHAR
STARTCHAR grave.case
ENCODING -1
SWIDTH 313 0
DWIDTH 8 0
BBX 8 4 0 21
BITMAP
60
F8
7C
07
ENDCHAR
STARTCHAR hungarumlaut.case
ENCODING -1
SWIDTH 535 0
DWIDTH 14 0
BBX 13 4 1 21
BITMAP
0E38
1E78
7DF0
C300
ENDCHAR
STARTCHAR macron.case
ENCODING -1
SWIDTH 360 0
DWIDTH 10 0
BBX 9 2 0 22
BITMAP
FF80
FF80
ENDCHAR
STARTCHAR ring.case
ENCODING -1
SWIDTH 213 0
DWIDTH 6 0
BBX 5 5 0 20
BITMAP
70
78
C8
C8
78
ENDCHAR
STARTCHAR tilde.case
ENCODING -1
SWIDTH 412 0
DWIDTH 11 0
BBX 11 4 0 21
BITMAP
3C60
7FC0
7FC0
8100
ENDCHAR
STARTCHAR uni03060301
ENCODING -1
SWIDTH 0 0
DWIDTH 0 0
BBX 8 9 -12 14
BITMAP
0F
1F
7C
00
00
81
FF
7E
3C
ENDCHAR
STARTCHAR uni03060300
ENCODING -1
SWIDTH 0 0
DWIDTH 0 0
BBX 8 9 -12 14
BITMAP
40
F0
F8
1E
00
81
FF
7E
3C
ENDCHAR
STARTCHAR uni03060309
ENCODING -1
SWIDTH 0 0
DWIDTH 0 0
BBX 8 9 -12 14
BITMAP
78
4C
CC
4C
18
81
FF
7E
3C
ENDCHAR
STARTCHAR uni03060303
ENCODING -1
SWIDTH 0 0
DWIDTH 0 0
BBX 10 9 -13 14
BITMAP
1040
7FC0
FF80
8F00
0000
4080
7F80
3F00
1E00
ENDCHAR
STARTCHAR uni03020301
ENCODING -1
SWIDTH 0 0
DWIDTH 0 0
BBX 8 7 -12 14
BITMAP
0F
1F
7C
00
38
7E
C3
ENDCHAR
STARTCHAR uni03020300
ENCODING -1
SWIDTH 0 0
DWIDTH 0 0
BBX 8 8 -12 14
BITMAP
E0
F0
7C
06
00
38
7E
C3
ENDCHAR
STARTCHAR uni03020309
ENCODING -1
SWIDTH 0 0
DWIDTH 0 0
BBX 10 8 -12 14
BITMAP
07C0
04C0
0640
00C0
0100
3800
7E00
C300
ENDCHAR
STARTCHAR uni03020303
ENCODING -1
SWIDTH 0 0
DWIDTH 0 0
BBX 10 9 -13 14
BITMAP
1040
7FC0
FF80
8F00
0000
0000
1C00
3F00
6180
ENDCHAR
STARTCHAR NULL
ENCODING -1
SWIDTH 0 0
DWIDTH 0 0
BBX 1 1 0 0
BITMAP
00
ENDCHAR
STARTCHAR espaciador
ENCODING -1
SWIDTH 158 0
DWIDTH 4 0
BBX 4 34 0 -9
BITMAP
F0
F0
F0
F0
F0
F0
F0
F0
F0
F0
F0
F0
F0
F0
F0
F0
F0
F0
F0
F0
F0
F0
F0
F0
F0
F0
F0
F0
F0
F0
F0
F0
F0
F0
ENDCHAR
STARTCHAR dotbelow
ENCODING -1
SWIDTH 181 0
DWIDTH 5 0
BBX 5 4 0 -7
BITMAP
70
F8
F0
70
ENDCHAR
ENDFONT
